NotoSansJavanese-Bold.ufo
<glyph name="panyangga.ns" format="2">
  <unicode hex="A980"/>
  <note>
panyangga.ns
</note>
  <outline>
    <contour>
      <point x="-490" y="587" type="curve" smooth="yes"/>
      <point x="-403" y="587"/>
      <point x="-339" y="628"/>
      <point x="-298" y="709" type="curve"/>
      <point x="-347" y="743" type="line"/>
      <point x="-356" y="726"/>
      <point x="-369" y="711"/>
      <point x="-385" y="700" type="curve"/>
      <point x="-394" y="766"/>
      <point x="-429" y="816"/>
      <point x="-490" y="849" type="curve"/>
      <point x="-551" y="816"/>
      <point x="-587" y="766"/>
      <point x="-596" y="700" type="curve"/>
      <point x="-612" y="711"/>
      <point x="-625" y="726"/>
      <point x="-634" y="743" type="curve"/>
      <point x="-683" y="709" type="line"/>
      <point x="-642" y="628"/>
      <point x="-578" y="587"/>
    </contour>
    <contour>
      <point x="-490" y="672" type="curve" smooth="yes"/>
      <point x="-504" y="672"/>
      <point x="-516" y="674"/>
      <point x="-526" y="676" type="curve"/>
      <point x="-526" y="707"/>
      <point x="-514" y="731"/>
      <point x="-490" y="749" type="curve"/>
      <point x="-467" y="731"/>
      <point x="-455" y="707"/>
      <point x="-455" y="676" type="curve"/>
      <point x="-465" y="674"/>
      <point x="-477" y="672"/>
    </contour>
  </outline>
</glyph>
<glyph name="cecak.ns" format="2">
  <unicode hex="A981"/>
  <note>
cecak.ns
</note>
  <outline>
    <contour>
      <point x="-155" y="626" type="curve" smooth="yes"/>
      <point x="-80" y="626"/>
      <point x="-20" y="665"/>
      <point x="26" y="742" type="curve"/>
      <point x="-29" y="779" type="line"/>
      <point x="-58" y="736"/>
      <point x="-86" y="708"/>
      <point x="-114" y="693" type="curve"/>
      <point x="-119" y="698" type="line"/>
      <point x="-115" y="707"/>
      <point x="-113" y="715"/>
      <point x="-113" y="723" type="curve" smooth="yes"/>
      <point x="-113" y="746"/>
      <point x="-135" y="768"/>
      <point x="-169" y="768" type="curve" smooth="yes"/>
      <point x="-210" y="768"/>
      <point x="-244" y="737"/>
      <point x="-244" y="697" type="curve" smooth="yes"/>
      <point x="-244" y="652"/>
      <point x="-202" y="626"/>
    </contour>
  </outline>
</glyph>
<glyph name="layar.ns" format="2">
  <unicode hex="A982"/>
  <note>
layar.ns
</note>
  <outline>
    <contour>
      <point x="-193" y="583" type="line"/>
      <point x="216" y="876" type="line"/>
      <point x="148" y="974" type="line"/>
      <point x="-256" y="669" type="line"/>
    </contour>
  </outline>
</glyph>
<glyph name="wignyan" format="2">
  <advance width="426"/>
  <unicode hex="A983"/>
  <note>
wignyan
</note>
  <outline>
    <contour>
      <point x="440" y="-867" type="line"/>
      <point x="494" y="-640"/>
      <point x="521" y="-455"/>
      <point x="521" y="-313" type="curve" smooth="yes"/>
      <point x="521" y="-82"/>
      <point x="416" y="40"/>
      <point x="178" y="91" type="curve"/>
      <point x="290" y="152"/>
      <point x="381" y="249"/>
      <point x="381" y="376" type="curve" smooth="yes"/>
      <point x="381" y="491"/>
      <point x="311" y="546"/>
      <point x="204" y="546" type="curve" smooth="yes"/>
      <point x="111" y="546"/>
      <point x="49" y="489"/>
      <point x="49" y="399" type="curve" smooth="yes"/>
      <point x="49" y="322"/>
      <point x="107" y="252"/>
      <point x="176" y="216" type="curve"/>
      <point x="167" y="200"/>
      <point x="127" y="173"/>
      <point x="57" y="134" type="curve"/>
      <point x="57" y="-3" type="line"/>
      <point x="299" y="-50"/>
      <point x="396" y="-151"/>
      <point x="396" y="-390" type="curve" smooth="yes"/>
      <point x="396" y="-521"/>
      <point x="380" y="-677"/>
      <point x="349" y="-851" type="curve"/>
    </contour>
    <contour>
      <point x="231" y="305" type="curve"/>
      <point x="189" y="331"/>
      <point x="168" y="360"/>
      <point x="168" y="392" type="curve" smooth="yes"/>
      <point x="168" y="420"/>
      <point x="180" y="438"/>
      <point x="211" y="438" type="curve" smooth="yes"/>
      <point x="240" y="438"/>
      <point x="255" y="423"/>
      <point x="255" y="385" type="curve" smooth="yes"/>
      <point x="255" y="359"/>
      <point x="247" y="333"/>
    </contour>
  </outline>
</glyph>
<glyph name="akara" format="2">
  <advance width="1563"/>
  <unicode hex="A984"/>
  <note>
akara
</note>
  <outline>
    <contour>
      <point x="1141" y="-3" type="curve" smooth="yes"/>
      <point x="1225" y="-3"/>
      <point x="1268" y="43"/>
      <point x="1268" y="134" type="curve" smooth="yes"/>
      <point x="1268" y="214" type="line"/>
      <point x="1344" y="200"/>
      <point x="1383" y="164"/>
      <point x="1383" y="103" type="curve" smooth="yes"/>
      <point x="1383" y="0" type="line"/>
      <point x="1514" y="0" type="line"/>
      <point x="1514" y="369" type="line" smooth="yes"/>
      <point x="1514" y="487"/>
      <point x="1451" y="546"/>
      <point x="1326" y="546" type="curve" smooth="yes"/>
      <point x="1200" y="546"/>
      <point x="1137" y="485"/>
      <point x="1137" y="364" type="curve" smooth="yes"/>
      <point x="1137" y="317" type="line"/>
      <point x="1060" y="317" type="line"/>
      <point x="1097" y="404" type="line"/>
      <point x="1013" y="404" type="line"/>
      <point x="937" y="245" type="line"/>
      <point x="954" y="215" type="line"/>
      <point x="1137" y="215" type="line"/>
      <point x="1137" y="183" type="line" smooth="yes"/>
      <point x="1137" y="147"/>
      <point x="1123" y="129"/>
      <point x="1097" y="129" type="curve" smooth="yes"/>
      <point x="1085" y="129"/>
      <point x="1045" y="145"/>
      <point x="974" y="178" type="curve" smooth="yes"/>
      <point x="892" y="216"/>
      <point x="842" y="234"/>
      <point x="801" y="234" type="curve" smooth="yes"/>
      <point x="746" y="234"/>
      <point x="686" y="176"/>
      <point x="619" y="61" type="curve"/>
      <point x="691" y="5" type="line"/>
      <point x="738" y="71"/>
      <point x="778" y="104"/>
      <point x="813" y="104" type="curve" smooth="yes"/>
      <point x="833" y="104"/>
      <point x="881" y="88"/>
      <point x="956" y="51" type="curve" smooth="yes"/>
      <point x="1026" y="17"/>
      <point x="1083" y="-3"/>
    </contour>
    <contour>
      <point x="394" y="0" type="curve" smooth="yes"/>
      <point x="517" y="0"/>
      <point x="619" y="44"/>
      <point x="619" y="158" type="curve" smooth="yes"/>
      <point x="619" y="234"/>
      <point x="546" y="271"/>
      <point x="485" y="282" type="curve"/>
      <point x="485" y="287" type="line"/>
      <point x="562" y="306"/>
      <point x="600" y="345"/>
      <point x="600" y="404" type="curve" smooth="yes"/>
      <point x="600" y="495"/>
      <point x="528" y="544"/>
      <point x="436" y="544" type="curve" smooth="yes"/>
      <point x="387" y="544"/>
      <point x="339" y="527"/>
      <point x="295" y="494" type="curve"/>
      <point x="325" y="390" type="line"/>
      <point x="361" y="411"/>
      <point x="391" y="421"/>
      <point x="417" y="421" type="curve" smooth="yes"/>
      <point x="449" y="421"/>
      <point x="464" y="409"/>
      <point x="464" y="389" type="curve" smooth="yes"/>
      <point x="464" y="359"/>
      <point x="433" y="344"/>
      <point x="373" y="344" type="curve" smooth="yes"/>
      <point x="341" y="344" type="line"/>
      <point x="341" y="214" type="line"/>
      <point x="390" y="214" type="line" smooth="yes"/>
      <point x="448" y="214"/>
      <point x="478" y="199"/>
      <point x="478" y="168" type="curve" smooth="yes"/>
      <point x="478" y="137"/>
      <point x="446" y="122"/>
      <point x="384" y="122" type="curve" smooth="yes"/>
      <point x="276" y="122"/>
      <point x="215" y="192"/>
      <point x="215" y="315" type="curve" smooth="yes"/>
      <point x="215" y="449"/>
      <point x="267" y="583"/>
      <point x="366" y="717" type="curve"/>
      <point x="262" y="774" type="line"/>
      <point x="152" y="617"/>
      <point x="73" y="464"/>
      <point x="73" y="294" type="curve" smooth="yes"/>
      <point x="73" y="103"/>
      <point x="212" y="0"/>
    </contour>
    <contour>
      <point x="1383" y="247" type="line"/>
      <point x="1360" y="294"/>
      <point x="1323" y="317"/>
      <point x="1273" y="317" type="curve" smooth="yes"/>
      <point x="1268" y="317" type="line"/>
      <point x="1268" y="367" type="line" smooth="yes"/>
      <point x="1268" y="406"/>
      <point x="1288" y="426"/>
      <point x="1326" y="426" type="curve" smooth="yes"/>
      <point x="1364" y="426"/>
      <point x="1383" y="407"/>
      <point x="1383" y="370" type="curve" smooth="yes"/>
    </contour>
  </outline>
</glyph>
<glyph name="ikara" format="2">
  <advance width="1431"/>
  <unicode hex="A986"/>
  <note>
ikara
</note>
  <outline>
    <contour>
      <point x="872" y="-313" type="curve"/>
      <point x="984" y="-313" type="line"/>
      <point x="979" y="-157"/>
      <point x="913" y="-79"/>
      <point x="786" y="-79" type="curve" smooth="yes"/>
      <point x="678" y="-79" type="line"/>
      <point x="712" y="0" type="line"/>
      <point x="802" y="0" type="line"/>
      <point x="819" y="30" type="line"/>
      <point x="699" y="219" type="line"/>
      <point x="610" y="219" type="line"/>
      <point x="667" y="122" type="line"/>
      <point x="553" y="122" type="line" smooth="yes"/>
      <point x="507" y="122"/>
      <point x="484" y="145"/>
      <point x="484" y="190" type="curve" smooth="yes"/>
      <point x="484" y="349" type="line" smooth="yes"/>
      <point x="484" y="480"/>
      <point x="417" y="546"/>
      <point x="282" y="546" type="curve" smooth="yes"/>
      <point x="146" y="546"/>
      <point x="78" y="479"/>
      <point x="78" y="344" type="curve" smooth="yes"/>
      <point x="78" y="173" type="line" smooth="yes"/>
      <point x="78" y="60"/>
      <point x="154" y="5"/>
      <point x="280" y="0" type="curve"/>
      <point x="299" y="93" type="line"/>
      <point x="239" y="101"/>
      <point x="209" y="129"/>
      <point x="209" y="178" type="curve" smooth="yes"/>
      <point x="209" y="347" type="line" smooth="yes"/>
      <point x="209" y="396"/>
      <point x="234" y="421"/>
      <point x="282" y="421" type="curve" smooth="yes"/>
      <point x="330" y="421"/>
      <point x="354" y="397"/>
      <point x="354" y="350" type="curve" smooth="yes"/>
      <point x="354" y="186" type="line" smooth="yes"/>
      <point x="354" y="67"/>
      <point x="423" y="0"/>
      <point x="549" y="0" type="curve" smooth="yes"/>
      <point x="618" y="0" type="line"/>
      <point x="541" y="-165" type="line"/>
      <point x="558" y="-195" type="line"/>
      <point x="777" y="-195" type="line" smooth="yes"/>
      <point x="839" y="-195"/>
      <point x="871" y="-234"/>
    </contour>
    <contour>
      <point x="980" y="0" type="line"/>
      <point x="1111" y="0" type="line"/>
      <point x="1111" y="352" type="line" smooth="yes"/>
      <point x="1111" y="398"/>
      <point x="1135" y="421"/>
      <point x="1182" y="421" type="curve" smooth="yes"/>
      <point x="1228" y="421"/>
      <point x="1251" y="397"/>
      <point x="1251" y="350" type="curve" smooth="yes"/>
      <point x="1251" y="0" type="line"/>
      <point x="1382" y="0" type="line"/>
      <point x="1382" y="349" type="line" smooth="yes"/>
      <point x="1382" y="480"/>
      <point x="1324" y="546"/>
      <point x="1208" y="546" type="curve" smooth="yes"/>
      <point x="1154" y="546"/>
      <point x="1109" y="523"/>
      <point x="1073" y="479" type="curve"/>
      <point x="1044" y="523"/>
      <point x="999" y="546"/>
      <point x="938" y="546" type="curve" smooth="yes"/>
      <point x="872" y="546"/>
      <point x="830" y="522"/>
      <point x="812" y="476" type="curve"/>
      <point x="789" y="524"/>
      <point x="741" y="548"/>
      <point x="668" y="548" type="curve" smooth="yes"/>
      <point x="581" y="548"/>
      <point x="522" y="488"/>
      <point x="522" y="408" type="curve" smooth="yes"/>
      <point x="522" y="320"/>
      <point x="575" y="271"/>
      <point x="681" y="257" type="curve"/>
      <point x="709" y="326" type="line"/>
      <point x="664" y="338"/>
      <point x="642" y="357"/>
      <point x="642" y="384" type="curve" smooth="yes"/>
      <point x="642" y="409"/>
      <point x="660" y="424"/>
      <point x="690" y="424" type="curve" smooth="yes"/>
      <point x="730" y="424"/>
      <point x="757" y="393"/>
      <point x="764" y="335" type="curve"/>
      <point x="856" y="335" type="line"/>
      <point x="863" y="393"/>
      <point x="884" y="421"/>
      <point x="918" y="421" type="curve" smooth="yes"/>
      <point x="960" y="421"/>
      <point x="980" y="399"/>
      <point x="980" y="355" type="curve" smooth="yes"/>
    </contour>
  </outline>
</glyph>
<glyph name="ukara" format="2">
  <advance width="1155"/>
  <unicode hex="A988"/>
  <note>
ukara
</note>
  <outline>
    <contour>
      <point x="413" y="-825" type="curve" smooth="yes"/>
      <point x="495" y="-825"/>
      <point x="566" y="-788"/>
      <point x="625" y="-715" type="curve" smooth="yes"/>
      <point x="765" y="-542" type="line" smooth="yes"/>
      <point x="808" y="-489"/>
      <point x="849" y="-458"/>
      <point x="891" y="-458" type="curve" smooth="yes"/>
      <point x="936" y="-458"/>
      <point x="968" y="-479"/>
      <point x="994" y="-524" type="curve" smooth="yes"/>
      <point x="1019" y="-568"/>
      <point x="1059" y="-666"/>
      <point x="1116" y="-816" type="curve"/>
      <point x="1192" y="-791" type="line"/>
      <point x="1148" y="-587"/>
      <point x="1106" y="-454"/>
      <point x="1066" y="-392" type="curve" smooth="yes"/>
      <point x="1024" y="-327"/>
      <point x="979" y="-304"/>
      <point x="899" y="-304" type="curve" smooth="yes"/>
      <point x="825" y="-304"/>
      <point x="754" y="-355"/>
      <point x="686" y="-436" type="curve" smooth="yes"/>
      <point x="528" y="-625" type="line" smooth="yes"/>
      <point x="501" y="-657"/>
      <point x="474" y="-676"/>
      <point x="445" y="-676" type="curve" smooth="yes"/>
      <point x="416" y="-676"/>
      <point x="402" y="-656"/>
      <point x="402" y="-622" type="curve" smooth="yes"/>
      <point x="402" y="-569"/>
      <point x="426" y="-524"/>
      <point x="487" y="-458" type="curve" smooth="yes"/>
      <point x="541" y="-400"/>
      <point x="657" y="-323"/>
      <point x="834" y="-222" type="curve" smooth="yes"/>
      <point x="1011" y="-121"/>
      <point x="1106" y="-19"/>
      <point x="1106" y="78" type="curve" smooth="yes"/>
      <point x="1106" y="362" type="line" smooth="yes"/>
      <point x="1106" y="484"/>
      <point x="1048" y="546"/>
      <point x="933" y="546" type="curve" smooth="yes"/>
      <point x="867" y="546"/>
      <point x="825" y="522"/>
      <point x="807" y="476" type="curve"/>
      <point x="784" y="524"/>
      <point x="736" y="548"/>
      <point x="663" y="548" type="curve" smooth="yes"/>
      <point x="577" y="548"/>
      <point x="518" y="490"/>
      <point x="518" y="410" type="curve" smooth="yes"/>
      <point x="518" y="322"/>
      <point x="570" y="271"/>
      <point x="676" y="257" type="curve"/>
      <point x="704" y="326" type="line"/>
      <point x="659" y="338"/>
      <point x="637" y="357"/>
      <point x="637" y="384" type="curve" smooth="yes"/>
      <point x="637" y="411"/>
      <point x="657" y="424"/>
      <point x="685" y="424" type="curve" smooth="yes"/>
      <point x="727" y="424"/>
      <point x="752" y="393"/>
      <point x="759" y="335" type="curve"/>
      <point x="851" y="335" type="line"/>
      <point x="858" y="393"/>
      <point x="879" y="421"/>
      <point x="914" y="421" type="curve" smooth="yes"/>
      <point x="955" y="421"/>
      <point x="976" y="399"/>
      <point x="976" y="355" type="curve" smooth="yes"/>
      <point x="976" y="100" type="line" smooth="yes"/>
      <point x="976" y="24"/>
      <point x="892" y="-56"/>
      <point x="724" y="-141" type="curve" smooth="yes"/>
      <point x="557" y="-226"/>
      <point x="435" y="-308"/>
      <point x="362" y="-390" type="curve" smooth="yes"/>
      <point x="289" y="-472"/>
      <point x="252" y="-559"/>
      <point x="252" y="-651" type="curve" smooth="yes"/>
      <point x="252" y="-755"/>
      <point x="315" y="-825"/>
    </contour>
    <contour>
      <point x="558" y="0" type="curve" smooth="yes"/>
      <point x="797" y="0" type="line"/>
      <point x="814" y="30" type="line"/>
      <point x="694" y="219" type="line"/>
      <point x="605" y="219" type="line"/>
      <point x="662" y="122" type="line"/>
      <point x="553" y="122" type="line" smooth="yes"/>
      <point x="507" y="122"/>
      <point x="484" y="145"/>
      <point x="484" y="190" type="curve" smooth="yes"/>
      <point x="484" y="349" type="line" smooth="yes"/>
      <point x="484" y="480"/>
      <point x="417" y="546"/>
      <point x="282" y="546" type="curve" smooth="yes"/>
      <point x="146" y="546"/>
      <point x="78" y="479"/>
      <point x="78" y="344" type="curve" smooth="yes"/>
      <point x="78" y="173" type="line" smooth="yes"/>
      <point x="78" y="60"/>
      <point x="154" y="5"/>
      <point x="280" y="0" type="curve"/>
      <point x="299" y="93" type="line"/>
      <point x="239" y="101"/>
      <point x="209" y="129"/>
      <point x="209" y="178" type="curve" smooth="yes"/>
      <point x="209" y="347" type="line" smooth="yes"/>
      <point x="209" y="396"/>
      <point x="234" y="421"/>
      <point x="282" y="421" type="curve" smooth="yes"/>
      <point x="330" y="421"/>
      <point x="354" y="397"/>
      <point x="354" y="350" type="curve" smooth="yes"/>
      <point x="354" y="187" type="line" smooth="yes"/>
      <point x="354" y="63"/>
      <point x="421" y="0"/>
    </contour>
  </outline>
</glyph>
<glyph name="pacerek" format="2">
  <advance width="1119"/>
  <unicode hex="A989"/>
  <note>
pacerek
</note>
  <outline>
    <contour>
      <point x="768" y="-313" type="curve"/>
      <point x="880" y="-313" type="line"/>
      <point x="875" y="-157"/>
      <point x="810" y="-79"/>
      <point x="683" y="-79" type="curve" smooth="yes"/>
      <point x="575" y="-79" type="line"/>
      <point x="618" y="20" type="line"/>
      <point x="581" y="0" type="line"/>
      <point x="589" y="0" type="line"/>
      <point x="728" y="0"/>
      <point x="795" y="63"/>
      <point x="795" y="187" type="curve" smooth="yes"/>
      <point x="795" y="347" type="line" smooth="yes"/>
      <point x="795" y="396"/>
      <point x="820" y="421"/>
      <point x="868" y="421" type="curve" smooth="yes"/>
      <point x="916" y="421"/>
      <point x="939" y="397"/>
      <point x="939" y="350" type="curve" smooth="yes"/>
      <point x="939" y="0" type="line"/>
      <point x="1070" y="0" type="line"/>
      <point x="1070" y="349" type="line" smooth="yes"/>
      <point x="1070" y="480"/>
      <point x="1003" y="546"/>
      <point x="868" y="546" type="curve" smooth="yes"/>
      <point x="732" y="546"/>
      <point x="664" y="479"/>
      <point x="664" y="344" type="curve" smooth="yes"/>
      <point x="664" y="190" type="line" smooth="yes"/>
      <point x="664" y="145"/>
      <point x="641" y="122"/>
      <point x="596" y="122" type="curve" smooth="yes"/>
      <point x="553" y="122" type="line" smooth="yes"/>
      <point x="507" y="122"/>
      <point x="484" y="145"/>
      <point x="484" y="190" type="curve" smooth="yes"/>
      <point x="484" y="349" type="line" smooth="yes"/>
      <point x="484" y="480"/>
      <point x="417" y="546"/>
      <point x="282" y="546" type="curve" smooth="yes"/>
      <point x="146" y="546"/>
      <point x="78" y="479"/>
      <point x="78" y="344" type="curve" smooth="yes"/>
      <point x="78" y="173" type="line" smooth="yes"/>
      <point x="78" y="60"/>
      <point x="154" y="5"/>
      <point x="280" y="0" type="curve"/>
      <point x="299" y="93" type="line"/>
      <point x="239" y="101"/>
      <point x="209" y="129"/>
      <point x="209" y="178" type="curve" smooth="yes"/>
      <point x="209" y="347" type="line" smooth="yes"/>
      <point x="209" y="396"/>
      <point x="234" y="421"/>
      <point x="282" y="421" type="curve" smooth="yes"/>
      <point x="330" y="421"/>
      <point x="354" y="397"/>
      <point x="354" y="350" type="curve" smooth="yes"/>
      <point x="354" y="187" type="line" smooth="yes"/>
      <point x="354" y="77"/>
      <point x="407" y="16"/>
      <point x="515" y="2" type="curve"/>
      <point x="437" y="-165" type="line"/>
      <point x="454" y="-195" type="line"/>
      <point x="673" y="-195" type="line" smooth="yes"/>
      <point x="736" y="-195"/>
      <point x="768" y="-234"/>
    </contour>
  </outline>
</glyph>
<glyph name="ngaleletras" format="2">
  <advance width="1155"/>
  <unicode hex="A98B"/>
  <note>
ngaleletras
</note>
  <outline>
    <contour>
      <point x="775" y="-830" type="curve" smooth="yes"/>
      <point x="995" y="-830"/>
      <point x="1106" y="-716"/>
      <point x="1106" y="-490" type="curve" smooth="yes"/>
      <point x="1106" y="-221" type="line"/>
      <point x="1216" y="-221" type="line" smooth="yes"/>
      <point x="1257" y="-221"/>
      <point x="1278" y="-235"/>
      <point x="1278" y="-264" type="curve" smooth="yes"/>
      <point x="1278" y="-292"/>
      <point x="1243" y="-310"/>
      <point x="1172" y="-316" type="curve"/>
      <point x="1172" y="-399" type="line"/>
      <point x="1246" y="-402"/>
      <point x="1286" y="-425"/>
      <point x="1286" y="-463" type="curve" smooth="yes"/>
      <point x="1286" y="-482"/>
      <point x="1273" y="-497"/>
      <point x="1255" y="-497" type="curve" smooth="yes"/>
      <point x="1229" y="-497"/>
      <point x="1209" y="-484"/>
      <point x="1197" y="-458" type="curve"/>
      <point x="1123" y="-487" type="line"/>
      <point x="1140" y="-566"/>
      <point x="1191" y="-606"/>
      <point x="1276" y="-606" type="curve"/>
      <point x="1369" y="-602"/>
      <point x="1415" y="-560"/>
      <point x="1415" y="-480" type="curve" smooth="yes"/>
      <point x="1415" y="-414"/>
      <point x="1380" y="-373"/>
      <point x="1313" y="-356" type="curve"/>
      <point x="1379" y="-341"/>
      <point x="1412" y="-306"/>
      <point x="1412" y="-249" type="curve" smooth="yes"/>
      <point x="1412" y="-149"/>
      <point x="1346" y="-98"/>
      <point x="1213" y="-98" type="curve" smooth="yes"/>
      <point x="1106" y="-98" type="line"/>
      <point x="1106" y="362" type="line" smooth="yes"/>
      <point x="1106" y="484"/>
      <point x="1048" y="546"/>
      <point x="933" y="546" type="curve" smooth="yes"/>
      <point x="867" y="546"/>
      <point x="825" y="522"/>
      <point x="807" y="476" type="curve"/>
      <point x="784" y="524"/>
      <point x="736" y="548"/>
      <point x="663" y="548" type="curve" smooth="yes"/>
      <point x="578" y="548"/>
      <point x="518" y="490"/>
      <point x="518" y="410" type="curve" smooth="yes"/>
      <point x="518" y="322"/>
      <point x="570" y="271"/>
      <point x="676" y="257" type="curve"/>
      <point x="704" y="326" type="line"/>
      <point x="659" y="338"/>
      <point x="637" y="357"/>
      <point x="637" y="384" type="curve" smooth="yes"/>
      <point x="637" y="410"/>
      <point x="655" y="424"/>
      <point x="685" y="424" type="curve" smooth="yes"/>
      <point x="728" y="424"/>
      <point x="752" y="393"/>
      <point x="759" y="335" type="curve"/>
      <point x="851" y="335" type="line"/>
      <point x="858" y="393"/>
      <point x="879" y="421"/>
      <point x="914" y="421" type="curve" smooth="yes"/>
      <point x="955" y="421"/>
      <point x="976" y="399"/>
      <point x="976" y="355" type="curve" smooth="yes"/>
      <point x="976" y="-97" type="line"/>
      <point x="788" y="-97"/>
      <point x="649" y="-136"/>
      <point x="560" y="-214" type="curve" smooth="yes"/>
      <point x="471" y="-292"/>
      <point x="426" y="-387"/>
      <point x="426" y="-500" type="curve" smooth="yes"/>
      <point x="426" y="-604"/>
      <point x="460" y="-685"/>
      <point x="528" y="-743" type="curve" smooth="yes"/>
      <point x="596" y="-801"/>
      <point x="678" y="-830"/>
    </contour>
    <contour>
      <point x="769" y="-696" type="curve" smooth="yes"/>
      <point x="709" y="-696"/>
      <point x="662" y="-679"/>
      <point x="626" y="-644" type="curve" smooth="yes"/>
      <point x="591" y="-609"/>
      <point x="573" y="-564"/>
      <point x="573" y="-509" type="curve" smooth="yes"/>
      <point x="573" y="-424"/>
      <point x="603" y="-354"/>
      <point x="662" y="-301" type="curve" smooth="yes"/>
      <point x="720" y="-248"/>
      <point x="825" y="-222"/>
      <point x="975" y="-221" type="curve"/>
      <point x="975" y="-479" type="line" smooth="yes"/>
      <point x="975" y="-620"/>
      <point x="902" y="-696"/>
    </contour>
    <contour>
      <point x="558" y="0" type="curve" smooth="yes"/>
      <point x="797" y="0" type="line"/>
      <point x="814" y="30" type="line"/>
      <point x="694" y="219" type="line"/>
      <point x="605" y="219" type="line"/>
      <point x="662" y="122" type="line"/>
      <point x="553" y="122" type="line" smooth="yes"/>
      <point x="507" y="122"/>
      <point x="484" y="145"/>
      <point x="484" y="190" type="curve" smooth="yes"/>
      <point x="484" y="349" type="line" smooth="yes"/>
      <point x="484" y="480"/>
      <point x="417" y="546"/>
      <point x="282" y="546" type="curve" smooth="yes"/>
      <point x="146" y="546"/>
      <point x="78" y="479"/>
      <point x="78" y="344" type="curve" smooth="yes"/>
      <point x="78" y="173" type="line" smooth="yes"/>
      <point x="78" y="60"/>
      <point x="154" y="5"/>
      <point x="280" y="0" type="curve"/>
      <point x="299" y="93" type="line"/>
      <point x="239" y="101"/>
      <point x="209" y="129"/>
      <point x="209" y="178" type="curve" smooth="yes"/>
      <point x="209" y="347" type="line" smooth="yes"/>
      <point x="209" y="396"/>
      <point x="234" y="421"/>
      <point x="282" y="421" type="curve" smooth="yes"/>
      <point x="330" y="421"/>
      <point x="354" y="397"/>
      <point x="354" y="350" type="curve" smooth="yes"/>
      <point x="354" y="187" type="line" smooth="yes"/>
      <point x="354" y="63"/>
      <point x="421" y="0"/>
    </contour>
  </outline>
</glyph>
<glyph name="ekara" format="2">
  <advance width="781"/>
  <unicode hex="A98C"/>
  <note>
ekara
</note>
  <outline>
    <contour>
      <point x="733" y="-87" type="curve"/>
      <point x="816" y="-56" type="line"/>
      <point x="776" y="55"/>
      <point x="742" y="128"/>
      <point x="714" y="163" type="curve" smooth="yes"/>
      <point x="686" y="198"/>
      <point x="650" y="214"/>
      <point x="608" y="214" type="curve" smooth="yes"/>
      <point x="564" y="214"/>
      <point x="512" y="202"/>
      <point x="450" y="182" type="curve" smooth="yes"/>
      <point x="338" y="146"/>
      <point x="269" y="128"/>
      <point x="242" y="128" type="curve" smooth="yes"/>
      <point x="210" y="128"/>
      <point x="192" y="144"/>
      <point x="192" y="172" type="curve" smooth="yes"/>
      <point x="192" y="204"/>
      <point x="212" y="242"/>
      <point x="250" y="285" type="curve"/>
      <point x="271" y="284"/>
      <point x="295" y="284"/>
      <point x="314" y="284" type="curve" smooth="yes"/>
      <point x="478" y="284"/>
      <point x="636" y="300"/>
      <point x="636" y="436" type="curve" smooth="yes"/>
      <point x="636" y="501"/>
      <point x="585" y="545"/>
      <point x="500" y="545" type="curve" smooth="yes"/>
      <point x="383" y="545"/>
      <point x="286" y="496"/>
      <point x="191" y="397" type="curve" smooth="yes"/>
      <point x="96" y="299"/>
      <point x="49" y="208"/>
      <point x="49" y="124" type="curve" smooth="yes"/>
      <point x="49" y="41"/>
      <point x="98" y="0"/>
      <point x="195" y="0" type="curve" smooth="yes"/>
      <point x="240" y="0"/>
      <point x="310" y="16"/>
      <point x="406" y="49" type="curve" smooth="yes"/>
      <point x="484" y="76"/>
      <point x="544" y="88"/>
      <point x="579" y="88" type="curve" smooth="yes"/>
      <point x="651" y="88"/>
      <point x="688" y="11"/>
    </contour>
    <contour>
      <point x="343" y="372" type="curve"/>
      <point x="408" y="423"/>
      <point x="457" y="450"/>
      <point x="490" y="450" type="curve" smooth="yes"/>
      <point x="507" y="450"/>
      <point x="516" y="443"/>
      <point x="516" y="429" type="curve" smooth="yes"/>
      <point x="516" y="398"/>
      <point x="458" y="379"/>
    </contour>
  </outline>
</glyph>
<glyph name="aikara" format="2">
  <advance width="781"/>
  <unicode hex="A98D"/>
  <note>
aikara
</note>
  <outline>
    <contour>
      <point x="733" y="-87" type="curve"/>
      <point x="816" y="-56" type="line"/>
      <point x="776" y="55"/>
      <point x="742" y="128"/>
      <point x="714" y="163" type="curve" smooth="yes"/>
      <point x="686" y="198"/>
      <point x="650" y="214"/>
      <point x="608" y="214" type="curve" smooth="yes"/>
      <point x="564" y="214"/>
      <point x="512" y="202"/>
      <point x="450" y="182" type="curve" smooth="yes"/>
      <point x="338" y="146"/>
      <point x="269" y="128"/>
      <point x="242" y="128" type="curve" smooth="yes"/>
      <point x="210" y="128"/>
      <point x="192" y="144"/>
      <point x="192" y="172" type="curve" smooth="yes"/>
      <point x="192" y="204"/>
      <point x="212" y="242"/>
      <point x="250" y="285" type="curve"/>
      <point x="271" y="284"/>
      <point x="295" y="284"/>
      <point x="314" y="284" type="curve" smooth="yes"/>
      <point x="478" y="284"/>
      <point x="636" y="300"/>
      <point x="636" y="436" type="curve" smooth="yes"/>
      <point x="636" y="501"/>
      <point x="585" y="545"/>
      <point x="500" y="545" type="curve" smooth="yes"/>
      <point x="383" y="545"/>
      <point x="286" y="496"/>
      <point x="191" y="397" type="curve" smooth="yes"/>
      <point x="96" y="299"/>
      <point x="49" y="208"/>
      <point x="49" y="124" type="curve" smooth="yes"/>
      <point x="49" y="41"/>
      <point x="98" y="0"/>
      <point x="195" y="0" type="curve" smooth="yes"/>
      <point x="240" y="0"/>
      <point x="310" y="16"/>
      <point x="406" y="49" type="curve" smooth="yes"/>
      <point x="484" y="76"/>
      <point x="544" y="88"/>
      <point x="579" y="88" type="curve" smooth="yes"/>
      <point x="651" y="88"/>
      <point x="688" y="11"/>
    </contour>
    <contour>
      <point x="343" y="372" type="curve"/>
      <point x="408" y="423"/>
      <point x="457" y="450"/>
      <point x="490" y="450" type="curve" smooth="yes"/>
      <point x="507" y="450"/>
      <point x="516" y="443"/>
      <point x="516" y="429" type="curve" smooth="yes"/>
      <point x="516" y="398"/>
      <point x="458" y="379"/>
    </contour>
    <contour>
      <point x="385" y="579" type="line"/>
      <point x="469" y="624"/>
      <point x="511" y="670"/>
      <point x="511" y="718" type="curve" smooth="yes"/>
      <point x="511" y="750"/>
      <point x="495" y="778"/>
      <point x="473" y="798" type="curve" smooth="yes"/>
      <point x="430" y="837" type="line" smooth="yes"/>
      <point x="418" y="848"/>
      <point x="413" y="853"/>
      <point x="413" y="868" type="curve" smooth="yes"/>
      <point x="413" y="884"/>
      <point x="423" y="893"/>
      <point x="444" y="893" type="curve" smooth="yes"/>
      <point x="456" y="893"/>
      <point x="469" y="891"/>
      <point x="486" y="887" type="curve"/>
      <point x="486" y="959" type="line"/>
      <point x="455" y="970"/>
      <point x="422" y="975"/>
      <point x="393" y="975" type="curve" smooth="yes"/>
      <point x="329" y="975"/>
      <point x="271" y="942"/>
      <point x="271" y="877" type="curve" smooth="yes"/>
      <point x="271" y="855"/>
      <point x="281" y="837"/>
      <point x="301" y="817" type="curve" smooth="yes"/>
      <point x="320" y="798"/>
      <point x="343" y="777"/>
      <point x="369" y="755" type="curve" smooth="yes"/>
      <point x="384" y="743"/>
      <point x="392" y="729"/>
      <point x="392" y="713" type="curve" smooth="yes"/>
      <point x="392" y="693"/>
      <point x="374" y="667"/>
      <point x="338" y="634" type="curve"/>
    </contour>
  </outline>
</glyph>
<glyph name="okara" format="2">
  <advance width="1162"/>
  <unicode hex="A98E"/>
  <note>
okara
</note>
  <outline>
    <contour>
      <point x="419" y="-825" type="curve" smooth="yes"/>
      <point x="502" y="-825"/>
      <point x="573" y="-788"/>
      <point x="632" y="-715" type="curve" smooth="yes"/>
      <point x="771" y="-542" type="line" smooth="yes"/>
      <point x="814" y="-489"/>
      <point x="856" y="-458"/>
      <point x="898" y="-458" type="curve" smooth="yes"/>
      <point x="943" y="-458"/>
      <point x="975" y="-479"/>
      <point x="1000" y="-524" type="curve" smooth="yes"/>
      <point x="1025" y="-569"/>
      <point x="1065" y="-666"/>
      <point x="1123" y="-816" type="curve"/>
      <point x="1199" y="-791" type="line"/>
      <point x="1155" y="-587"/>
      <point x="1113" y="-455"/>
      <point x="1073" y="-392" type="curve" smooth="yes"/>
      <point x="1036" y="-334"/>
      <point x="985" y="-304"/>
      <point x="918" y="-304" type="curve" smooth="yes"/>
      <point x="835" y="-304"/>
      <point x="770" y="-342"/>
      <point x="692" y="-436" type="curve" smooth="yes"/>
      <point x="534" y="-626" type="line" smooth="yes"/>
      <point x="507" y="-658"/>
      <point x="481" y="-676"/>
      <point x="452" y="-676" type="curve" smooth="yes"/>
      <point x="423" y="-676"/>
      <point x="409" y="-656"/>
      <point x="409" y="-613" type="curve" smooth="yes"/>
      <point x="409" y="-570"/>
      <point x="440" y="-516"/>
      <point x="494" y="-458" type="curve" smooth="yes"/>
      <point x="548" y="-401"/>
      <point x="664" y="-323"/>
      <point x="841" y="-222" type="curve" smooth="yes"/>
      <point x="1018" y="-121"/>
      <point x="1113" y="-18"/>
      <point x="1113" y="79" type="curve" smooth="yes"/>
      <point x="1113" y="393" type="line" smooth="yes"/>
      <point x="1113" y="495"/>
      <point x="1043" y="546"/>
      <point x="905" y="546" type="curve" smooth="yes"/>
      <point x="601" y="546" type="line"/>
      <point x="601" y="425" type="line"/>
      <point x="705" y="419"/>
      <point x="757" y="354"/>
      <point x="757" y="228" type="curve"/>
      <point x="757" y="227" type="line" smooth="yes"/>
      <point x="757" y="156"/>
      <point x="736" y="122"/>
      <point x="693" y="122" type="curve" smooth="yes"/>
      <point x="543" y="122" type="line" smooth="yes"/>
      <point x="504" y="122"/>
      <point x="484" y="145"/>
      <point x="484" y="190" type="curve" smooth="yes"/>
      <point x="484" y="349" type="line" smooth="yes"/>
      <point x="484" y="480"/>
      <point x="417" y="546"/>
      <point x="282" y="546" type="curve" smooth="yes"/>
      <point x="146" y="546"/>
      <point x="78" y="479"/>
      <point x="78" y="344" type="curve" smooth="yes"/>
      <point x="78" y="173" type="line" smooth="yes"/>
      <point x="78" y="60"/>
      <point x="154" y="5"/>
      <point x="280" y="0" type="curve"/>
      <point x="299" y="93" type="line"/>
      <point x="239" y="101"/>
      <point x="209" y="129"/>
      <point x="209" y="178" type="curve" smooth="yes"/>
      <point x="209" y="347" type="line" smooth="yes"/>
      <point x="209" y="396"/>
      <point x="234" y="421"/>
      <point x="282" y="421" type="curve" smooth="yes"/>
      <point x="330" y="421"/>
      <point x="354" y="397"/>
      <point x="354" y="350" type="curve" smooth="yes"/>
      <point x="354" y="192" type="line" smooth="yes"/>
      <point x="354" y="65"/>
      <point x="417" y="0"/>
      <point x="543" y="0" type="curve" smooth="yes"/>
      <point x="688" y="0" type="line" smooth="yes"/>
      <point x="818" y="0"/>
      <point x="883" y="73"/>
      <point x="883" y="217" type="curve"/>
      <point x="883" y="217" type="line" smooth="yes"/>
      <point x="883" y="327"/>
      <point x="849" y="396"/>
      <point x="781" y="421" type="curve"/>
      <point x="895" y="421" type="line" smooth="yes"/>
      <point x="953" y="421"/>
      <point x="982" y="395"/>
      <point x="982" y="342" type="curve" smooth="yes"/>
      <point x="982" y="100" type="line" smooth="yes"/>
      <point x="982" y="24"/>
      <point x="898" y="-56"/>
      <point x="731" y="-141" type="curve" smooth="yes"/>
      <point x="563" y="-226"/>
      <point x="443" y="-309"/>
      <point x="369" y="-390" type="curve" smooth="yes"/>
      <point x="295" y="-472"/>
      <point x="259" y="-559"/>
      <point x="259" y="-651" type="curve" smooth="yes"/>
      <point x="259" y="-755"/>
      <point x="322" y="-825"/>
    </contour>
  </outline>
</glyph>
<glyph name="ka" format="2">
  <advance width="1455"/>
  <unicode hex="A98F"/>
  <note>
ka
</note>
  <outline>
    <contour>
      <point x="280" y="0" type="curve"/>
      <point x="299" y="93" type="line"/>
      <point x="239" y="101"/>
      <point x="209" y="129"/>
      <point x="209" y="178" type="curve" smooth="yes"/>
      <point x="209" y="347" type="line" smooth="yes"/>
      <point x="209" y="396"/>
      <point x="234" y="421"/>
      <point x="282" y="421" type="curve" smooth="yes"/>
      <point x="330" y="421"/>
      <point x="354" y="397"/>
      <point x="354" y="350" type="curve" smooth="yes"/>
      <point x="354" y="0" type="line"/>
      <point x="484" y="0" type="line"/>
      <point x="484" y="196" type="line"/>
      <point x="573" y="196" type="line"/>
      <point x="573" y="170" type="line" smooth="yes"/>
      <point x="573" y="57"/>
      <point x="633" y="0"/>
      <point x="752" y="0" type="curve" smooth="yes"/>
      <point x="839" y="0"/>
      <point x="909" y="61"/>
      <point x="909" y="137" type="curve" smooth="yes"/>
      <point x="909" y="252"/>
      <point x="836" y="299"/>
      <point x="705" y="301" type="curve"/>
      <point x="705" y="301" type="line" smooth="yes"/>
      <point x="707" y="381"/>
      <point x="756" y="421"/>
      <point x="855" y="421" type="curve" smooth="yes"/>
      <point x="955" y="421"/>
      <point x="1005" y="378"/>
      <point x="1005" y="292" type="curve" smooth="yes"/>
      <point x="1005" y="0" type="line"/>
      <point x="1136" y="0" type="line"/>
      <point x="1136" y="352" type="line" smooth="yes"/>
      <point x="1136" y="398"/>
      <point x="1160" y="421"/>
      <point x="1206" y="421" type="curve" smooth="yes"/>
      <point x="1252" y="421"/>
      <point x="1275" y="397"/>
      <point x="1275" y="350" type="curve" smooth="yes"/>
      <point x="1275" y="0" type="line"/>
      <point x="1406" y="0" type="line"/>
      <point x="1406" y="349" type="line" smooth="yes"/>
      <point x="1406" y="480"/>
      <point x="1349" y="546"/>
      <point x="1233" y="546" type="curve" smooth="yes"/>
      <point x="1167" y="546"/>
      <point x="1114" y="515"/>
      <point x="1075" y="453" type="curve"/>
      <point x="1028" y="515"/>
      <point x="955" y="546"/>
      <point x="855" y="546" type="curve" smooth="yes"/>
      <point x="670" y="546"/>
      <point x="577" y="464"/>
      <point x="574" y="301" type="curve" smooth="yes"/>
      <point x="574" y="301" type="line"/>
      <point x="484" y="301" type="line"/>
      <point x="484" y="349" type="line" smooth="yes"/>
      <point x="484" y="480"/>
      <point x="417" y="546"/>
      <point x="282" y="546" type="curve" smooth="yes"/>
      <point x="146" y="546"/>
      <point x="78" y="478"/>
      <point x="78" y="343" type="curve" smooth="yes"/>
      <point x="78" y="173" type="line" smooth="yes"/>
      <point x="78" y="60"/>
      <point x="154" y="5"/>
    </contour>
    <contour>
      <point x="750" y="98" type="curve" smooth="yes"/>
      <point x="720" y="98"/>
      <point x="704" y="116"/>
      <point x="704" y="147" type="curve" smooth="yes"/>
      <point x="704" y="196" type="line"/>
      <point x="768" y="196"/>
      <point x="800" y="178"/>
      <point x="800" y="143" type="curve" smooth="yes"/>
      <point x="800" y="114"/>
      <point x="787" y="98"/>
    </contour>
  </outline>
</glyph>
<glyph name="qa" format="2">
  <advance width="1455"/>
  <unicode hex="A990"/>
  <note>
qa
</note>
  <outline>
    <contour>
      <point x="930" y="-313" type="curve"/>
      <point x="1042" y="-313" type="line"/>
      <point x="1038" y="-157"/>
      <point x="972" y="-79"/>
      <point x="845" y="-79" type="curve" smooth="yes"/>
      <point x="737" y="-79" type="line"/>
      <point x="771" y="1" type="line"/>
      <point x="846" y="8"/>
      <point x="909" y="63"/>
      <point x="909" y="144" type="curve" smooth="yes"/>
      <point x="909" y="253"/>
      <point x="830" y="299"/>
      <point x="705" y="301" type="curve"/>
      <point x="705" y="301" type="line" smooth="yes"/>
      <point x="707" y="381"/>
      <point x="756" y="421"/>
      <point x="855" y="421" type="curve" smooth="yes"/>
      <point x="955" y="421"/>
      <point x="1005" y="378"/>
      <point x="1005" y="292" type="curve" smooth="yes"/>
      <point x="1005" y="0" type="line"/>
      <point x="1136" y="0" type="line"/>
      <point x="1136" y="352" type="line" smooth="yes"/>
      <point x="1136" y="398"/>
      <point x="1160" y="421"/>
      <point x="1206" y="421" type="curve" smooth="yes"/>
      <point x="1252" y="421"/>
      <point x="1275" y="397"/>
      <point x="1275" y="350" type="curve" smooth="yes"/>
      <point x="1275" y="0" type="line"/>
      <point x="1406" y="0" type="line"/>
      <point x="1406" y="349" type="line" smooth="yes"/>
      <point x="1406" y="480"/>
      <point x="1349" y="546"/>
      <point x="1233" y="546" type="curve" smooth="yes"/>
      <point x="1167" y="546"/>
      <point x="1114" y="515"/>
      <point x="1075" y="453" type="curve"/>
      <point x="1028" y="515"/>
      <point x="955" y="546"/>
      <point x="855" y="546" type="curve" smooth="yes"/>
      <point x="670" y="546"/>
      <point x="577" y="464"/>
      <point x="574" y="301" type="curve" smooth="yes"/>
      <point x="574" y="301" type="line"/>
      <point x="484" y="301" type="line"/>
      <point x="484" y="349" type="line" smooth="yes"/>
      <point x="484" y="480"/>
      <point x="417" y="546"/>
      <point x="282" y="546" type="curve" smooth="yes"/>
      <point x="146" y="546"/>
      <point x="78" y="479"/>
      <point x="78" y="344" type="curve" smooth="yes"/>
      <point x="78" y="173" type="line" smooth="yes"/>
      <point x="78" y="60"/>
      <point x="154" y="5"/>
      <point x="280" y="0" type="curve"/>
      <point x="299" y="93" type="line"/>
      <point x="239" y="101"/>
      <point x="209" y="129"/>
      <point x="209" y="178" type="curve" smooth="yes"/>
      <point x="209" y="347" type="line" smooth="yes"/>
      <point x="209" y="396"/>
      <point x="234" y="421"/>
      <point x="282" y="421" type="curve" smooth="yes"/>
      <point x="330" y="421"/>
      <point x="354" y="397"/>
      <point x="354" y="350" type="curve" smooth="yes"/>
      <point x="354" y="0" type="line"/>
      <point x="484" y="0" type="line"/>
      <point x="484" y="196" type="line"/>
      <point x="573" y="196" type="line"/>
      <point x="573" y="170" type="line" smooth="yes"/>
      <point x="573" y="80"/>
      <point x="610" y="27"/>
      <point x="682" y="8" type="curve"/>
      <point x="599" y="-165" type="line"/>
      <point x="616" y="-195" type="line"/>
      <point x="835" y="-195" type="line" smooth="yes"/>
      <point x="898" y="-195"/>
      <point x="930" y="-234"/>
    </contour>
    <contour>
      <point x="753" y="98" type="curve" smooth="yes"/>
      <point x="720" y="98"/>
      <point x="704" y="114"/>
      <point x="704" y="146" type="curve" smooth="yes"/>
      <point x="704" y="196" type="line"/>
      <point x="768" y="196"/>
      <point x="799" y="178"/>
      <point x="799" y="142" type="curve" smooth="yes"/>
      <point x="799" y="112"/>
      <point x="785" y="98"/>
    </contour>
  </outline>
</glyph>
<glyph name="kha" format="2">
  <advance width="1514"/>
  <unicode hex="A991"/>
  <note>
kha
</note>
  <outline>
    <contour>
      <point x="1167" y="-2" type="curve" smooth="yes"/>
      <point x="1252" y="-2"/>
      <point x="1302" y="48"/>
      <point x="1333" y="152" type="curve" smooth="yes"/>
      <point x="1380" y="308" type="line" smooth="yes"/>
      <point x="1404" y="387"/>
      <point x="1462" y="435"/>
      <point x="1541" y="446" type="curve"/>
      <point x="1517" y="543" type="line"/>
      <point x="1377" y="535"/>
      <point x="1302" y="475"/>
      <point x="1258" y="335" type="curve" smooth="yes"/>
      <point x="1204" y="162" type="line" smooth="yes"/>
      <point x="1196" y="137"/>
      <point x="1185" y="123"/>
      <point x="1166" y="123" type="curve" smooth="yes"/>
      <point x="1146" y="123"/>
      <point x="1136" y="134"/>
      <point x="1136" y="158" type="curve" smooth="yes"/>
      <point x="1136" y="286" type="line" smooth="yes"/>
      <point x="1136" y="459"/>
      <point x="1042" y="546"/>
      <point x="855" y="546" type="curve" smooth="yes"/>
      <point x="670" y="546"/>
      <point x="577" y="464"/>
      <point x="574" y="301" type="curve" smooth="yes"/>
      <point x="574" y="301" type="line"/>
      <point x="484" y="301" type="line"/>
      <point x="484" y="349" type="line" smooth="yes"/>
      <point x="484" y="480"/>
      <point x="417" y="546"/>
      <point x="282" y="546" type="curve" smooth="yes"/>
      <point x="146" y="546"/>
      <point x="78" y="479"/>
      <point x="78" y="344" type="curve" smooth="yes"/>
      <point x="78" y="173" type="line" smooth="yes"/>
      <point x="78" y="60"/>
      <point x="154" y="5"/>
      <point x="280" y="0" type="curve"/>
      <point x="299" y="93" type="line"/>
      <point x="239" y="101"/>
      <point x="209" y="129"/>
      <point x="209" y="178" type="curve" smooth="yes"/>
      <point x="209" y="347" type="line" smooth="yes"/>
      <point x="209" y="396"/>
      <point x="234" y="421"/>
      <point x="282" y="421" type="curve" smooth="yes"/>
      <point x="330" y="421"/>
      <point x="354" y="397"/>
      <point x="354" y="350" type="curve" smooth="yes"/>
      <point x="354" y="0" type="line"/>
      <point x="484" y="0" type="line"/>
      <point x="484" y="196" type="line"/>
      <point x="573" y="196" type="line"/>
      <point x="573" y="170" type="line" smooth="yes"/>
      <point x="573" y="57"/>
      <point x="633" y="0"/>
      <point x="752" y="0" type="curve" smooth="yes"/>
      <point x="839" y="0"/>
      <point x="909" y="58"/>
      <point x="909" y="144" type="curve" smooth="yes"/>
      <point x="909" y="256"/>
      <point x="824" y="299"/>
      <point x="705" y="301" type="curve"/>
      <point x="705" y="301" type="line" smooth="yes"/>
      <point x="707" y="381"/>
      <point x="756" y="421"/>
      <point x="855" y="421" type="curve" smooth="yes"/>
      <point x="955" y="421"/>
      <point x="1005" y="376"/>
      <point x="1005" y="287" type="curve" smooth="yes"/>
      <point x="1005" y="170" type="line" smooth="yes"/>
      <point x="1005" y="57"/>
      <point x="1060" y="-2"/>
    </contour>
    <contour>
      <point x="750" y="98" type="curve" smooth="yes"/>
      <point x="722" y="98"/>
      <point x="704" y="114"/>
      <point x="704" y="146" type="curve" smooth="yes"/>
      <point x="704" y="196" type="line"/>
      <point x="768" y="196"/>
      <point x="800" y="178"/>
      <point x="800" y="142" type="curve" smooth="yes"/>
      <point x="800" y="111"/>
      <point x="785" y="98"/>
    </contour>
  </outline>
</glyph>
<glyph name="ga" format="2">
  <advance width="1123"/>
  <unicode hex="A992"/>
  <note>
ga
</note>
  <outline>
    <contour>
      <point x="349" y="0" type="line"/>
      <point x="479" y="0" type="line"/>
      <point x="479" y="342" type="line" smooth="yes"/>
      <point x="479" y="398"/>
      <point x="508" y="426"/>
      <point x="562" y="426" type="curve" smooth="yes"/>
      <point x="616" y="426"/>
      <point x="644" y="399"/>
      <point x="644" y="345" type="curve" smooth="yes"/>
      <point x="644" y="0" type="line"/>
      <point x="774" y="0" type="line"/>
      <point x="774" y="342" type="line" smooth="yes"/>
      <point x="774" y="398"/>
      <point x="803" y="426"/>
      <point x="859" y="426" type="curve" smooth="yes"/>
      <point x="916" y="426"/>
      <point x="943" y="399"/>
      <point x="943" y="345" type="curve" smooth="yes"/>
      <point x="943" y="0" type="line"/>
      <point x="1074" y="0" type="line"/>
      <point x="1074" y="354" type="line" smooth="yes"/>
      <point x="1074" y="482"/>
      <point x="1007" y="546"/>
      <point x="872" y="546" type="curve" smooth="yes"/>
      <point x="796" y="546"/>
      <point x="743" y="518"/>
      <point x="712" y="463" type="curve"/>
      <point x="681" y="518"/>
      <point x="631" y="546"/>
      <point x="562" y="546" type="curve" smooth="yes"/>
      <point x="496" y="546"/>
      <point x="447" y="518"/>
      <point x="416" y="463" type="curve"/>
      <point x="384" y="518"/>
      <point x="330" y="546"/>
      <point x="252" y="546" type="curve" smooth="yes"/>
      <point x="136" y="546"/>
      <point x="59" y="470"/>
      <point x="59" y="346" type="curve" smooth="yes"/>
      <point x="59" y="228"/>
      <point x="139" y="165"/>
      <point x="255" y="146" type="curve"/>
      <point x="273" y="244" type="line"/>
      <point x="214" y="257"/>
      <point x="185" y="290"/>
      <point x="185" y="342" type="curve" smooth="yes"/>
      <point x="185" y="398"/>
      <point x="213" y="426"/>
      <point x="267" y="426" type="curve" smooth="yes"/>
      <point x="321" y="426"/>
      <point x="349" y="399"/>
      <point x="349" y="345" type="curve" smooth="yes"/>
    </contour>
  </outline>
</glyph>
<glyph name="gha" format="2">
  <advance width="1537"/>
  <unicode hex="A993"/>
  <note>
gha
</note>
  <outline>
    <contour>
      <point x="280" y="0" type="curve"/>
      <point x="299" y="93" type="line"/>
      <point x="239" y="101"/>
      <point x="209" y="129"/>
      <point x="209" y="178" type="curve" smooth="yes"/>
      <point x="209" y="347" type="line" smooth="yes"/>
      <point x="209" y="400"/>
      <point x="233" y="426"/>
      <point x="279" y="426" type="curve" smooth="yes"/>
      <point x="326" y="426"/>
      <point x="349" y="401"/>
      <point x="349" y="350" type="curve" smooth="yes"/>
      <point x="349" y="0" type="line"/>
      <point x="479" y="0" type="line"/>
      <point x="479" y="347" type="line" smooth="yes"/>
      <point x="479" y="400"/>
      <point x="503" y="426"/>
      <point x="547" y="426" type="curve" smooth="yes"/>
      <point x="592" y="426"/>
      <point x="614" y="401"/>
      <point x="614" y="350" type="curve" smooth="yes"/>
      <point x="614" y="173" type="line" smooth="yes"/>
      <point x="614" y="59"/>
      <point x="674" y="0"/>
      <point x="786" y="0" type="curve" smooth="yes"/>
      <point x="854" y="0"/>
      <point x="905" y="24"/>
      <point x="938" y="72" type="curve"/>
      <point x="971" y="24"/>
      <point x="1022" y="0"/>
      <point x="1090" y="0" type="curve" smooth="yes"/>
      <point x="1202" y="0"/>
      <point x="1262" y="60"/>
      <point x="1262" y="174" type="curve" smooth="yes"/>
      <point x="1262" y="215" type="line" smooth="yes"/>
      <point x="1262" y="325"/>
      <point x="1224" y="396"/>
      <point x="1156" y="421" type="curve"/>
      <point x="1270" y="421" type="line" smooth="yes"/>
      <point x="1328" y="421"/>
      <point x="1357" y="395"/>
      <point x="1357" y="342" type="curve" smooth="yes"/>
      <point x="1357" y="0" type="line"/>
      <point x="1488" y="0" type="line"/>
      <point x="1488" y="392" type="line" smooth="yes"/>
      <point x="1488" y="494"/>
      <point x="1418" y="546"/>
      <point x="1280" y="546" type="curve" smooth="yes"/>
      <point x="976" y="546" type="line"/>
      <point x="976" y="425" type="line"/>
      <point x="1072" y="421"/>
      <point x="1131" y="356"/>
      <point x="1131" y="249" type="curve" smooth="yes"/>
      <point x="1131" y="183" type="line" smooth="yes"/>
      <point x="1131" y="143"/>
      <point x="1107" y="121"/>
      <point x="1066" y="121" type="curve" smooth="yes"/>
      <point x="1024" y="121"/>
      <point x="1001" y="142"/>
      <point x="1001" y="182" type="curve" smooth="yes"/>
      <point x="1001" y="272" type="line"/>
      <point x="875" y="272" type="line"/>
      <point x="875" y="182" type="line" smooth="yes"/>
      <point x="875" y="142"/>
      <point x="852" y="121"/>
      <point x="810" y="121" type="curve" smooth="yes"/>
      <point x="769" y="121"/>
      <point x="745" y="142"/>
      <point x="745" y="182" type="curve" smooth="yes"/>
      <point x="745" y="349" type="line" smooth="yes"/>
      <point x="745" y="480"/>
      <point x="686" y="546"/>
      <point x="567" y="546" type="curve" smooth="yes"/>
      <point x="499" y="546"/>
      <point x="448" y="521"/>
      <point x="415" y="469" type="curve"/>
      <point x="382" y="521"/>
      <point x="331" y="546"/>
      <point x="262" y="546" type="curve" smooth="yes"/>
      <point x="140" y="546"/>
      <point x="78" y="479"/>
      <point x="78" y="344" type="curve" smooth="yes"/>
      <point x="78" y="173" type="line" smooth="yes"/>
      <point x="78" y="60"/>
      <point x="154" y="5"/>
    </contour>
  </outline>
</glyph>
<glyph name="nga" format="2">
  <advance width="1155"/>
  <unicode hex="A994"/>
  <note>
nga
</note>
  <outline>
    <contour>
      <point x="976" y="0" type="line"/>
      <point x="1106" y="0" type="line"/>
      <point x="1106" y="361" type="line" smooth="yes"/>
      <point x="1106" y="483"/>
      <point x="1048" y="546"/>
      <point x="933" y="546" type="curve" smooth="yes"/>
      <point x="867" y="546"/>
      <point x="825" y="522"/>
      <point x="807" y="476" type="curve"/>
      <point x="784" y="524"/>
      <point x="736" y="548"/>
      <point x="663" y="548" type="curve" smooth="yes"/>
      <point x="578" y="548"/>
      <point x="518" y="490"/>
      <point x="518" y="410" type="curve" smooth="yes"/>
      <point x="518" y="322"/>
      <point x="570" y="271"/>
      <point x="676" y="257" type="curve"/>
      <point x="704" y="326" type="line"/>
      <point x="659" y="338"/>
      <point x="637" y="357"/>
      <point x="637" y="384" type="curve" smooth="yes"/>
      <point x="637" y="410"/>
      <point x="655" y="424"/>
      <point x="685" y="424" type="curve" smooth="yes"/>
      <point x="726" y="424"/>
      <point x="752" y="393"/>
      <point x="759" y="335" type="curve"/>
      <point x="851" y="335" type="line"/>
      <point x="858" y="393"/>
      <point x="879" y="421"/>
      <point x="914" y="421" type="curve" smooth="yes"/>
      <point x="955" y="421"/>
      <point x="976" y="399"/>
      <point x="976" y="355" type="curve" smooth="yes"/>
    </contour>
    <contour>
      <point x="558" y="0" type="curve" smooth="yes"/>
      <point x="797" y="0" type="line"/>
      <point x="814" y="30" type="line"/>
      <point x="694" y="219" type="line"/>
      <point x="605" y="219" type="line"/>
      <point x="662" y="122" type="line"/>
      <point x="553" y="122" type="line" smooth="yes"/>
      <point x="507" y="122"/>
      <point x="484" y="145"/>
      <point x="484" y="190" type="curve" smooth="yes"/>
      <point x="484" y="349" type="line" smooth="yes"/>
      <point x="484" y="480"/>
      <point x="417" y="546"/>
      <point x="282" y="546" type="curve" smooth="yes"/>
      <point x="146" y="546"/>
      <point x="78" y="479"/>
      <point x="78" y="344" type="curve" smooth="yes"/>
      <point x="78" y="173" type="line" smooth="yes"/>
      <point x="78" y="60"/>
      <point x="154" y="5"/>
      <point x="280" y="0" type="curve"/>
      <point x="299" y="93" type="line"/>
      <point x="239" y="101"/>
      <point x="209" y="129"/>
      <point x="209" y="178" type="curve" smooth="yes"/>
      <point x="209" y="347" type="line" smooth="yes"/>
      <point x="209" y="396"/>
      <point x="234" y="421"/>
      <point x="282" y="421" type="curve" smooth="yes"/>
      <point x="330" y="421"/>
      <point x="354" y="397"/>
      <point x="354" y="350" type="curve" smooth="yes"/>
      <point x="354" y="187" type="line" smooth="yes"/>
      <point x="354" y="63"/>
      <point x="421" y="0"/>
    </contour>
  </outline>
</glyph>
<glyph name="ca" format="2">
  <advance width="1257"/>
  <unicode hex="A995"/>
  <note>
ca
</note>
  <outline>
    <contour>
      <point x="280" y="0" type="curve"/>
      <point x="299" y="93" type="line"/>
      <point x="242" y="101"/>
      <point x="214" y="129"/>
      <point x="214" y="178" type="curve" smooth="yes"/>
      <point x="214" y="277" type="line" smooth="yes"/>
      <point x="214" y="373"/>
      <point x="266" y="421"/>
      <point x="369" y="421" type="curve" smooth="yes"/>
      <point x="475" y="421"/>
      <point x="528" y="373"/>
      <point x="528" y="277" type="curve" smooth="yes"/>
      <point x="528" y="271" type="line"/>
      <point x="510" y="273"/>
      <point x="496" y="274"/>
      <point x="485" y="274" type="curve" smooth="yes"/>
      <point x="391" y="274"/>
      <point x="329" y="226"/>
      <point x="329" y="137" type="curve" smooth="yes"/>
      <point x="329" y="46"/>
      <point x="396" y="0"/>
      <point x="487" y="0" type="curve" smooth="yes"/>
      <point x="590" y="0"/>
      <point x="655" y="42"/>
      <point x="659" y="125" type="curve"/>
      <point x="721" y="66" type="line" smooth="yes"/>
      <point x="767" y="22"/>
      <point x="811" y="-1"/>
      <point x="854" y="-1" type="curve" smooth="yes"/>
      <point x="926" y="-1"/>
      <point x="963" y="42"/>
      <point x="963" y="123" type="curve" smooth="yes"/>
      <point x="963" y="220" type="line" smooth="yes"/>
      <point x="963" y="327"/>
      <point x="928" y="396"/>
      <point x="861" y="421" type="curve"/>
      <point x="990" y="421" type="line" smooth="yes"/>
      <point x="1047" y="421"/>
      <point x="1077" y="395"/>
      <point x="1077" y="342" type="curve" smooth="yes"/>
      <point x="1077" y="0" type="line"/>
      <point x="1208" y="0" type="line"/>
      <point x="1208" y="393" type="line"/>
      <point x="1208" y="495"/>
      <point x="1138" y="546"/>
      <point x="1000" y="546" type="curve" smooth="yes"/>
      <point x="681" y="546" type="line"/>
      <point x="681" y="425" type="line"/>
      <point x="785" y="419"/>
      <point x="837" y="354"/>
      <point x="837" y="228" type="curve" smooth="yes"/>
      <point x="837" y="161" type="line" smooth="yes"/>
      <point x="837" y="134"/>
      <point x="828" y="121"/>
      <point x="811" y="121" type="curve" smooth="yes"/>
      <point x="801" y="121"/>
      <point x="790" y="127"/>
      <point x="777" y="140" type="curve" smooth="yes"/>
      <point x="660" y="253" type="line"/>
      <point x="660" y="277" type="line" smooth="yes"/>
      <point x="660" y="456"/>
      <point x="563" y="546"/>
      <point x="369" y="546" type="curve" smooth="yes"/>
      <point x="175" y="546"/>
      <point x="78" y="456"/>
      <point x="78" y="276" type="curve" smooth="yes"/>
      <point x="78" y="173" type="line" smooth="yes"/>
      <point x="78" y="60"/>
      <point x="154" y="5"/>
    </contour>
    <contour>
      <point x="487" y="95" type="curve" smooth="yes"/>
      <point x="458" y="95"/>
      <point x="444" y="109"/>
      <point x="444" y="136" type="curve" smooth="yes"/>
      <point x="444" y="136" type="line" smooth="yes"/>
      <point x="444" y="169"/>
      <point x="460" y="186"/>
      <point x="491" y="186" type="curve" smooth="yes"/>
      <point x="500" y="186"/>
      <point x="512" y="185"/>
      <point x="529" y="182" type="curve"/>
      <point x="529" y="141" type="line" smooth="yes"/>
      <point x="529" y="110"/>
      <point x="515" y="95"/>
    </contour>
  </outline>
</glyph>
<glyph name="cha" format="2">
  <advance width="1865"/>
  <unicode hex="A996"/>
  <note>
cha
</note>
  <outline>
    <contour>
      <point x="271" y="0" type="curve" smooth="yes"/>
      <point x="399" y="0"/>
      <point x="465" y="69"/>
      <point x="465" y="207" type="curve" smooth="yes"/>
      <point x="465" y="342" type="line" smooth="yes"/>
      <point x="465" y="395"/>
      <point x="486" y="421"/>
      <point x="528" y="421" type="curve" smooth="yes"/>
      <point x="569" y="421"/>
      <point x="590" y="396"/>
      <point x="590" y="345" type="curve" smooth="yes"/>
      <point x="590" y="202" type="line" smooth="yes"/>
      <point x="590" y="67"/>
      <point x="654" y="0"/>
      <point x="783" y="0" type="curve" smooth="yes"/>
      <point x="911" y="0"/>
      <point x="977" y="70"/>
      <point x="977" y="208" type="curve" smooth="yes"/>
      <point x="977" y="342" type="line" smooth="yes"/>
      <point x="977" y="395"/>
      <point x="998" y="421"/>
      <point x="1040" y="421" type="curve" smooth="yes"/>
      <point x="1081" y="421"/>
      <point x="1102" y="396"/>
      <point x="1102" y="345" type="curve" smooth="yes"/>
      <point x="1102" y="202" type="line" smooth="yes"/>
      <point x="1102" y="67"/>
      <point x="1166" y="0"/>
      <point x="1294" y="0" type="curve" smooth="yes"/>
      <point x="1423" y="0"/>
      <point x="1488" y="69"/>
      <point x="1488" y="207" type="curve" smooth="yes"/>
      <point x="1488" y="308" type="line" smooth="yes"/>
      <point x="1488" y="380"/>
      <point x="1527" y="417"/>
      <point x="1599" y="417" type="curve" smooth="yes"/>
      <point x="1649" y="417"/>
      <point x="1683" y="399"/>
      <point x="1683" y="372" type="curve" smooth="yes"/>
      <point x="1683" y="344"/>
      <point x="1660" y="331"/>
      <point x="1614" y="331" type="curve" smooth="yes"/>
      <point x="1566" y="331" type="line"/>
      <point x="1566" y="200" type="line"/>
      <point x="1598" y="200" type="line" smooth="yes"/>
      <point x="1657" y="200"/>
      <point x="1689" y="185"/>
      <point x="1689" y="155" type="curve" smooth="yes"/>
      <point x="1689" y="136"/>
      <point x="1674" y="123"/>
      <point x="1642" y="123" type="curve" smooth="yes"/>
      <point x="1616" y="123"/>
      <point x="1585" y="133"/>
      <point x="1550" y="155" type="curve"/>
      <point x="1520" y="51" type="line"/>
      <point x="1564" y="17"/>
      <point x="1611" y="0"/>
      <point x="1661" y="0" type="curve" smooth="yes"/>
      <point x="1751" y="0"/>
      <point x="1825" y="49"/>
      <point x="1825" y="141" type="curve" smooth="yes"/>
      <point x="1825" y="200"/>
      <point x="1787" y="238"/>
      <point x="1710" y="257" type="curve"/>
      <point x="1710" y="263" type="line"/>
      <point x="1775" y="274"/>
      <point x="1824" y="312"/>
      <point x="1824" y="387" type="curve" smooth="yes"/>
      <point x="1824" y="497"/>
      <point x="1723" y="546"/>
      <point x="1600" y="546" type="curve" smooth="yes"/>
      <point x="1439" y="546"/>
      <point x="1357" y="466"/>
      <point x="1357" y="305" type="curve" smooth="yes"/>
      <point x="1357" y="204" type="line" smooth="yes"/>
      <point x="1357" y="151"/>
      <point x="1336" y="125"/>
      <point x="1294" y="125" type="curve" smooth="yes"/>
      <point x="1253" y="125"/>
      <point x="1232" y="150"/>
      <point x="1232" y="201" type="curve" smooth="yes"/>
      <point x="1232" y="344" type="line" smooth="yes"/>
      <point x="1232" y="479"/>
      <point x="1168" y="546"/>
      <point x="1040" y="546" type="curve" smooth="yes"/>
      <point x="911" y="546"/>
      <point x="846" y="477"/>
      <point x="846" y="339" type="curve" smooth="yes"/>
      <point x="846" y="204" type="line" smooth="yes"/>
      <point x="846" y="151"/>
      <point x="824" y="125"/>
      <point x="783" y="125" type="curve" smooth="yes"/>
      <point x="741" y="125"/>
      <point x="721" y="150"/>
      <point x="721" y="201" type="curve" smooth="yes"/>
      <point x="721" y="344" type="line" smooth="yes"/>
      <point x="721" y="479"/>
      <point x="656" y="546"/>
      <point x="528" y="546" type="curve" smooth="yes"/>
      <point x="399" y="546"/>
      <point x="334" y="477"/>
      <point x="334" y="339" type="curve" smooth="yes"/>
      <point x="334" y="204" type="line" smooth="yes"/>
      <point x="334" y="151"/>
      <point x="313" y="125"/>
      <point x="271" y="125" type="curve" smooth="yes"/>
      <point x="229" y="125"/>
      <point x="209" y="150"/>
      <point x="209" y="201" type="curve" smooth="yes"/>
      <point x="209" y="346" type="line" smooth="yes"/>
      <point x="209" y="410"/>
      <point x="243" y="442"/>
      <point x="312" y="442" type="curve"/>
      <point x="312" y="549" type="line"/>
      <point x="156" y="549"/>
      <point x="78" y="479"/>
      <point x="78" y="340" type="curve" smooth="yes"/>
      <point x="78" y="202" type="line" smooth="yes"/>
      <point x="78" y="67"/>
      <point x="143" y="0"/>
    </contour>
  </outline>
</glyph>
<glyph name="ja" format="2">
  <advance width="1116"/>
  <unicode hex="A997"/>
  <note>
ja
</note>
  <outline>
    <contour>
      <point x="280" y="0" type="curve"/>
      <point x="299" y="93" type="line"/>
      <point x="239" y="101"/>
      <point x="209" y="129"/>
      <point x="209" y="178" type="curve" smooth="yes"/>
      <point x="209" y="347" type="line" smooth="yes"/>
      <point x="209" y="396"/>
      <point x="234" y="421"/>
      <point x="282" y="421" type="curve" smooth="yes"/>
      <point x="330" y="421"/>
      <point x="354" y="397"/>
      <point x="354" y="350" type="curve" smooth="yes"/>
      <point x="354" y="187" type="line" smooth="yes"/>
      <point x="354" y="63"/>
      <point x="422" y="0"/>
      <point x="559" y="0" type="curve" smooth="yes"/>
      <point x="832" y="0" type="line"/>
      <point x="832" y="83" type="line"/>
      <point x="761" y="109"/>
      <point x="713" y="146"/>
      <point x="688" y="193" type="curve"/>
      <point x="792" y="193" type="line" smooth="yes"/>
      <point x="880" y="193"/>
      <point x="932" y="148"/>
      <point x="932" y="49" type="curve" smooth="yes"/>
      <point x="932" y="0" type="line"/>
      <point x="1063" y="0" type="line"/>
      <point x="1063" y="93" type="line" smooth="yes"/>
      <point x="1063" y="208"/>
      <point x="973" y="269"/>
      <point x="814" y="269" type="curve" smooth="yes"/>
      <point x="750" y="269" type="line"/>
      <point x="1067" y="400" type="line"/>
      <point x="1067" y="536" type="line"/>
      <point x="815" y="536" type="line" smooth="yes"/>
      <point x="646" y="536"/>
      <point x="560" y="461"/>
      <point x="560" y="312" type="curve" smooth="yes"/>
      <point x="560" y="312" type="line" smooth="yes"/>
      <point x="560" y="224"/>
      <point x="586" y="160"/>
      <point x="641" y="122" type="curve"/>
      <point x="553" y="122" type="line" smooth="yes"/>
      <point x="507" y="122"/>
      <point x="484" y="145"/>
      <point x="484" y="190" type="curve" smooth="yes"/>
      <point x="484" y="349" type="line" smooth="yes"/>
      <point x="484" y="480"/>
      <point x="417" y="546"/>
      <point x="282" y="546" type="curve" smooth="yes"/>
      <point x="146" y="546"/>
      <point x="78" y="479"/>
      <point x="78" y="344" type="curve" smooth="yes"/>
      <point x="78" y="173" type="line" smooth="yes"/>
      <point x="78" y="60"/>
      <point x="154" y="5"/>
    </contour>
    <contour>
      <point x="670" y="309" type="line"/>
      <point x="670" y="309" type="line"/>
      <point x="670" y="386"/>
      <point x="714" y="424"/>
      <point x="802" y="424" type="curve" smooth="yes"/>
      <point x="931" y="424" type="line"/>
    </contour>
  </outline>
</glyph>
<glyph name="jnya" format="2">
  <advance width="1116"/>
  <unicode hex="A998"/>
  <note>
jnya
</note>
  <outline>
    <contour>
      <point x="730" y="-313" type="curve"/>
      <point x="842" y="-313" type="line"/>
      <point x="837" y="-157"/>
      <point x="771" y="-79"/>
      <point x="645" y="-79" type="curve" smooth="yes"/>
      <point x="537" y="-79" type="line"/>
      <point x="570" y="0" type="line"/>
      <point x="832" y="0" type="line"/>
      <point x="832" y="83" type="line"/>
      <point x="761" y="109"/>
      <point x="713" y="146"/>
      <point x="688" y="193" type="curve"/>
      <point x="793" y="193" type="line" smooth="yes"/>
      <point x="881" y="193"/>
      <point x="932" y="147"/>
      <point x="932" y="49" type="curve" smooth="yes"/>
      <point x="932" y="0" type="line"/>
      <point x="1063" y="0" type="line"/>
      <point x="1063" y="96" type="line" smooth="yes"/>
      <point x="1063" y="208"/>
      <point x="971" y="269"/>
      <point x="812" y="269" type="curve" smooth="yes"/>
      <point x="750" y="269" type="line"/>
      <point x="1067" y="400" type="line"/>
      <point x="1067" y="536" type="line"/>
      <point x="815" y="536" type="line" smooth="yes"/>
      <point x="646" y="536"/>
      <point x="560" y="461"/>
      <point x="560" y="312" type="curve" smooth="yes"/>
      <point x="560" y="312" type="line" smooth="yes"/>
      <point x="560" y="224"/>
      <point x="586" y="160"/>
      <point x="641" y="122" type="curve"/>
      <point x="553" y="122" type="line" smooth="yes"/>
      <point x="507" y="122"/>
      <point x="484" y="145"/>
      <point x="484" y="190" type="curve" smooth="yes"/>
      <point x="484" y="349" type="line" smooth="yes"/>
      <point x="484" y="480"/>
      <point x="417" y="546"/>
      <point x="282" y="546" type="curve" smooth="yes"/>
      <point x="146" y="546"/>
      <point x="78" y="479"/>
      <point x="78" y="344" type="curve" smooth="yes"/>
      <point x="78" y="173" type="line" smooth="yes"/>
      <point x="78" y="60"/>
      <point x="154" y="5"/>
      <point x="280" y="0" type="curve"/>
      <point x="299" y="93" type="line"/>
      <point x="239" y="101"/>
      <point x="209" y="129"/>
      <point x="209" y="178" type="curve" smooth="yes"/>
      <point x="209" y="347" type="line" smooth="yes"/>
      <point x="209" y="396"/>
      <point x="234" y="421"/>
      <point x="282" y="421" type="curve" smooth="yes"/>
      <point x="330" y="421"/>
      <point x="354" y="397"/>
      <point x="354" y="350" type="curve" smooth="yes"/>
      <point x="354" y="187" type="line" smooth="yes"/>
      <point x="354" y="89"/>
      <point x="396" y="30"/>
      <point x="480" y="9" type="curve"/>
      <point x="399" y="-165" type="line"/>
      <point x="416" y="-195" type="line"/>
      <point x="635" y="-195" type="line" smooth="yes"/>
      <point x="698" y="-195"/>
      <point x="729" y="-234"/>
    </contour>
    <contour>
      <point x="670" y="309" type="line"/>
      <point x="670" y="309" type="line"/>
      <point x="670" y="386"/>
      <point x="714" y="424"/>
      <point x="802" y="424" type="curve" smooth="yes"/>
      <point x="931" y="424" type="line"/>
    </contour>
  </outline>
</glyph>
<glyph name="jha" format="2">
  <advance width="1402"/>
  <unicode hex="A999"/>
  <note>
jha
</note>
  <outline>
    <contour>
      <point x="903" y="-829" type="curve" smooth="yes"/>
      <point x="1202" y="-829"/>
      <point x="1354" y="-712"/>
      <point x="1354" y="-486" type="curve" smooth="yes"/>
      <point x="1354" y="583" type="line" smooth="yes"/>
      <point x="1354" y="721"/>
      <point x="1292" y="790"/>
      <point x="1169" y="790" type="curve" smooth="yes"/>
      <point x="1079" y="790"/>
      <point x="1018" y="733"/>
      <point x="1018" y="646" type="curve" smooth="yes"/>
      <point x="1018" y="604"/>
      <point x="1034" y="569"/>
      <point x="1067" y="542" type="curve" smooth="yes"/>
      <point x="1099" y="515"/>
      <point x="1151" y="497"/>
      <point x="1223" y="489" type="curve"/>
      <point x="1223" y="-481" type="line" smooth="yes"/>
      <point x="1223" y="-622"/>
      <point x="1109" y="-695"/>
      <point x="900" y="-695" type="curve" smooth="yes"/>
      <point x="723" y="-695"/>
      <point x="614" y="-619"/>
      <point x="614" y="-494" type="curve" smooth="yes"/>
      <point x="614" y="-443"/>
      <point x="634" y="-398"/>
      <point x="673" y="-361" type="curve" smooth="yes"/>
      <point x="711" y="-324"/>
      <point x="760" y="-294"/>
      <point x="817" y="-272" type="curve" smooth="yes"/>
      <point x="1000" y="-201"/>
      <point x="1106" y="-106"/>
      <point x="1106" y="-5" type="curve" smooth="yes"/>
      <point x="1106" y="362" type="line" smooth="yes"/>
      <point x="1106" y="484"/>
      <point x="1048" y="546"/>
      <point x="933" y="546" type="curve" smooth="yes"/>
      <point x="867" y="546"/>
      <point x="825" y="522"/>
      <point x="807" y="476" type="curve"/>
      <point x="784" y="524"/>
      <point x="736" y="548"/>
      <point x="663" y="548" type="curve" smooth="yes"/>
      <point x="578" y="548"/>
      <point x="518" y="490"/>
      <point x="518" y="410" type="curve" smooth="yes"/>
      <point x="518" y="322"/>
      <point x="570" y="271"/>
      <point x="676" y="257" type="curve"/>
      <point x="704" y="326" type="line"/>
      <point x="659" y="338"/>
      <point x="637" y="357"/>
      <point x="637" y="384" type="curve" smooth="yes"/>
      <point x="637" y="411"/>
      <point x="655" y="424"/>
      <point x="685" y="424" type="curve" smooth="yes"/>
      <point x="728" y="424"/>
      <point x="752" y="393"/>
      <point x="759" y="335" type="curve"/>
      <point x="851" y="335" type="line"/>
      <point x="858" y="393"/>
      <point x="879" y="421"/>
      <point x="914" y="421" type="curve" smooth="yes"/>
      <point x="955" y="421"/>
      <point x="976" y="399"/>
      <point x="976" y="355" type="curve" smooth="yes"/>
      <point x="976" y="-7" type="line" smooth="yes"/>
      <point x="976" y="-52"/>
      <point x="893" y="-107"/>
      <point x="731" y="-174" type="curve" smooth="yes"/>
      <point x="555" y="-247"/>
      <point x="466" y="-358"/>
      <point x="466" y="-508" type="curve" smooth="yes"/>
      <point x="466" y="-720"/>
      <point x="612" y="-829"/>
    </contour>
    <contour>
      <point x="280" y="0" type="curve"/>
      <point x="299" y="93" type="line"/>
      <point x="239" y="101"/>
      <point x="209" y="129"/>
      <point x="209" y="178" type="curve" smooth="yes"/>
      <point x="209" y="347" type="line" smooth="yes"/>
      <point x="209" y="396"/>
      <point x="234" y="421"/>
      <point x="282" y="421" type="curve" smooth="yes"/>
      <point x="330" y="421"/>
      <point x="354" y="397"/>
      <point x="354" y="350" type="curve" smooth="yes"/>
      <point x="354" y="187" type="line" smooth="yes"/>
      <point x="354" y="63"/>
      <point x="421" y="0"/>
      <point x="558" y="0" type="curve" smooth="yes"/>
      <point x="797" y="0" type="line"/>
      <point x="814" y="30" type="line"/>
      <point x="694" y="219" type="line"/>
      <point x="605" y="219" type="line"/>
      <point x="662" y="122" type="line"/>
      <point x="553" y="122" type="line" smooth="yes"/>
      <point x="507" y="122"/>
      <point x="484" y="145"/>
      <point x="484" y="190" type="curve" smooth="yes"/>
      <point x="484" y="349" type="line" smooth="yes"/>
      <point x="484" y="480"/>
      <point x="417" y="546"/>
      <point x="282" y="546" type="curve" smooth="yes"/>
      <point x="146" y="546"/>
      <point x="78" y="479"/>
      <point x="78" y="344" type="curve" smooth="yes"/>
      <point x="78" y="173" type="line" smooth="yes"/>
      <point x="78" y="60"/>
      <point x="154" y="5"/>
    </contour>
    <contour>
      <point x="1228" y="608" type="line"/>
      <point x="1168" y="615"/>
      <point x="1138" y="630"/>
      <point x="1138" y="652" type="curve" smooth="yes"/>
      <point x="1138" y="668"/>
      <point x="1150" y="678"/>
      <point x="1171" y="678" type="curve" smooth="yes"/>
      <point x="1207" y="678"/>
      <point x="1228" y="657"/>
      <point x="1228" y="619" type="curve" smooth="yes"/>
    </contour>
  </outline>
</glyph>
<glyph name="tta" format="2">
  <advance width="1155"/>
  <unicode hex="A99B"/>
  <note>
tta
</note>
  <outline>
    <contour>
      <point x="658" y="-140" type="curve" smooth="yes"/>
      <point x="705" y="-140"/>
      <point x="758" y="-119"/>
      <point x="818" y="-77" type="curve"/>
      <point x="784" y="-3" type="line"/>
      <point x="739" y="-24"/>
      <point x="699" y="-36"/>
      <point x="665" y="-36" type="curve" smooth="yes"/>
      <point x="636" y="-36"/>
      <point x="621" y="-23"/>
      <point x="620" y="2" type="curve"/>
      <point x="662" y="3"/>
      <point x="700" y="15"/>
      <point x="735" y="37" type="curve" smooth="yes"/>
      <point x="770" y="59"/>
      <point x="787" y="93"/>
      <point x="787" y="141" type="curve" smooth="yes"/>
      <point x="787" y="195"/>
      <point x="738" y="234"/>
      <point x="673" y="234" type="curve" smooth="yes"/>
      <point x="592" y="234"/>
      <point x="541" y="188"/>
      <point x="522" y="96" type="curve"/>
      <point x="497" y="108"/>
      <point x="484" y="136"/>
      <point x="484" y="180" type="curve" smooth="yes"/>
      <point x="484" y="349" type="line" smooth="yes"/>
      <point x="484" y="480"/>
      <point x="417" y="546"/>
      <point x="282" y="546" type="curve" smooth="yes"/>
      <point x="146" y="546"/>
      <point x="78" y="479"/>
      <point x="78" y="344" type="curve" smooth="yes"/>
      <point x="78" y="173" type="line" smooth="yes"/>
      <point x="78" y="60"/>
      <point x="154" y="5"/>
      <point x="280" y="0" type="curve"/>
      <point x="299" y="93" type="line"/>
      <point x="239" y="101"/>
      <point x="209" y="129"/>
      <point x="209" y="178" type="curve" smooth="yes"/>
      <point x="209" y="347" type="line" smooth="yes"/>
      <point x="209" y="396"/>
      <point x="234" y="421"/>
      <point x="282" y="421" type="curve" smooth="yes"/>
      <point x="330" y="421"/>
      <point x="354" y="397"/>
      <point x="354" y="350" type="curve" smooth="yes"/>
      <point x="354" y="192" type="line" smooth="yes"/>
      <point x="354" y="82"/>
      <point x="405" y="18"/>
      <point x="507" y="0" type="curve"/>
      <point x="508" y="-93"/>
      <point x="559" y="-140"/>
    </contour>
    <contour>
      <point x="625" y="90" type="curve"/>
      <point x="630" y="133"/>
      <point x="645" y="149"/>
      <point x="669" y="149" type="curve" smooth="yes"/>
      <point x="682" y="149"/>
      <point x="688" y="143"/>
      <point x="688" y="129" type="curve" smooth="yes"/>
      <point x="688" y="107"/>
      <point x="666" y="93"/>
    </contour>
    <contour>
      <point x="976" y="0" type="line"/>
      <point x="1106" y="0" type="line"/>
      <point x="1106" y="362" type="line" smooth="yes"/>
      <point x="1106" y="484"/>
      <point x="1048" y="546"/>
      <point x="933" y="546" type="curve" smooth="yes"/>
      <point x="867" y="546"/>
      <point x="825" y="522"/>
      <point x="807" y="476" type="curve"/>
      <point x="784" y="524"/>
      <point x="736" y="548"/>
      <point x="663" y="548" type="curve" smooth="yes"/>
      <point x="579" y="548"/>
      <point x="518" y="490"/>
      <point x="518" y="410" type="curve" smooth="yes"/>
      <point x="518" y="322"/>
      <point x="570" y="271"/>
      <point x="676" y="257" type="curve"/>
      <point x="704" y="326" type="line"/>
      <point x="659" y="338"/>
      <point x="637" y="357"/>
      <point x="637" y="384" type="curve" smooth="yes"/>
      <point x="637" y="409"/>
      <point x="655" y="424"/>
      <point x="685" y="424" type="curve" smooth="yes"/>
      <point x="725" y="424"/>
      <point x="752" y="393"/>
      <point x="759" y="335" type="curve"/>
      <point x="851" y="335" type="line"/>
      <point x="858" y="393"/>
      <point x="879" y="421"/>
      <point x="914" y="421" type="curve" smooth="yes"/>
      <point x="955" y="421"/>
      <point x="976" y="399"/>
      <point x="976" y="355" type="curve" smooth="yes"/>
    </contour>
  </outline>
</glyph>
<glyph name="ttha" format="2">
  <advance width="1155"/>
  <unicode hex="A99C"/>
  <note>
ttha
</note>
  <outline>
    <contour>
      <point x="280" y="0" type="curve"/>
      <point x="299" y="93" type="line"/>
      <point x="239" y="101"/>
      <point x="209" y="129"/>
      <point x="209" y="178" type="curve" smooth="yes"/>
      <point x="209" y="347" type="line" smooth="yes"/>
      <point x="209" y="396"/>
      <point x="234" y="421"/>
      <point x="282" y="421" type="curve" smooth="yes"/>
      <point x="330" y="421"/>
      <point x="354" y="397"/>
      <point x="354" y="350" type="curve" smooth="yes"/>
      <point x="354" y="192" type="line" smooth="yes"/>
      <point x="354" y="68"/>
      <point x="415" y="4"/>
      <point x="537" y="0" type="curve"/>
      <point x="643" y="0"/>
      <point x="681" y="4"/>
      <point x="735" y="37" type="curve" smooth="yes"/>
      <point x="770" y="59"/>
      <point x="787" y="93"/>
      <point x="787" y="141" type="curve" smooth="yes"/>
      <point x="787" y="193"/>
      <point x="740" y="234"/>
      <point x="675" y="234" type="curve" smooth="yes"/>
      <point x="592" y="234"/>
      <point x="541" y="188"/>
      <point x="522" y="96" type="curve"/>
      <point x="497" y="108"/>
      <point x="484" y="136"/>
      <point x="484" y="180" type="curve" smooth="yes"/>
      <point x="484" y="349" type="line" smooth="yes"/>
      <point x="484" y="480"/>
      <point x="417" y="546"/>
      <point x="282" y="546" type="curve" smooth="yes"/>
      <point x="146" y="546"/>
      <point x="78" y="479"/>
      <point x="78" y="344" type="curve" smooth="yes"/>
      <point x="78" y="173" type="line" smooth="yes"/>
      <point x="78" y="60"/>
      <point x="154" y="5"/>
    </contour>
    <contour>
      <point x="625" y="90" type="curve"/>
      <point x="630" y="133"/>
      <point x="645" y="149"/>
      <point x="669" y="149" type="curve" smooth="yes"/>
      <point x="682" y="149"/>
      <point x="688" y="143"/>
      <point x="688" y="129" type="curve" smooth="yes"/>
      <point x="688" y="107"/>
      <point x="666" y="93"/>
    </contour>
    <contour>
      <point x="976" y="0" type="line"/>
      <point x="1106" y="0" type="line"/>
      <point x="1106" y="362" type="line" smooth="yes"/>
      <point x="1106" y="484"/>
      <point x="1048" y="546"/>
      <point x="933" y="546" type="curve" smooth="yes"/>
      <point x="867" y="546"/>
      <point x="825" y="522"/>
      <point x="807" y="476" type="curve"/>
      <point x="784" y="524"/>
      <point x="736" y="548"/>
      <point x="663" y="548" type="curve" smooth="yes"/>
      <point x="579" y="548"/>
      <point x="518" y="490"/>
      <point x="518" y="410" type="curve" smooth="yes"/>
      <point x="518" y="322"/>
      <point x="570" y="271"/>
      <point x="676" y="257" type="curve"/>
      <point x="704" y="326" type="line"/>
      <point x="659" y="338"/>
      <point x="637" y="357"/>
      <point x="637" y="384" type="curve" smooth="yes"/>
      <point x="637" y="409"/>
      <point x="655" y="424"/>
      <point x="685" y="424" type="curve" smooth="yes"/>
      <point x="725" y="424"/>
      <point x="752" y="393"/>
      <point x="759" y="335" type="curve"/>
      <point x="851" y="335" type="line"/>
      <point x="858" y="393"/>
      <point x="879" y="421"/>
      <point x="914" y="421" type="curve" smooth="yes"/>
      <point x="955" y="421"/>
      <point x="976" y="399"/>
      <point x="976" y="355" type="curve" smooth="yes"/>
    </contour>
  </outline>
</glyph>
<glyph name="ddha" format="2">
  <advance width="1050"/>
  <unicode hex="A99E"/>
  <note>
ddha
</note>
  <outline>
    <contour>
      <point x="280" y="0" type="curve"/>
      <point x="299" y="93" type="line"/>
      <point x="239" y="101"/>
      <point x="209" y="129"/>
      <point x="209" y="178" type="curve" smooth="yes"/>
      <point x="209" y="347" type="line" smooth="yes"/>
      <point x="209" y="396"/>
      <point x="234" y="421"/>
      <point x="282" y="421" type="curve" smooth="yes"/>
      <point x="330" y="421"/>
      <point x="354" y="397"/>
      <point x="354" y="350" type="curve" smooth="yes"/>
      <point x="354" y="172" type="line" smooth="yes"/>
      <point x="354" y="58"/>
      <point x="414" y="0"/>
      <point x="525" y="0" type="curve" smooth="yes"/>
      <point x="593" y="0"/>
      <point x="644" y="24"/>
      <point x="677" y="72" type="curve"/>
      <point x="710" y="24"/>
      <point x="761" y="0"/>
      <point x="830" y="0" type="curve" smooth="yes"/>
      <point x="941" y="0"/>
      <point x="1001" y="59"/>
      <point x="1001" y="173" type="curve" smooth="yes"/>
      <point x="1001" y="373" type="line" smooth="yes"/>
      <point x="1001" y="492"/>
      <point x="924" y="539"/>
      <point x="799" y="546" type="curve"/>
      <point x="780" y="453" type="line"/>
      <point x="840" y="445"/>
      <point x="870" y="417"/>
      <point x="870" y="368" type="curve" smooth="yes"/>
      <point x="870" y="182" type="line" smooth="yes"/>
      <point x="870" y="142"/>
      <point x="847" y="121"/>
      <point x="805" y="121" type="curve" smooth="yes"/>
      <point x="764" y="121"/>
      <point x="740" y="142"/>
      <point x="740" y="182" type="curve" smooth="yes"/>
      <point x="740" y="272" type="line"/>
      <point x="614" y="272" type="line"/>
      <point x="614" y="181" type="line" smooth="yes"/>
      <point x="614" y="141"/>
      <point x="591" y="121"/>
      <point x="549" y="121" type="curve" smooth="yes"/>
      <point x="508" y="121"/>
      <point x="484" y="141"/>
      <point x="484" y="181" type="curve" smooth="yes"/>
      <point x="484" y="349" type="line" smooth="yes"/>
      <point x="484" y="480"/>
      <point x="417" y="546"/>
      <point x="282" y="546" type="curve" smooth="yes"/>
      <point x="146" y="546"/>
      <point x="78" y="479"/>
      <point x="78" y="344" type="curve" smooth="yes"/>
      <point x="78" y="173" type="line" smooth="yes"/>
      <point x="78" y="60"/>
      <point x="154" y="5"/>
    </contour>
  </outline>
</glyph>
<glyph name="nna" format="2">
  <advance width="1418"/>
  <unicode hex="A99F"/>
  <note>
nna
</note>
  <outline>
    <contour>
      <point x="349" y="0" type="line"/>
      <point x="479" y="0" type="line"/>
      <point x="479" y="342" type="line" smooth="yes"/>
      <point x="479" y="398"/>
      <point x="508" y="426"/>
      <point x="562" y="426" type="curve" smooth="yes"/>
      <point x="616" y="426"/>
      <point x="644" y="399"/>
      <point x="644" y="345" type="curve" smooth="yes"/>
      <point x="644" y="0" type="line"/>
      <point x="774" y="0" type="line"/>
      <point x="774" y="342" type="line" smooth="yes"/>
      <point x="774" y="398"/>
      <point x="803" y="426"/>
      <point x="857" y="426" type="curve" smooth="yes"/>
      <point x="911" y="426"/>
      <point x="938" y="399"/>
      <point x="938" y="345" type="curve" smooth="yes"/>
      <point x="938" y="0" type="line"/>
      <point x="1069" y="0" type="line"/>
      <point x="1069" y="342" type="line" smooth="yes"/>
      <point x="1069" y="398"/>
      <point x="1098" y="426"/>
      <point x="1154" y="426" type="curve" smooth="yes"/>
      <point x="1210" y="426"/>
      <point x="1238" y="399"/>
      <point x="1238" y="345" type="curve" smooth="yes"/>
      <point x="1238" y="0" type="line"/>
      <point x="1369" y="0" type="line"/>
      <point x="1369" y="354" type="line" smooth="yes"/>
      <point x="1369" y="482"/>
      <point x="1302" y="546"/>
      <point x="1167" y="546" type="curve" smooth="yes"/>
      <point x="1091" y="546"/>
      <point x="1038" y="518"/>
      <point x="1007" y="463" type="curve"/>
      <point x="976" y="518"/>
      <point x="926" y="546"/>
      <point x="857" y="546" type="curve" smooth="yes"/>
      <point x="791" y="546"/>
      <point x="743" y="519"/>
      <point x="711" y="464" type="curve"/>
      <point x="680" y="519"/>
      <point x="630" y="546"/>
      <point x="562" y="546" type="curve" smooth="yes"/>
      <point x="496" y="546"/>
      <point x="447" y="518"/>
      <point x="416" y="463" type="curve"/>
      <point x="384" y="518"/>
      <point x="330" y="546"/>
      <point x="252" y="546" type="curve" smooth="yes"/>
      <point x="136" y="546"/>
      <point x="59" y="473"/>
      <point x="59" y="349" type="curve" smooth="yes"/>
      <point x="59" y="286"/>
      <point x="78" y="238"/>
      <point x="118" y="206" type="curve" smooth="yes"/>
      <point x="158" y="174"/>
      <point x="203" y="153"/>
      <point x="255" y="146" type="curve"/>
      <point x="273" y="244" type="line"/>
      <point x="214" y="257"/>
      <point x="185" y="290"/>
      <point x="185" y="342" type="curve" smooth="yes"/>
      <point x="185" y="398"/>
      <point x="213" y="426"/>
      <point x="267" y="426" type="curve" smooth="yes"/>
      <point x="321" y="426"/>
      <point x="349" y="399"/>
      <point x="349" y="345" type="curve" smooth="yes"/>
    </contour>
  </outline>
</glyph>
<glyph name="ta" format="2">
  <advance width="1404"/>
  <unicode hex="A9A0"/>
  <note>
ta
</note>
  <outline>
    <contour>
      <point x="280" y="0" type="curve"/>
      <point x="299" y="93" type="line"/>
      <point x="239" y="101"/>
      <point x="209" y="129"/>
      <point x="209" y="178" type="curve" smooth="yes"/>
      <point x="209" y="347" type="line" smooth="yes"/>
      <point x="209" y="396"/>
      <point x="234" y="421"/>
      <point x="282" y="421" type="curve" smooth="yes"/>
      <point x="330" y="421"/>
      <point x="354" y="397"/>
      <point x="354" y="350" type="curve" smooth="yes"/>
      <point x="354" y="178" type="line" smooth="yes"/>
      <point x="354" y="64"/>
      <point x="432" y="0"/>
      <point x="540" y="0" type="curve" smooth="yes"/>
      <point x="698" y="0" type="line" smooth="yes"/>
      <point x="803" y="0"/>
      <point x="883" y="43"/>
      <point x="883" y="148" type="curve" smooth="yes"/>
      <point x="883" y="187"/>
      <point x="873" y="219"/>
      <point x="853" y="244" type="curve" smooth="yes"/>
      <point x="833" y="269"/>
      <point x="803" y="293"/>
      <point x="765" y="317" type="curve" smooth="yes"/>
      <point x="716" y="348"/>
      <point x="689" y="370"/>
      <point x="689" y="388" type="curve" smooth="yes"/>
      <point x="689" y="410"/>
      <point x="700" y="421"/>
      <point x="722" y="421" type="curve" smooth="yes"/>
      <point x="853" y="421" type="line" smooth="yes"/>
      <point x="920" y="421"/>
      <point x="954" y="381"/>
      <point x="954" y="301" type="curve" smooth="yes"/>
      <point x="954" y="0" type="line"/>
      <point x="1085" y="0" type="line"/>
      <point x="1085" y="352" type="line" smooth="yes"/>
      <point x="1085" y="398"/>
      <point x="1109" y="421"/>
      <point x="1155" y="421" type="curve" smooth="yes"/>
      <point x="1202" y="421"/>
      <point x="1225" y="397"/>
      <point x="1225" y="350" type="curve" smooth="yes"/>
      <point x="1225" y="0" type="line"/>
      <point x="1355" y="0" type="line"/>
      <point x="1355" y="349" type="line" smooth="yes"/>
      <point x="1355" y="480"/>
      <point x="1298" y="546"/>
      <point x="1182" y="546" type="curve" smooth="yes"/>
      <point x="1120" y="546"/>
      <point x="1069" y="519"/>
      <point x="1031" y="463" type="curve"/>
      <point x="1001" y="514"/>
      <point x="952" y="546"/>
      <point x="893" y="546" type="curve" smooth="yes"/>
      <point x="692" y="546" type="line" smooth="yes"/>
      <point x="601" y="546"/>
      <point x="530" y="493"/>
      <point x="530" y="404" type="curve" smooth="yes"/>
      <point x="530" y="367"/>
      <point x="544" y="334"/>
      <point x="573" y="307" type="curve" smooth="yes"/>
      <point x="592" y="290"/>
      <point x="624" y="266"/>
      <point x="668" y="236" type="curve" smooth="yes"/>
      <point x="720" y="201"/>
      <point x="745" y="175"/>
      <point x="745" y="157" type="curve" smooth="yes"/>
      <point x="745" y="135"/>
      <point x="725" y="122"/>
      <point x="693" y="122" type="curve" smooth="yes"/>
      <point x="553" y="122" type="line" smooth="yes"/>
      <point x="507" y="122"/>
      <point x="484" y="145"/>
      <point x="484" y="190" type="curve" smooth="yes"/>
      <point x="484" y="349" type="line" smooth="yes"/>
      <point x="484" y="480"/>
      <point x="417" y="546"/>
      <point x="282" y="546" type="curve" smooth="yes"/>
      <point x="146" y="546"/>
      <point x="78" y="479"/>
      <point x="78" y="344" type="curve" smooth="yes"/>
      <point x="78" y="173" type="line" smooth="yes"/>
      <point x="78" y="60"/>
      <point x="154" y="5"/>
    </contour>
  </outline>
</glyph>
<glyph name="tha" format="2">
  <advance width="1162"/>
  <unicode hex="A9A1"/>
  <note>
tha
</note>
  <outline>
    <contour>
      <point x="667" y="-155" type="curve" smooth="yes"/>
      <point x="707" y="-155"/>
      <point x="746" y="-141"/>
      <point x="782" y="-113" type="curve"/>
      <point x="744" y="-34" type="line"/>
      <point x="713" y="-51"/>
      <point x="691" y="-60"/>
      <point x="679" y="-60" type="curve" smooth="yes"/>
      <point x="659" y="-60"/>
      <point x="643" y="-53"/>
      <point x="643" y="-27" type="curve" smooth="yes"/>
      <point x="643" y="-24"/>
      <point x="644" y="-17"/>
      <point x="648" y="0" type="curve"/>
      <point x="687" y="0" type="line" smooth="yes"/>
      <point x="817" y="0"/>
      <point x="883" y="73"/>
      <point x="883" y="217" type="curve" smooth="yes"/>
      <point x="883" y="217" type="line" smooth="yes"/>
      <point x="883" y="327"/>
      <point x="849" y="396"/>
      <point x="781" y="421" type="curve"/>
      <point x="895" y="421" type="line" smooth="yes"/>
      <point x="953" y="421"/>
      <point x="982" y="395"/>
      <point x="982" y="342" type="curve" smooth="yes"/>
      <point x="982" y="0" type="line"/>
      <point x="1113" y="0" type="line"/>
      <point x="1113" y="393" type="line" smooth="yes"/>
      <point x="1113" y="495"/>
      <point x="1043" y="546"/>
      <point x="905" y="546" type="curve" smooth="yes"/>
      <point x="601" y="546" type="line"/>
      <point x="601" y="425" type="line"/>
      <point x="705" y="419"/>
      <point x="757" y="354"/>
      <point x="757" y="228" type="curve" smooth="yes"/>
      <point x="757" y="228" type="line" smooth="yes"/>
      <point x="757" y="157"/>
      <point x="736" y="122"/>
      <point x="693" y="122" type="curve" smooth="yes"/>
      <point x="686" y="122" type="line"/>
      <point x="697" y="150"/>
      <point x="701" y="171"/>
      <point x="701" y="188" type="curve" smooth="yes"/>
      <point x="701" y="253"/>
      <point x="647" y="291"/>
      <point x="540" y="300" type="curve"/>
      <point x="514" y="204" type="line"/>
      <point x="561" y="198"/>
      <point x="584" y="181"/>
      <point x="584" y="152" type="curve" smooth="yes"/>
      <point x="584" y="143"/>
      <point x="583" y="138"/>
      <point x="578" y="122" type="curve"/>
      <point x="543" y="122" type="line" smooth="yes"/>
      <point x="504" y="122"/>
      <point x="484" y="145"/>
      <point x="484" y="190" type="curve" smooth="yes"/>
      <point x="484" y="349" type="line" smooth="yes"/>
      <point x="484" y="480"/>
      <point x="417" y="546"/>
      <point x="282" y="546" type="curve" smooth="yes"/>
      <point x="146" y="546"/>
      <point x="78" y="479"/>
      <point x="78" y="344" type="curve" smooth="yes"/>
      <point x="78" y="173" type="line" smooth="yes"/>
      <point x="78" y="116"/>
      <point x="97" y="74"/>
      <point x="133" y="45" type="curve" smooth="yes"/>
      <point x="168" y="17"/>
      <point x="218" y="2"/>
      <point x="280" y="0" type="curve"/>
      <point x="299" y="93" type="line"/>
      <point x="239" y="101"/>
      <point x="209" y="129"/>
      <point x="209" y="178" type="curve" smooth="yes"/>
      <point x="209" y="347" type="line" smooth="yes"/>
      <point x="209" y="396"/>
      <point x="234" y="421"/>
      <point x="282" y="421" type="curve" smooth="yes"/>
      <point x="330" y="421"/>
      <point x="354" y="397"/>
      <point x="354" y="350" type="curve" smooth="yes"/>
      <point x="354" y="192" type="line" smooth="yes"/>
      <point x="354" y="65"/>
      <point x="417" y="0"/>
      <point x="542" y="0" type="curve" smooth="yes"/>
      <point x="542" y="0" type="line"/>
      <point x="539" y="-15"/>
      <point x="538" y="-25"/>
      <point x="538" y="-41" type="curve" smooth="yes"/>
      <point x="538" y="-112"/>
      <point x="585" y="-155"/>
    </contour>
  </outline>
</glyph>
<glyph name="da" format="2">
  <advance width="1237"/>
  <unicode hex="A9A2"/>
  <note>
da
</note>
  <outline>
    <contour>
      <point x="432" y="-1" type="curve" smooth="yes"/>
      <point x="476" y="-1"/>
      <point x="519" y="22"/>
      <point x="565" y="66" type="curve" smooth="yes"/>
      <point x="627" y="125" type="line"/>
      <point x="630" y="46"/>
      <point x="692" y="0"/>
      <point x="801" y="0" type="curve" smooth="yes"/>
      <point x="890" y="0"/>
      <point x="958" y="45"/>
      <point x="958" y="137" type="curve" smooth="yes"/>
      <point x="958" y="224"/>
      <point x="898" y="274"/>
      <point x="801" y="274" type="curve" smooth="yes"/>
      <point x="791" y="274"/>
      <point x="776" y="273"/>
      <point x="758" y="271" type="curve"/>
      <point x="758" y="287" type="line" smooth="yes"/>
      <point x="758" y="376"/>
      <point x="808" y="421"/>
      <point x="908" y="421" type="curve" smooth="yes"/>
      <point x="1008" y="421"/>
      <point x="1058" y="376"/>
      <point x="1058" y="287" type="curve" smooth="yes"/>
      <point x="1058" y="0" type="line"/>
      <point x="1188" y="0" type="line"/>
      <point x="1188" y="286" type="line" smooth="yes"/>
      <point x="1188" y="459"/>
      <point x="1095" y="546"/>
      <point x="908" y="546" type="curve" smooth="yes"/>
      <point x="720" y="546"/>
      <point x="626" y="459"/>
      <point x="626" y="287" type="curve" smooth="yes"/>
      <point x="626" y="253" type="line"/>
      <point x="509" y="145" type="line" smooth="yes"/>
      <point x="496" y="133"/>
      <point x="485" y="125"/>
      <point x="475" y="125" type="curve" smooth="yes"/>
      <point x="458" y="125"/>
      <point x="449" y="139"/>
      <point x="449" y="166" type="curve" smooth="yes"/>
      <point x="449" y="242" type="line" smooth="yes"/>
      <point x="449" y="358"/>
      <point x="502" y="419"/>
      <point x="605" y="425" type="curve"/>
      <point x="605" y="546" type="line"/>
      <point x="287" y="546" type="line" smooth="yes"/>
      <point x="148" y="546"/>
      <point x="78" y="495"/>
      <point x="78" y="393" type="curve" smooth="yes"/>
      <point x="78" y="173" type="line" smooth="yes"/>
      <point x="78" y="60"/>
      <point x="154" y="5"/>
      <point x="280" y="0" type="curve"/>
      <point x="299" y="93" type="line"/>
      <point x="239" y="101"/>
      <point x="209" y="129"/>
      <point x="209" y="178" type="curve" smooth="yes"/>
      <point x="209" y="342" type="line" smooth="yes"/>
      <point x="209" y="395"/>
      <point x="239" y="421"/>
      <point x="296" y="421" type="curve" smooth="yes"/>
      <point x="425" y="421" type="line"/>
      <point x="355" y="396"/>
      <point x="318" y="328"/>
      <point x="318" y="221" type="curve" smooth="yes"/>
      <point x="318" y="123" type="line" smooth="yes"/>
      <point x="318" y="42"/>
      <point x="356" y="-1"/>
    </contour>
    <contour>
      <point x="799" y="95" type="curve" smooth="yes"/>
      <point x="771" y="95"/>
      <point x="757" y="110"/>
      <point x="757" y="141" type="curve" smooth="yes"/>
      <point x="757" y="182" type="line"/>
      <point x="774" y="185"/>
      <point x="787" y="186"/>
      <point x="795" y="186" type="curve" smooth="yes"/>
      <point x="826" y="186"/>
      <point x="842" y="169"/>
      <point x="842" y="136" type="curve" smooth="yes"/>
      <point x="842" y="109"/>
      <point x="828" y="95"/>
    </contour>
  </outline>
</glyph>
<glyph name="dha" format="2">
  <advance width="1277"/>
  <unicode hex="A9A3"/>
  <note>
ddha
</note>
  <outline>
    <contour>
      <point x="280" y="0" type="curve"/>
      <point x="299" y="93" type="line"/>
      <point x="239" y="101"/>
      <point x="209" y="129"/>
      <point x="209" y="178" type="curve" smooth="yes"/>
      <point x="209" y="347" type="line" smooth="yes"/>
      <point x="209" y="396"/>
      <point x="234" y="421"/>
      <point x="282" y="421" type="curve" smooth="yes"/>
      <point x="330" y="421"/>
      <point x="354" y="397"/>
      <point x="354" y="350" type="curve" smooth="yes"/>
      <point x="354" y="172" type="line" smooth="yes"/>
      <point x="354" y="58"/>
      <point x="414" y="0"/>
      <point x="525" y="0" type="curve" smooth="yes"/>
      <point x="593" y="0"/>
      <point x="644" y="24"/>
      <point x="677" y="72" type="curve"/>
      <point x="710" y="24"/>
      <point x="761" y="0"/>
      <point x="830" y="0" type="curve" smooth="yes"/>
      <point x="941" y="0"/>
      <point x="1001" y="57"/>
      <point x="1001" y="171" type="curve" smooth="yes"/>
      <point x="1001" y="215" type="line" smooth="yes"/>
      <point x="1001" y="325"/>
      <point x="963" y="396"/>
      <point x="895" y="421" type="curve"/>
      <point x="1009" y="421" type="line" smooth="yes"/>
      <point x="1067" y="421"/>
      <point x="1097" y="395"/>
      <point x="1097" y="342" type="curve" smooth="yes"/>
      <point x="1097" y="0" type="line"/>
      <point x="1228" y="0" type="line"/>
      <point x="1228" y="392" type="line" smooth="yes"/>
      <point x="1228" y="494"/>
      <point x="1157" y="546"/>
      <point x="1019" y="546" type="curve" smooth="yes"/>
      <point x="715" y="546" type="line"/>
      <point x="715" y="425" type="line"/>
      <point x="811" y="420"/>
      <point x="870" y="357"/>
      <point x="870" y="250" type="curve" smooth="yes"/>
      <point x="870" y="181" type="line" smooth="yes"/>
      <point x="870" y="141"/>
      <point x="847" y="121"/>
      <point x="805" y="121" type="curve" smooth="yes"/>
      <point x="764" y="121"/>
      <point x="740" y="142"/>
      <point x="740" y="182" type="curve" smooth="yes"/>
      <point x="740" y="272" type="line"/>
      <point x="614" y="272" type="line"/>
      <point x="614" y="181" type="line" smooth="yes"/>
      <point x="614" y="141"/>
      <point x="591" y="121"/>
      <point x="549" y="121" type="curve" smooth="yes"/>
      <point x="508" y="121"/>
      <point x="484" y="142"/>
      <point x="484" y="182" type="curve" smooth="yes"/>
      <point x="484" y="349" type="line" smooth="yes"/>
      <point x="484" y="480"/>
      <point x="417" y="546"/>
      <point x="282" y="546" type="curve" smooth="yes"/>
      <point x="146" y="546"/>
      <point x="78" y="479"/>
      <point x="78" y="344" type="curve" smooth="yes"/>
      <point x="78" y="173" type="line" smooth="yes"/>
      <point x="78" y="60"/>
      <point x="154" y="5"/>
    </contour>
  </outline>
</glyph>
<glyph name="na" format="2">
  <advance width="1185"/>
  <unicode hex="A9A4"/>
  <note>
na
</note>
  <outline>
    <contour>
      <point x="280" y="0" type="curve"/>
      <point x="299" y="93" type="line"/>
      <point x="239" y="101"/>
      <point x="209" y="129"/>
      <point x="209" y="178" type="curve" smooth="yes"/>
      <point x="209" y="347" type="line" smooth="yes"/>
      <point x="209" y="396"/>
      <point x="234" y="421"/>
      <point x="282" y="421" type="curve" smooth="yes"/>
      <point x="330" y="421"/>
      <point x="354" y="397"/>
      <point x="354" y="350" type="curve" smooth="yes"/>
      <point x="354" y="0" type="line"/>
      <point x="484" y="0" type="line"/>
      <point x="484" y="196" type="line"/>
      <point x="573" y="196" type="line"/>
      <point x="573" y="170" type="line" smooth="yes"/>
      <point x="573" y="57"/>
      <point x="633" y="0"/>
      <point x="752" y="0" type="curve" smooth="yes"/>
      <point x="839" y="0"/>
      <point x="909" y="60"/>
      <point x="909" y="141" type="curve" smooth="yes"/>
      <point x="909" y="253"/>
      <point x="829" y="299"/>
      <point x="705" y="301" type="curve"/>
      <point x="705" y="301" type="line" smooth="yes"/>
      <point x="707" y="381"/>
      <point x="756" y="421"/>
      <point x="855" y="421" type="curve" smooth="yes"/>
      <point x="955" y="421"/>
      <point x="1005" y="376"/>
      <point x="1005" y="287" type="curve" smooth="yes"/>
      <point x="1005" y="0" type="line"/>
      <point x="1136" y="0" type="line"/>
      <point x="1136" y="286" type="line" smooth="yes"/>
      <point x="1136" y="459"/>
      <point x="1042" y="546"/>
      <point x="855" y="546" type="curve" smooth="yes"/>
      <point x="670" y="546"/>
      <point x="577" y="464"/>
      <point x="574" y="301" type="curve" smooth="yes"/>
      <point x="574" y="301" type="line"/>
      <point x="484" y="301" type="line"/>
      <point x="484" y="349" type="line" smooth="yes"/>
      <point x="484" y="480"/>
      <point x="417" y="546"/>
      <point x="282" y="546" type="curve" smooth="yes"/>
      <point x="146" y="546"/>
      <point x="78" y="479"/>
      <point x="78" y="344" type="curve" smooth="yes"/>
      <point x="78" y="173" type="line" smooth="yes"/>
      <point x="78" y="60"/>
      <point x="154" y="5"/>
    </contour>
    <contour>
      <point x="753" y="98" type="curve" smooth="yes"/>
      <point x="720" y="98"/>
      <point x="704" y="116"/>
      <point x="704" y="146" type="curve" smooth="yes"/>
      <point x="704" y="196" type="line"/>
      <point x="768" y="196"/>
      <point x="800" y="178"/>
      <point x="800" y="142" type="curve" smooth="yes"/>
      <point x="800" y="116"/>
      <point x="788" y="98"/>
    </contour>
  </outline>
</glyph>
<glyph name="pa" format="2">
  <advance width="1119"/>
  <unicode hex="A9A5"/>
  <note>
pa
</note>
  <outline>
    <contour>
      <point x="280" y="0" type="curve"/>
      <point x="299" y="93" type="line"/>
      <point x="239" y="101"/>
      <point x="209" y="129"/>
      <point x="209" y="178" type="curve" smooth="yes"/>
      <point x="209" y="347" type="line" smooth="yes"/>
      <point x="209" y="396"/>
      <point x="234" y="421"/>
      <point x="282" y="421" type="curve" smooth="yes"/>
      <point x="330" y="421"/>
      <point x="354" y="397"/>
      <point x="354" y="350" type="curve" smooth="yes"/>
      <point x="354" y="187" type="line" smooth="yes"/>
      <point x="354" y="63"/>
      <point x="422" y="0"/>
      <point x="559" y="0" type="curve" smooth="yes"/>
      <point x="591" y="0" type="line" smooth="yes"/>
      <point x="726" y="0"/>
      <point x="795" y="63"/>
      <point x="795" y="187" type="curve" smooth="yes"/>
      <point x="795" y="347" type="line" smooth="yes"/>
      <point x="795" y="396"/>
      <point x="820" y="421"/>
      <point x="868" y="421" type="curve" smooth="yes"/>
      <point x="916" y="421"/>
      <point x="939" y="397"/>
      <point x="939" y="350" type="curve" smooth="yes"/>
      <point x="939" y="0" type="line"/>
      <point x="1070" y="0" type="line"/>
      <point x="1070" y="349" type="line" smooth="yes"/>
      <point x="1070" y="480"/>
      <point x="1003" y="546"/>
      <point x="868" y="546" type="curve" smooth="yes"/>
      <point x="732" y="546"/>
      <point x="664" y="479"/>
      <point x="664" y="344" type="curve" smooth="yes"/>
      <point x="664" y="190" type="line" smooth="yes"/>
      <point x="664" y="145"/>
      <point x="641" y="122"/>
      <point x="596" y="122" type="curve" smooth="yes"/>
      <point x="553" y="122" type="line" smooth="yes"/>
      <point x="507" y="122"/>
      <point x="484" y="145"/>
      <point x="484" y="190" type="curve" smooth="yes"/>
      <point x="484" y="349" type="line" smooth="yes"/>
      <point x="484" y="480"/>
      <point x="417" y="546"/>
      <point x="282" y="546" type="curve" smooth="yes"/>
      <point x="146" y="546"/>
      <point x="78" y="479"/>
      <point x="78" y="344" type="curve" smooth="yes"/>
      <point x="78" y="173" type="line" smooth="yes"/>
      <point x="78" y="60"/>
      <point x="154" y="5"/>
    </contour>
  </outline>
</glyph>
<glyph name="ba" format="2">
  <advance width="1431"/>
  <unicode hex="A9A7"/>
  <note>
ba
</note>
  <outline>
    <contour>
      <point x="980" y="0" type="line"/>
      <point x="1111" y="0" type="line"/>
      <point x="1111" y="352" type="line" smooth="yes"/>
      <point x="1111" y="398"/>
      <point x="1135" y="421"/>
      <point x="1182" y="421" type="curve" smooth="yes"/>
      <point x="1228" y="421"/>
      <point x="1251" y="397"/>
      <point x="1251" y="350" type="curve" smooth="yes"/>
      <point x="1251" y="0" type="line"/>
      <point x="1382" y="0" type="line"/>
      <point x="1382" y="349" type="line" smooth="yes"/>
      <point x="1382" y="480"/>
      <point x="1324" y="546"/>
      <point x="1208" y="546" type="curve" smooth="yes"/>
      <point x="1154" y="546"/>
      <point x="1109" y="523"/>
      <point x="1073" y="479" type="curve"/>
      <point x="1044" y="523"/>
      <point x="999" y="546"/>
      <point x="938" y="546" type="curve" smooth="yes"/>
      <point x="872" y="546"/>
      <point x="830" y="522"/>
      <point x="812" y="476" type="curve"/>
      <point x="789" y="524"/>
      <point x="741" y="548"/>
      <point x="668" y="548" type="curve" smooth="yes"/>
      <point x="580" y="548"/>
      <point x="522" y="486"/>
      <point x="522" y="410" type="curve" smooth="yes"/>
      <point x="522" y="322"/>
      <point x="575" y="271"/>
      <point x="681" y="257" type="curve"/>
      <point x="709" y="326" type="line"/>
      <point x="664" y="338"/>
      <point x="642" y="357"/>
      <point x="642" y="384" type="curve" smooth="yes"/>
      <point x="642" y="411"/>
      <point x="660" y="424"/>
      <point x="690" y="424" type="curve" smooth="yes"/>
      <point x="732" y="424"/>
      <point x="757" y="393"/>
      <point x="764" y="335" type="curve"/>
      <point x="856" y="335" type="line"/>
      <point x="863" y="393"/>
      <point x="884" y="421"/>
      <point x="918" y="421" type="curve" smooth="yes"/>
      <point x="960" y="421"/>
      <point x="980" y="399"/>
      <point x="980" y="355" type="curve" smooth="yes"/>
    </contour>
    <contour>
      <point x="558" y="0" type="curve" smooth="yes"/>
      <point x="802" y="0" type="line"/>
      <point x="819" y="30" type="line"/>
      <point x="699" y="219" type="line"/>
      <point x="610" y="219" type="line"/>
      <point x="667" y="122" type="line"/>
      <point x="553" y="122" type="line" smooth="yes"/>
      <point x="507" y="122"/>
      <point x="484" y="145"/>
      <point x="484" y="190" type="curve" smooth="yes"/>
      <point x="484" y="349" type="line" smooth="yes"/>
      <point x="484" y="480"/>
      <point x="417" y="546"/>
      <point x="282" y="546" type="curve" smooth="yes"/>
      <point x="146" y="546"/>
      <point x="78" y="479"/>
      <point x="78" y="344" type="curve" smooth="yes"/>
      <point x="78" y="173" type="line" smooth="yes"/>
      <point x="78" y="60"/>
      <point x="154" y="5"/>
      <point x="280" y="0" type="curve"/>
      <point x="299" y="93" type="line"/>
      <point x="239" y="101"/>
      <point x="209" y="129"/>
      <point x="209" y="178" type="curve" smooth="yes"/>
      <point x="209" y="347" type="line" smooth="yes"/>
      <point x="209" y="396"/>
      <point x="234" y="421"/>
      <point x="282" y="421" type="curve" smooth="yes"/>
      <point x="330" y="421"/>
      <point x="354" y="397"/>
      <point x="354" y="350" type="curve" smooth="yes"/>
      <point x="354" y="187" type="line" smooth="yes"/>
      <point x="354" y="63"/>
      <point x="421" y="0"/>
    </contour>
  </outline>
</glyph>
<glyph name="bha" format="2">
  <advance width="1019"/>
  <unicode hex="A9A8"/>
  <note>
bha
</note>
  <outline>
    <contour>
      <point x="584" y="-1" type="curve" smooth="yes"/>
      <point x="669" y="-1"/>
      <point x="713" y="34"/>
      <point x="713" y="104" type="curve" smooth="yes"/>
      <point x="713" y="333" type="line" smooth="yes"/>
      <point x="713" y="394"/>
      <point x="745" y="424"/>
      <point x="808" y="424" type="curve" smooth="yes"/>
      <point x="875" y="424" type="line"/>
      <point x="823" y="342" type="line"/>
      <point x="917" y="342" type="line"/>
      <point x="1037" y="516" type="line"/>
      <point x="1020" y="546" type="line"/>
      <point x="815" y="546" type="line" smooth="yes"/>
      <point x="660" y="546"/>
      <point x="582" y="474"/>
      <point x="582" y="330" type="curve" smooth="yes"/>
      <point x="582" y="155" type="line" smooth="yes"/>
      <point x="582" y="136"/>
      <point x="571" y="126"/>
      <point x="552" y="126" type="curve" smooth="yes"/>
      <point x="538" y="126"/>
      <point x="525" y="132"/>
      <point x="408" y="173" type="curve"/>
      <point x="467" y="251"/>
      <point x="506" y="324"/>
      <point x="506" y="393" type="curve" smooth="yes"/>
      <point x="506" y="494"/>
      <point x="451" y="546"/>
      <point x="341" y="546" type="curve" smooth="yes"/>
      <point x="70" y="546" type="line"/>
      <point x="53" y="516" type="line"/>
      <point x="173" y="342" type="line"/>
      <point x="267" y="342" type="line"/>
      <point x="215" y="424" type="line"/>
      <point x="307" y="424" type="line" smooth="yes"/>
      <point x="350" y="424"/>
      <point x="371" y="405"/>
      <point x="371" y="367" type="curve" smooth="yes"/>
      <point x="371" y="359" type="line" smooth="yes"/>
      <point x="371" y="307"/>
      <point x="321" y="232"/>
      <point x="245" y="147" type="curve"/>
      <point x="245" y="100" type="line"/>
      <point x="485" y="19" type="line" smooth="yes"/>
      <point x="523" y="6"/>
      <point x="556" y="-1"/>
    </contour>
    <contour>
      <point x="843" y="0" type="line"/>
      <point x="974" y="0" type="line"/>
      <point x="974" y="149" type="line" smooth="yes"/>
      <point x="974" y="269"/>
      <point x="911" y="332"/>
      <point x="791" y="332" type="curve" smooth="yes"/>
      <point x="442" y="332" type="line"/>
      <point x="438" y="229" type="line"/>
      <point x="782" y="229" type="line" smooth="yes"/>
      <point x="822" y="229"/>
      <point x="843" y="204"/>
      <point x="843" y="151" type="curve" smooth="yes"/>
    </contour>
  </outline>
</glyph>
<glyph name="ma" format="2">
  <advance width="1133"/>
  <unicode hex="A9A9"/>
  <note>
ma
</note>
  <outline>
    <contour>
      <point x="280" y="0" type="curve"/>
      <point x="299" y="93" type="line"/>
      <point x="239" y="101"/>
      <point x="209" y="129"/>
      <point x="209" y="178" type="curve" smooth="yes"/>
      <point x="209" y="344" type="line" smooth="yes"/>
      <point x="209" y="393"/>
      <point x="241" y="421"/>
      <point x="292" y="421" type="curve" smooth="yes"/>
      <point x="371" y="421" type="line"/>
      <point x="353" y="408"/>
      <point x="344" y="391"/>
      <point x="344" y="371" type="curve" smooth="yes"/>
      <point x="344" y="323"/>
      <point x="377" y="294"/>
      <point x="433" y="282" type="curve"/>
      <point x="433" y="277" type="line"/>
      <point x="360" y="252"/>
      <point x="323" y="208"/>
      <point x="323" y="146" type="curve" smooth="yes"/>
      <point x="323" y="43"/>
      <point x="410" y="0"/>
      <point x="524" y="0" type="curve" smooth="yes"/>
      <point x="604" y="0" type="line" smooth="yes"/>
      <point x="741" y="0"/>
      <point x="809" y="63"/>
      <point x="809" y="187" type="curve" smooth="yes"/>
      <point x="809" y="347" type="line" smooth="yes"/>
      <point x="809" y="396"/>
      <point x="833" y="421"/>
      <point x="881" y="421" type="curve" smooth="yes"/>
      <point x="929" y="421"/>
      <point x="953" y="397"/>
      <point x="953" y="350" type="curve" smooth="yes"/>
      <point x="953" y="0" type="line"/>
      <point x="1084" y="0" type="line"/>
      <point x="1084" y="349" type="line" smooth="yes"/>
      <point x="1084" y="480"/>
      <point x="1017" y="546"/>
      <point x="881" y="546" type="curve" smooth="yes"/>
      <point x="746" y="546"/>
      <point x="678" y="479"/>
      <point x="678" y="344" type="curve" smooth="yes"/>
      <point x="678" y="190" type="line" smooth="yes"/>
      <point x="678" y="145"/>
      <point x="655" y="122"/>
      <point x="609" y="122" type="curve" smooth="yes"/>
      <point x="534" y="122" type="line" smooth="yes"/>
      <point x="485" y="122"/>
      <point x="460" y="139"/>
      <point x="460" y="173" type="curve" smooth="yes"/>
      <point x="460" y="207"/>
      <point x="484" y="224"/>
      <point x="533" y="224" type="curve" smooth="yes"/>
      <point x="616" y="224" type="line"/>
      <point x="616" y="334" type="line"/>
      <point x="545" y="334" type="line" smooth="yes"/>
      <point x="505" y="334"/>
      <point x="485" y="350"/>
      <point x="485" y="379" type="curve" smooth="yes"/>
      <point x="485" y="409"/>
      <point x="506" y="426"/>
      <point x="545" y="426" type="curve" smooth="yes"/>
      <point x="619" y="426" type="line"/>
      <point x="619" y="546" type="line"/>
      <point x="287" y="546" type="line" smooth="yes"/>
      <point x="149" y="546"/>
      <point x="78" y="493"/>
      <point x="78" y="392" type="curve" smooth="yes"/>
      <point x="78" y="173" type="line" smooth="yes"/>
      <point x="78" y="64"/>
      <point x="146" y="6"/>
    </contour>
  </outline>
</glyph>
<glyph name="ya" format="2">
  <advance width="1608"/>
  <unicode hex="A9AA"/>
  <note>
ya
</note>
  <outline>
    <contour>
      <point x="280" y="0" type="curve"/>
      <point x="299" y="93" type="line"/>
      <point x="239" y="101"/>
      <point x="209" y="129"/>
      <point x="209" y="178" type="curve" smooth="yes"/>
      <point x="209" y="347" type="line" smooth="yes"/>
      <point x="209" y="396"/>
      <point x="234" y="421"/>
      <point x="282" y="421" type="curve" smooth="yes"/>
      <point x="330" y="421"/>
      <point x="354" y="397"/>
      <point x="354" y="350" type="curve" smooth="yes"/>
      <point x="354" y="187" type="line" smooth="yes"/>
      <point x="354" y="63"/>
      <point x="419" y="1"/>
      <point x="550" y="1" type="curve" smooth="yes"/>
      <point x="550" y="1" type="line" smooth="yes"/>
      <point x="681" y="1"/>
      <point x="746" y="63"/>
      <point x="746" y="187" type="curve" smooth="yes"/>
      <point x="746" y="347" type="line" smooth="yes"/>
      <point x="746" y="396"/>
      <point x="771" y="421"/>
      <point x="819" y="421" type="curve" smooth="yes"/>
      <point x="867" y="421"/>
      <point x="891" y="397"/>
      <point x="891" y="350" type="curve" smooth="yes"/>
      <point x="891" y="187" type="line" smooth="yes"/>
      <point x="891" y="63"/>
      <point x="956" y="1"/>
      <point x="1087" y="1" type="curve" smooth="yes"/>
      <point x="1087" y="1" type="line" smooth="yes"/>
      <point x="1218" y="1"/>
      <point x="1283" y="63"/>
      <point x="1283" y="187" type="curve" smooth="yes"/>
      <point x="1283" y="347" type="line" smooth="yes"/>
      <point x="1283" y="396"/>
      <point x="1308" y="421"/>
      <point x="1356" y="421" type="curve" smooth="yes"/>
      <point x="1404" y="421"/>
      <point x="1428" y="397"/>
      <point x="1428" y="350" type="curve" smooth="yes"/>
      <point x="1428" y="0" type="line"/>
      <point x="1559" y="0" type="line"/>
      <point x="1559" y="349" type="line" smooth="yes"/>
      <point x="1559" y="480"/>
      <point x="1491" y="546"/>
      <point x="1356" y="546" type="curve" smooth="yes"/>
      <point x="1221" y="546"/>
      <point x="1152" y="479"/>
      <point x="1152" y="344" type="curve" smooth="yes"/>
      <point x="1152" y="190" type="line" smooth="yes"/>
      <point x="1152" y="145"/>
      <point x="1130" y="122"/>
      <point x="1087" y="122" type="curve" smooth="yes"/>
      <point x="1087" y="122" type="line" smooth="yes"/>
      <point x="1043" y="122"/>
      <point x="1021" y="145"/>
      <point x="1021" y="190" type="curve" smooth="yes"/>
      <point x="1021" y="349" type="line" smooth="yes"/>
      <point x="1021" y="480"/>
      <point x="954" y="546"/>
      <point x="819" y="546" type="curve" smooth="yes"/>
      <point x="684" y="546"/>
      <point x="615" y="479"/>
      <point x="615" y="344" type="curve" smooth="yes"/>
      <point x="615" y="190" type="line" smooth="yes"/>
      <point x="615" y="145"/>
      <point x="593" y="122"/>
      <point x="550" y="122" type="curve" smooth="yes"/>
      <point x="550" y="122" type="line" smooth="yes"/>
      <point x="506" y="122"/>
      <point x="484" y="145"/>
      <point x="484" y="190" type="curve" smooth="yes"/>
      <point x="484" y="349" type="line" smooth="yes"/>
      <point x="484" y="480"/>
      <point x="417" y="546"/>
      <point x="282" y="546" type="curve" smooth="yes"/>
      <point x="146" y="546"/>
      <point x="78" y="479"/>
      <point x="78" y="344" type="curve" smooth="yes"/>
      <point x="78" y="173" type="line" smooth="yes"/>
      <point x="78" y="60"/>
      <point x="154" y="5"/>
    </contour>
  </outline>
</glyph>
<glyph name="ra" format="2">
  <advance width="1102"/>
  <unicode hex="A9AB"/>
  <note>
ra
</note>
  <outline>
    <contour>
      <point x="554" y="-1" type="curve" smooth="yes"/>
      <point x="635" y="-1"/>
      <point x="685" y="30"/>
      <point x="685" y="104" type="curve" smooth="yes"/>
      <point x="685" y="313" type="line" smooth="yes"/>
      <point x="685" y="385"/>
      <point x="725" y="421"/>
      <point x="804" y="421" type="curve" smooth="yes"/>
      <point x="882" y="421"/>
      <point x="922" y="386"/>
      <point x="922" y="316" type="curve" smooth="yes"/>
      <point x="922" y="0" type="line"/>
      <point x="1053" y="0" type="line"/>
      <point x="1053" y="305" type="line" smooth="yes"/>
      <point x="1053" y="466"/>
      <point x="971" y="546"/>
      <point x="806" y="546" type="curve" smooth="yes"/>
      <point x="639" y="546"/>
      <point x="554" y="464"/>
      <point x="554" y="300" type="curve" smooth="yes"/>
      <point x="554" y="156" type="line" smooth="yes"/>
      <point x="554" y="137"/>
      <point x="543" y="126"/>
      <point x="524" y="126" type="curve" smooth="yes"/>
      <point x="520" y="126"/>
      <point x="516" y="127"/>
      <point x="511" y="129" type="curve" smooth="yes"/>
      <point x="370" y="173" type="line"/>
      <point x="441" y="229"/>
      <point x="478" y="302"/>
      <point x="478" y="393" type="curve" smooth="yes"/>
      <point x="478" y="494"/>
      <point x="422" y="546"/>
      <point x="313" y="546" type="curve" smooth="yes"/>
      <point x="42" y="546" type="line"/>
      <point x="24" y="516" type="line"/>
      <point x="145" y="327" type="line"/>
      <point x="234" y="327" type="line"/>
      <point x="177" y="424" type="line"/>
      <point x="278" y="424" type="line" smooth="yes"/>
      <point x="321" y="424"/>
      <point x="343" y="405"/>
      <point x="343" y="367" type="curve" smooth="yes"/>
      <point x="343" y="361" type="line" smooth="yes"/>
      <point x="343" y="282"/>
      <point x="283" y="214"/>
      <point x="168" y="162" type="curve"/>
      <point x="168" y="114" type="line"/>
      <point x="457" y="19" type="line" smooth="yes"/>
      <point x="496" y="6"/>
      <point x="526" y="-1"/>
    </contour>
  </outline>
</glyph>
<glyph name="raagung" format="2">
  <advance width="1689"/>
  <unicode hex="A9AC"/>
  <note>
raagung
</note>
  <outline>
    <contour>
      <point x="349" y="0" type="line"/>
      <point x="479" y="0" type="line"/>
      <point x="479" y="342" type="line" smooth="yes"/>
      <point x="479" y="398"/>
      <point x="508" y="426"/>
      <point x="562" y="426" type="curve" smooth="yes"/>
      <point x="616" y="426"/>
      <point x="644" y="399"/>
      <point x="644" y="345" type="curve" smooth="yes"/>
      <point x="644" y="0" type="line"/>
      <point x="774" y="0" type="line"/>
      <point x="774" y="342" type="line" smooth="yes"/>
      <point x="774" y="398"/>
      <point x="803" y="426"/>
      <point x="857" y="426" type="curve" smooth="yes"/>
      <point x="911" y="426"/>
      <point x="938" y="399"/>
      <point x="938" y="345" type="curve" smooth="yes"/>
      <point x="938" y="0" type="line"/>
      <point x="1069" y="0" type="line"/>
      <point x="1069" y="342" type="line" smooth="yes"/>
      <point x="1069" y="398"/>
      <point x="1098" y="426"/>
      <point x="1154" y="426" type="curve" smooth="yes"/>
      <point x="1210" y="426"/>
      <point x="1238" y="399"/>
      <point x="1238" y="345" type="curve" smooth="yes"/>
      <point x="1238" y="203" type="line" smooth="yes"/>
      <point x="1238" y="68"/>
      <point x="1306" y="1"/>
      <point x="1441" y="1" type="curve" smooth="yes"/>
      <point x="1573" y="1"/>
      <point x="1640" y="70"/>
      <point x="1640" y="208" type="curve" smooth="yes"/>
      <point x="1640" y="583" type="line" smooth="yes"/>
      <point x="1640" y="721"/>
      <point x="1578" y="790"/>
      <point x="1456" y="790" type="curve" smooth="yes"/>
      <point x="1365" y="790"/>
      <point x="1304" y="732"/>
      <point x="1304" y="645" type="curve" smooth="yes"/>
      <point x="1304" y="547"/>
      <point x="1390" y="502"/>
      <point x="1509" y="489" type="curve"/>
      <point x="1509" y="205" type="line" smooth="yes"/>
      <point x="1509" y="152"/>
      <point x="1485" y="125"/>
      <point x="1438" y="125" type="curve" smooth="yes"/>
      <point x="1392" y="125"/>
      <point x="1369" y="151"/>
      <point x="1369" y="202" type="curve" smooth="yes"/>
      <point x="1369" y="354" type="line" smooth="yes"/>
      <point x="1369" y="482"/>
      <point x="1302" y="546"/>
      <point x="1167" y="546" type="curve" smooth="yes"/>
      <point x="1091" y="546"/>
      <point x="1038" y="518"/>
      <point x="1007" y="463" type="curve"/>
      <point x="976" y="518"/>
      <point x="926" y="546"/>
      <point x="857" y="546" type="curve" smooth="yes"/>
      <point x="791" y="546"/>
      <point x="743" y="519"/>
      <point x="711" y="464" type="curve"/>
      <point x="680" y="519"/>
      <point x="630" y="546"/>
      <point x="562" y="546" type="curve" smooth="yes"/>
      <point x="496" y="546"/>
      <point x="447" y="518"/>
      <point x="416" y="463" type="curve"/>
      <point x="384" y="518"/>
      <point x="330" y="546"/>
      <point x="252" y="546" type="curve" smooth="yes"/>
      <point x="136" y="546"/>
      <point x="59" y="476"/>
      <point x="59" y="343" type="curve" smooth="yes"/>
      <point x="59" y="224"/>
      <point x="145" y="165"/>
      <point x="255" y="146" type="curve"/>
      <point x="273" y="244" type="line"/>
      <point x="214" y="257"/>
      <point x="185" y="290"/>
      <point x="185" y="342" type="curve" smooth="yes"/>
      <point x="185" y="398"/>
      <point x="213" y="426"/>
      <point x="267" y="426" type="curve" smooth="yes"/>
      <point x="321" y="426"/>
      <point x="349" y="399"/>
      <point x="349" y="345" type="curve" smooth="yes"/>
    </contour>
    <contour>
      <point x="1514" y="608" type="line"/>
      <point x="1454" y="615"/>
      <point x="1424" y="630"/>
      <point x="1424" y="652" type="curve" smooth="yes"/>
      <point x="1424" y="669"/>
      <point x="1436" y="678"/>
      <point x="1457" y="678" type="curve" smooth="yes"/>
      <point x="1493" y="678"/>
      <point x="1514" y="657"/>
      <point x="1514" y="619" type="curve" smooth="yes"/>
    </contour>
  </outline>
</glyph>
<glyph name="la" format="2">
  <advance width="1375"/>
  <unicode hex="A9AD"/>
  <note>
la
</note>
  <outline>
    <contour>
      <point x="280" y="0" type="curve"/>
      <point x="299" y="93" type="line"/>
      <point x="239" y="101"/>
      <point x="209" y="129"/>
      <point x="209" y="178" type="curve" smooth="yes"/>
      <point x="209" y="347" type="line" smooth="yes"/>
      <point x="209" y="400"/>
      <point x="233" y="426"/>
      <point x="279" y="426" type="curve" smooth="yes"/>
      <point x="326" y="426"/>
      <point x="349" y="401"/>
      <point x="349" y="350" type="curve" smooth="yes"/>
      <point x="349" y="0" type="line"/>
      <point x="479" y="0" type="line"/>
      <point x="479" y="347" type="line" smooth="yes"/>
      <point x="479" y="400"/>
      <point x="503" y="426"/>
      <point x="547" y="426" type="curve" smooth="yes"/>
      <point x="592" y="426"/>
      <point x="614" y="401"/>
      <point x="614" y="350" type="curve" smooth="yes"/>
      <point x="614" y="192" type="line" smooth="yes"/>
      <point x="614" y="65"/>
      <point x="682" y="0"/>
      <point x="818" y="0" type="curve" smooth="yes"/>
      <point x="852" y="0" type="line" smooth="yes"/>
      <point x="988" y="0"/>
      <point x="1056" y="65"/>
      <point x="1056" y="192" type="curve" smooth="yes"/>
      <point x="1056" y="347" type="line" smooth="yes"/>
      <point x="1056" y="400"/>
      <point x="1080" y="426"/>
      <point x="1126" y="426" type="curve" smooth="yes"/>
      <point x="1172" y="426"/>
      <point x="1195" y="401"/>
      <point x="1195" y="350" type="curve" smooth="yes"/>
      <point x="1195" y="0" type="line"/>
      <point x="1326" y="0" type="line"/>
      <point x="1326" y="349" type="line" smooth="yes"/>
      <point x="1326" y="480"/>
      <point x="1259" y="546"/>
      <point x="1124" y="546" type="curve" smooth="yes"/>
      <point x="992" y="546"/>
      <point x="925" y="479"/>
      <point x="925" y="344" type="curve" smooth="yes"/>
      <point x="925" y="190" type="line" smooth="yes"/>
      <point x="925" y="145"/>
      <point x="902" y="122"/>
      <point x="856" y="122" type="curve" smooth="yes"/>
      <point x="813" y="122" type="line" smooth="yes"/>
      <point x="768" y="122"/>
      <point x="745" y="145"/>
      <point x="745" y="190" type="curve" smooth="yes"/>
      <point x="745" y="349" type="line" smooth="yes"/>
      <point x="745" y="480"/>
      <point x="686" y="546"/>
      <point x="567" y="546" type="curve" smooth="yes"/>
      <point x="499" y="546"/>
      <point x="448" y="521"/>
      <point x="415" y="469" type="curve"/>
      <point x="382" y="521"/>
      <point x="331" y="546"/>
      <point x="262" y="546" type="curve" smooth="yes"/>
      <point x="140" y="546"/>
      <point x="78" y="479"/>
      <point x="78" y="344" type="curve" smooth="yes"/>
      <point x="78" y="173" type="line" smooth="yes"/>
      <point x="78" y="61"/>
      <point x="152" y="6"/>
    </contour>
  </outline>
</glyph>
<glyph name="wa" format="2">
  <advance width="1162"/>
  <unicode hex="A9AE"/>
  <note>
wa
</note>
  <outline>
    <contour>
      <point x="280" y="0" type="curve"/>
      <point x="299" y="93" type="line"/>
      <point x="239" y="101"/>
      <point x="209" y="129"/>
      <point x="209" y="178" type="curve" smooth="yes"/>
      <point x="209" y="347" type="line" smooth="yes"/>
      <point x="209" y="396"/>
      <point x="234" y="421"/>
      <point x="282" y="421" type="curve" smooth="yes"/>
      <point x="330" y="421"/>
      <point x="354" y="397"/>
      <point x="354" y="350" type="curve" smooth="yes"/>
      <point x="354" y="192" type="line" smooth="yes"/>
      <point x="354" y="65"/>
      <point x="417" y="0"/>
      <point x="543" y="0" type="curve" smooth="yes"/>
      <point x="688" y="0" type="line" smooth="yes"/>
      <point x="818" y="0"/>
      <point x="883" y="73"/>
      <point x="883" y="217" type="curve" smooth="yes"/>
      <point x="883" y="217" type="line" smooth="yes"/>
      <point x="883" y="327"/>
      <point x="849" y="396"/>
      <point x="781" y="421" type="curve"/>
      <point x="895" y="421" type="line" smooth="yes"/>
      <point x="953" y="421"/>
      <point x="982" y="395"/>
      <point x="982" y="342" type="curve" smooth="yes"/>
      <point x="982" y="0" type="line"/>
      <point x="1113" y="0" type="line"/>
      <point x="1113" y="393" type="line" smooth="yes"/>
      <point x="1113" y="495"/>
      <point x="1043" y="546"/>
      <point x="905" y="546" type="curve" smooth="yes"/>
      <point x="601" y="546" type="line"/>
      <point x="601" y="425" type="line"/>
      <point x="705" y="419"/>
      <point x="757" y="354"/>
      <point x="757" y="228" type="curve" smooth="yes"/>
      <point x="757" y="228" type="line" smooth="yes"/>
      <point x="757" y="157"/>
      <point x="736" y="122"/>
      <point x="693" y="122" type="curve" smooth="yes"/>
      <point x="543" y="122" type="line" smooth="yes"/>
      <point x="504" y="122"/>
      <point x="484" y="145"/>
      <point x="484" y="190" type="curve" smooth="yes"/>
      <point x="484" y="349" type="line" smooth="yes"/>
      <point x="484" y="480"/>
      <point x="417" y="546"/>
      <point x="282" y="546" type="curve" smooth="yes"/>
      <point x="146" y="546"/>
      <point x="78" y="479"/>
      <point x="78" y="344" type="curve" smooth="yes"/>
      <point x="78" y="173" type="line" smooth="yes"/>
      <point x="78" y="61"/>
      <point x="152" y="6"/>
    </contour>
  </outline>
</glyph>
<glyph name="sha" format="2">
  <advance width="1123"/>
  <unicode hex="A9AF"/>
  <note>
sha
</note>
  <outline>
    <contour>
      <point x="349" y="0" type="line"/>
      <point x="479" y="0" type="line"/>
      <point x="479" y="215" type="line"/>
      <point x="644" y="215" type="line"/>
      <point x="644" y="0" type="line"/>
      <point x="774" y="0" type="line"/>
      <point x="774" y="215" type="line"/>
      <point x="829" y="215" type="line" smooth="yes"/>
      <point x="905" y="215"/>
      <point x="943" y="177"/>
      <point x="943" y="103" type="curve" smooth="yes"/>
      <point x="943" y="0" type="line"/>
      <point x="1074" y="0" type="line"/>
      <point x="1074" y="354" type="line" smooth="yes"/>
      <point x="1074" y="482"/>
      <point x="1007" y="546"/>
      <point x="872" y="546" type="curve" smooth="yes"/>
      <point x="796" y="546"/>
      <point x="743" y="518"/>
      <point x="712" y="463" type="curve"/>
      <point x="681" y="518"/>
      <point x="631" y="546"/>
      <point x="562" y="546" type="curve" smooth="yes"/>
      <point x="496" y="546"/>
      <point x="447" y="518"/>
      <point x="416" y="463" type="curve"/>
      <point x="384" y="518"/>
      <point x="329" y="546"/>
      <point x="252" y="546" type="curve" smooth="yes"/>
      <point x="136" y="546"/>
      <point x="59" y="473"/>
      <point x="59" y="349" type="curve" smooth="yes"/>
      <point x="59" y="231"/>
      <point x="139" y="164"/>
      <point x="255" y="146" type="curve"/>
      <point x="273" y="244" type="line"/>
      <point x="214" y="257"/>
      <point x="185" y="290"/>
      <point x="185" y="342" type="curve" smooth="yes"/>
      <point x="185" y="398"/>
      <point x="212" y="426"/>
      <point x="267" y="426" type="curve" smooth="yes"/>
      <point x="321" y="426"/>
      <point x="349" y="399"/>
      <point x="349" y="345" type="curve" smooth="yes"/>
    </contour>
    <contour>
      <point x="479" y="317" type="line"/>
      <point x="479" y="341" type="line" smooth="yes"/>
      <point x="479" y="397"/>
      <point x="507" y="426"/>
      <point x="562" y="426" type="curve" smooth="yes"/>
      <point x="616" y="426"/>
      <point x="644" y="399"/>
      <point x="644" y="345" type="curve" smooth="yes"/>
      <point x="644" y="317" type="line"/>
    </contour>
    <contour>
      <point x="943" y="249" type="line"/>
      <point x="921" y="294"/>
      <point x="886" y="317"/>
      <point x="838" y="317" type="curve" smooth="yes"/>
      <point x="774" y="317" type="line"/>
      <point x="774" y="341" type="line" smooth="yes"/>
      <point x="774" y="397"/>
      <point x="803" y="426"/>
      <point x="859" y="426" type="curve" smooth="yes"/>
      <point x="916" y="426"/>
      <point x="943" y="399"/>
      <point x="943" y="345" type="curve" smooth="yes"/>
    </contour>
  </outline>
</glyph>
<glyph name="ssa" format="2">
  <advance width="1158"/>
  <unicode hex="A9B0"/>
  <note>
ssa
</note>
  <outline>
    <contour>
      <point x="280" y="0" type="curve"/>
      <point x="299" y="93" type="line"/>
      <point x="239" y="101"/>
      <point x="209" y="129"/>
      <point x="209" y="178" type="curve" smooth="yes"/>
      <point x="209" y="347" type="line" smooth="yes"/>
      <point x="209" y="396"/>
      <point x="234" y="421"/>
      <point x="282" y="421" type="curve" smooth="yes"/>
      <point x="330" y="421"/>
      <point x="354" y="397"/>
      <point x="354" y="350" type="curve" smooth="yes"/>
      <point x="354" y="187" type="line" smooth="yes"/>
      <point x="354" y="63"/>
      <point x="421" y="0"/>
      <point x="558" y="0" type="curve" smooth="yes"/>
      <point x="630" y="0" type="line" smooth="yes"/>
      <point x="766" y="0"/>
      <point x="834" y="63"/>
      <point x="834" y="187" type="curve" smooth="yes"/>
      <point x="834" y="215" type="line"/>
      <point x="859" y="215" type="line"/>
      <point x="938" y="202"/>
      <point x="979" y="164"/>
      <point x="979" y="103" type="curve" smooth="yes"/>
      <point x="979" y="0" type="line"/>
      <point x="1109" y="0" type="line"/>
      <point x="1109" y="349" type="line" smooth="yes"/>
      <point x="1109" y="480"/>
      <point x="1042" y="546"/>
      <point x="907" y="546" type="curve" smooth="yes"/>
      <point x="771" y="546"/>
      <point x="703" y="478"/>
      <point x="703" y="343" type="curve" smooth="yes"/>
      <point x="703" y="317" type="line"/>
      <point x="646" y="317" type="line"/>
      <point x="683" y="404" type="line"/>
      <point x="599" y="404" type="line"/>
      <point x="522" y="245" type="line"/>
      <point x="540" y="215" type="line"/>
      <point x="703" y="215" type="line"/>
      <point x="703" y="190" type="line" smooth="yes"/>
      <point x="703" y="145"/>
      <point x="680" y="122"/>
      <point x="635" y="122" type="curve" smooth="yes"/>
      <point x="553" y="122" type="line" smooth="yes"/>
      <point x="507" y="122"/>
      <point x="484" y="145"/>
      <point x="484" y="190" type="curve" smooth="yes"/>
      <point x="484" y="349" type="line" smooth="yes"/>
      <point x="484" y="480"/>
      <point x="417" y="546"/>
      <point x="282" y="546" type="curve" smooth="yes"/>
      <point x="146" y="546"/>
      <point x="78" y="479"/>
      <point x="78" y="344" type="curve" smooth="yes"/>
      <point x="78" y="173" type="line" smooth="yes"/>
      <point x="78" y="61"/>
      <point x="152" y="6"/>
    </contour>
    <contour>
      <point x="979" y="247" type="line"/>
      <point x="956" y="293"/>
      <point x="919" y="317"/>
      <point x="869" y="317" type="curve" smooth="yes"/>
      <point x="834" y="317" type="line"/>
      <point x="834" y="347" type="line" smooth="yes"/>
      <point x="834" y="396"/>
      <point x="859" y="421"/>
      <point x="907" y="421" type="curve" smooth="yes"/>
      <point x="955" y="421"/>
      <point x="979" y="397"/>
      <point x="979" y="350" type="curve" smooth="yes"/>
    </contour>
  </outline>
</glyph>
<glyph name="sa" format="2">
  <advance width="1292"/>
  <unicode hex="A9B1"/>
  <note>
sa
</note>
  <outline>
    <contour>
      <point x="280" y="0" type="curve"/>
      <point x="299" y="93" type="line"/>
      <point x="242" y="101"/>
      <point x="214" y="129"/>
      <point x="214" y="178" type="curve" smooth="yes"/>
      <point x="214" y="277" type="line" smooth="yes"/>
      <point x="214" y="373"/>
      <point x="266" y="421"/>
      <point x="369" y="421" type="curve" smooth="yes"/>
      <point x="475" y="421"/>
      <point x="528" y="373"/>
      <point x="528" y="277" type="curve" smooth="yes"/>
      <point x="528" y="271" type="line"/>
      <point x="510" y="273"/>
      <point x="496" y="274"/>
      <point x="485" y="274" type="curve" smooth="yes"/>
      <point x="437" y="274"/>
      <point x="398" y="262"/>
      <point x="371" y="238" type="curve" smooth="yes"/>
      <point x="343" y="214"/>
      <point x="329" y="180"/>
      <point x="329" y="137" type="curve" smooth="yes"/>
      <point x="329" y="46"/>
      <point x="394" y="0"/>
      <point x="485" y="0" type="curve" smooth="yes"/>
      <point x="584" y="0"/>
      <point x="654" y="37"/>
      <point x="659" y="125" type="curve"/>
      <point x="723" y="64" type="line" smooth="yes"/>
      <point x="769" y="21"/>
      <point x="811" y="-1"/>
      <point x="854" y="-1" type="curve" smooth="yes"/>
      <point x="927" y="-1"/>
      <point x="968" y="43"/>
      <point x="968" y="123" type="curve" smooth="yes"/>
      <point x="968" y="347" type="line" smooth="yes"/>
      <point x="968" y="396"/>
      <point x="993" y="421"/>
      <point x="1041" y="421" type="curve" smooth="yes"/>
      <point x="1088" y="421"/>
      <point x="1112" y="397"/>
      <point x="1112" y="350" type="curve" smooth="yes"/>
      <point x="1112" y="0" type="line"/>
      <point x="1243" y="0" type="line"/>
      <point x="1243" y="349" type="line" smooth="yes"/>
      <point x="1243" y="480"/>
      <point x="1176" y="546"/>
      <point x="1041" y="546" type="curve" smooth="yes"/>
      <point x="905" y="546"/>
      <point x="837" y="479"/>
      <point x="837" y="344" type="curve" smooth="yes"/>
      <point x="837" y="161" type="line" smooth="yes"/>
      <point x="837" y="135"/>
      <point x="828" y="121"/>
      <point x="811" y="121" type="curve" smooth="yes"/>
      <point x="801" y="121"/>
      <point x="790" y="127"/>
      <point x="777" y="140" type="curve" smooth="yes"/>
      <point x="660" y="253" type="line"/>
      <point x="660" y="277" type="line" smooth="yes"/>
      <point x="660" y="456"/>
      <point x="563" y="546"/>
      <point x="369" y="546" type="curve" smooth="yes"/>
      <point x="175" y="546"/>
      <point x="78" y="456"/>
      <point x="78" y="276" type="curve" smooth="yes"/>
      <point x="78" y="173" type="line" smooth="yes"/>
      <point x="78" y="61"/>
      <point x="152" y="5"/>
    </contour>
    <contour>
      <point x="487" y="95" type="curve" smooth="yes"/>
      <point x="458" y="95"/>
      <point x="444" y="109"/>
      <point x="444" y="136" type="curve" smooth="yes"/>
      <point x="444" y="169"/>
      <point x="460" y="186"/>
      <point x="491" y="186" type="curve" smooth="yes"/>
      <point x="500" y="186"/>
      <point x="512" y="185"/>
      <point x="529" y="182" type="curve"/>
      <point x="529" y="141" type="line" smooth="yes"/>
      <point x="529" y="110"/>
      <point x="515" y="95"/>
    </contour>
  </outline>
</glyph>
<glyph name="ha" format="2">
  <advance width="1385"/>
  <unicode hex="A9B2"/>
  <note>
ha
</note>
  <outline>
    <contour>
      <point x="280" y="0" type="curve"/>
      <point x="299" y="93" type="line"/>
      <point x="239" y="101"/>
      <point x="209" y="129"/>
      <point x="209" y="178" type="curve" smooth="yes"/>
      <point x="209" y="347" type="line" smooth="yes"/>
      <point x="209" y="400"/>
      <point x="234" y="426"/>
      <point x="282" y="426" type="curve" smooth="yes"/>
      <point x="330" y="426"/>
      <point x="354" y="401"/>
      <point x="354" y="350" type="curve" smooth="yes"/>
      <point x="354" y="192" type="line" smooth="yes"/>
      <point x="354" y="65"/>
      <point x="421" y="0"/>
      <point x="558" y="0" type="curve" smooth="yes"/>
      <point x="591" y="0" type="line" smooth="yes"/>
      <point x="727" y="0"/>
      <point x="795" y="65"/>
      <point x="795" y="192" type="curve" smooth="yes"/>
      <point x="795" y="347" type="line" smooth="yes"/>
      <point x="795" y="400"/>
      <point x="820" y="426"/>
      <point x="868" y="426" type="curve" smooth="yes"/>
      <point x="912" y="426"/>
      <point x="935" y="401"/>
      <point x="935" y="350" type="curve" smooth="yes"/>
      <point x="935" y="0" type="line"/>
      <point x="1065" y="0" type="line"/>
      <point x="1065" y="347" type="line" smooth="yes"/>
      <point x="1065" y="400"/>
      <point x="1089" y="426"/>
      <point x="1133" y="426" type="curve" smooth="yes"/>
      <point x="1181" y="426"/>
      <point x="1205" y="401"/>
      <point x="1205" y="350" type="curve" smooth="yes"/>
      <point x="1205" y="0" type="line"/>
      <point x="1336" y="0" type="line"/>
      <point x="1336" y="349" type="line" smooth="yes"/>
      <point x="1336" y="480"/>
      <point x="1275" y="546"/>
      <point x="1153" y="546" type="curve" smooth="yes"/>
      <point x="1085" y="546"/>
      <point x="1034" y="522"/>
      <point x="1001" y="474" type="curve"/>
      <point x="968" y="522"/>
      <point x="917" y="546"/>
      <point x="848" y="546" type="curve" smooth="yes"/>
      <point x="726" y="546"/>
      <point x="664" y="479"/>
      <point x="664" y="344" type="curve" smooth="yes"/>
      <point x="664" y="190" type="line" smooth="yes"/>
      <point x="664" y="145"/>
      <point x="640" y="122"/>
      <point x="591" y="122" type="curve" smooth="yes"/>
      <point x="558" y="122" type="line" smooth="yes"/>
      <point x="509" y="122"/>
      <point x="484" y="145"/>
      <point x="484" y="190" type="curve" smooth="yes"/>
      <point x="484" y="349" type="line" smooth="yes"/>
      <point x="484" y="480"/>
      <point x="417" y="546"/>
      <point x="282" y="546" type="curve" smooth="yes"/>
      <point x="146" y="546"/>
      <point x="78" y="478"/>
      <point x="78" y="343" type="curve" smooth="yes"/>
      <point x="78" y="173" type="line" smooth="yes"/>
      <point x="78" y="61"/>
      <point x="152" y="6"/>
    </contour>
  </outline>
</glyph>
<glyph name="cecaktelu.ns" format="2">
  <unicode hex="A9B3"/>
  <note>
cecaktelu.ns
</note>
  <outline>
    <contour>
      <point x="-339" y="729" type="curve" smooth="yes"/>
      <point x="-313" y="729"/>
      <point x="-293" y="751"/>
      <point x="-293" y="774" type="curve" smooth="yes"/>
      <point x="-293" y="799"/>
      <point x="-315" y="819"/>
      <point x="-339" y="819" type="curve" smooth="yes"/>
      <point x="-361" y="819"/>
      <point x="-384" y="802"/>
      <point x="-384" y="774" type="curve" smooth="yes"/>
      <point x="-384" y="752"/>
      <point x="-367" y="729"/>
    </contour>
    <contour>
      <point x="-399" y="625" type="curve" smooth="yes"/>
      <point x="-375" y="625"/>
      <point x="-354" y="645"/>
      <point x="-354" y="670" type="curve" smooth="yes"/>
      <point x="-354" y="690"/>
      <point x="-372" y="714"/>
      <point x="-399" y="714" type="curve" smooth="yes"/>
      <point x="-425" y="714"/>
      <point x="-445" y="695"/>
      <point x="-445" y="670" type="curve" smooth="yes"/>
      <point x="-445" y="644"/>
      <point x="-425" y="625"/>
    </contour>
    <contour>
      <point x="-278" y="625" type="curve" smooth="yes"/>
      <point x="-253" y="625"/>
      <point x="-232" y="645"/>
      <point x="-232" y="670" type="curve" smooth="yes"/>
      <point x="-232" y="691"/>
      <point x="-250" y="714"/>
      <point x="-278" y="714" type="curve" smooth="yes"/>
      <point x="-303" y="714"/>
      <point x="-323" y="694"/>
      <point x="-323" y="670" type="curve" smooth="yes"/>
      <point x="-323" y="644"/>
      <point x="-303" y="625"/>
    </contour>
  </outline>
</glyph>
<glyph name="tarung" format="2">
  <advance width="534"/>
  <unicode hex="A9B4"/>
  <note>
tarung
</note>
  <outline>
    <contour>
      <point x="91" y="0" type="line"/>
      <point x="330" y="0" type="line" smooth="yes"/>
      <point x="446" y="0"/>
      <point x="504" y="52"/>
      <point x="504" y="153" type="curve" smooth="yes"/>
      <point x="504" y="199" type="line"/>
      <point x="408" y="199" type="line"/>
      <point x="408" y="156" type="line" smooth="yes"/>
      <point x="408" y="130"/>
      <point x="393" y="117"/>
      <point x="364" y="117" type="curve" smooth="yes"/>
      <point x="258" y="117" type="line"/>
      <point x="366" y="214" type="line" smooth="yes"/>
      <point x="431" y="273"/>
      <point x="465" y="332"/>
      <point x="465" y="398" type="curve" smooth="yes"/>
      <point x="465" y="498"/>
      <point x="403" y="552"/>
      <point x="283" y="552" type="curve" smooth="yes"/>
      <point x="186" y="552"/>
      <point x="118" y="502"/>
      <point x="78" y="404" type="curve"/>
      <point x="160" y="354" type="line"/>
      <point x="188" y="404"/>
      <point x="221" y="429"/>
      <point x="260" y="429" type="curve" smooth="yes"/>
      <point x="302" y="429"/>
      <point x="323" y="413"/>
      <point x="323" y="380" type="curve" smooth="yes"/>
      <point x="323" y="347"/>
      <point x="307" y="318"/>
      <point x="270" y="282" type="curve" smooth="yes"/>
      <point x="82" y="101" type="line"/>
    </contour>
  </outline>
</glyph>
<glyph name="tolong" format="2">
  <advance width="439"/>
  <unicode hex="A9B5"/>
  <note>
tolong
</note>
  <outline>
    <contour>
      <point x="229" y="0" type="curve" smooth="yes"/>
      <point x="349" y="0"/>
      <point x="409" y="71"/>
      <point x="409" y="206" type="curve" smooth="yes"/>
      <point x="409" y="355"/>
      <point x="311" y="469"/>
      <point x="116" y="547" type="curve"/>
      <point x="65" y="461" type="line"/>
      <point x="215" y="384"/>
      <point x="290" y="301"/>
      <point x="290" y="209" type="curve" smooth="yes"/>
      <point x="290" y="160"/>
      <point x="270" y="118"/>
      <point x="215" y="118" type="curve" smooth="yes"/>
      <point x="176" y="118"/>
      <point x="140" y="148"/>
      <point x="114" y="198" type="curve"/>
      <point x="33" y="148" type="line"/>
      <point x="73" y="49"/>
      <point x="138" y="0"/>
    </contour>
  </outline>
</glyph>
<glyph name="i.ns" format="2">
  <unicode hex="A9B6"/>
  <note>
i.ns
</note>
  <outline>
    <contour>
      <point x="-290" y="594" type="line"/>
      <point x="-261" y="613" type="line"/>
      <point x="-261" y="776" type="line" smooth="yes"/>
      <point x="-261" y="889"/>
      <point x="-330" y="947"/>
      <point x="-444" y="947" type="curve" smooth="yes"/>
      <point x="-546" y="947"/>
      <point x="-614" y="887"/>
      <point x="-614" y="792" type="curve" smooth="yes"/>
      <point x="-614" y="688"/>
      <point x="-549" y="633"/>
      <point x="-410" y="612" type="curve" smooth="yes"/>
    </contour>
    <contour>
      <point x="-388" y="714" type="line"/>
      <point x="-440" y="724" type="line" smooth="yes"/>
      <point x="-486" y="732"/>
      <point x="-509" y="753"/>
      <point x="-509" y="788" type="curve" smooth="yes"/>
      <point x="-509" y="822"/>
      <point x="-491" y="841"/>
      <point x="-455" y="841" type="curve" smooth="yes"/>
      <point x="-409" y="841"/>
      <point x="-388" y="818"/>
      <point x="-388" y="774" type="curve" smooth="yes"/>
    </contour>
  </outline>
</glyph>
<glyph name="ii.ns" format="2">
  <unicode hex="A9B7"/>
  <note>
ii.ns
</note>
  <outline>
    <contour>
      <point x="-250" y="594" type="line"/>
      <point x="-221" y="613" type="line"/>
      <point x="-221" y="796" type="line" smooth="yes"/>
      <point x="-221" y="949"/>
      <point x="-296" y="1027"/>
      <point x="-444" y="1027" type="curve" smooth="yes"/>
      <point x="-584" y="1027"/>
      <point x="-673" y="945"/>
      <point x="-673" y="827" type="curve" smooth="yes"/>
      <point x="-673" y="709"/>
      <point x="-615" y="651"/>
      <point x="-489" y="631" type="curve" smooth="yes"/>
    </contour>
    <contour>
      <point x="-348" y="714" type="line"/>
      <point x="-476" y="739" type="line" smooth="yes"/>
      <point x="-525" y="749"/>
      <point x="-555" y="781"/>
      <point x="-555" y="828" type="curve" smooth="yes"/>
      <point x="-555" y="889"/>
      <point x="-517" y="924"/>
      <point x="-459" y="924" type="curve" smooth="yes"/>
      <point x="-422" y="924"/>
      <point x="-380" y="913"/>
      <point x="-362" y="876" type="curve"/>
      <point x="-381" y="849"/>
      <point x="-400" y="831"/>
      <point x="-419" y="820" type="curve"/>
      <point x="-422" y="824" type="line"/>
      <point x="-419" y="830"/>
      <point x="-418" y="836"/>
      <point x="-418" y="841" type="curve" smooth="yes"/>
      <point x="-418" y="860"/>
      <point x="-435" y="873"/>
      <point x="-458" y="873" type="curve" smooth="yes"/>
      <point x="-486" y="873"/>
      <point x="-511" y="850"/>
      <point x="-511" y="823" type="curve" smooth="yes"/>
      <point x="-511" y="793"/>
      <point x="-481" y="773"/>
      <point x="-448" y="773" type="curve" smooth="yes"/>
      <point x="-409" y="773"/>
      <point x="-376" y="788"/>
      <point x="-348" y="817" type="curve"/>
    </contour>
  </outline>
</glyph>
<glyph name="u.ns" format="2">
  <unicode hex="A9B8"/>
  <note>
u.ns
</note>
  <outline>
    <contour>
      <point x="-14" y="-829" type="curve" smooth="yes"/>
      <point x="96" y="-829"/>
      <point x="151" y="-762"/>
      <point x="151" y="-627" type="curve" smooth="yes"/>
      <point x="151" y="-97" type="line"/>
      <point x="20" y="-97" type="line"/>
      <point x="20" y="-643" type="line" smooth="yes"/>
      <point x="20" y="-679"/>
      <point x="7" y="-697"/>
      <point x="-15" y="-697" type="curve" smooth="yes"/>
      <point x="-36" y="-697"/>
      <point x="-49" y="-679"/>
      <point x="-49" y="-643" type="curve" smooth="yes"/>
      <point x="-49" y="16" type="line"/>
      <point x="-180" y="16" type="line"/>
      <point x="-180" y="-627" type="line" smooth="yes"/>
      <point x="-180" y="-762"/>
      <point x="-125" y="-829"/>
    </contour>
  </outline>
</glyph>
<glyph name="uu.ns" format="2">
  <unicode hex="A9B9"/>
  <note>
uu.ns
</note>
  <outline>
    <contour>
      <point x="-14" y="-829" type="curve" smooth="yes"/>
      <point x="96" y="-829"/>
      <point x="151" y="-762"/>
      <point x="151" y="-627" type="curve" smooth="yes"/>
      <point x="151" y="-557" type="line" smooth="yes"/>
      <point x="151" y="-435"/>
      <point x="83" y="-360"/>
      <point x="-49" y="-334" type="curve"/>
      <point x="-49" y="-232" type="line"/>
      <point x="115" y="-232" type="line"/>
      <point x="115" y="-104" type="line"/>
      <point x="-49" y="-104" type="line"/>
      <point x="-49" y="16" type="line"/>
      <point x="-180" y="16" type="line"/>
      <point x="-180" y="-104" type="line"/>
      <point x="-232" y="-104" type="line" smooth="yes"/>
      <point x="-350" y="-104"/>
      <point x="-410" y="-170"/>
      <point x="-410" y="-276" type="curve" smooth="yes"/>
      <point x="-410" y="-369"/>
      <point x="-360" y="-429"/>
      <point x="-267" y="-445" type="curve" smooth="yes"/>
      <point x="-180" y="-460" type="line"/>
      <point x="-180" y="-627" type="line" smooth="yes"/>
      <point x="-180" y="-762"/>
      <point x="-125" y="-829"/>
    </contour>
    <contour>
      <point x="-180" y="-322" type="line"/>
      <point x="-234" y="-315" type="line" smooth="yes"/>
      <point x="-262" y="-311"/>
      <point x="-276" y="-296"/>
      <point x="-276" y="-274" type="curve" smooth="yes"/>
      <point x="-276" y="-247"/>
      <point x="-258" y="-232"/>
      <point x="-221" y="-232" type="curve" smooth="yes"/>
      <point x="-180" y="-232" type="line"/>
    </contour>
    <contour>
      <point x="-15" y="-697" type="curve" smooth="yes"/>
      <point x="-36" y="-697"/>
      <point x="-49" y="-679"/>
      <point x="-49" y="-643" type="curve" smooth="yes"/>
      <point x="-49" y="-472" type="line"/>
      <point x="-3" y="-482"/>
      <point x="20" y="-507"/>
      <point x="20" y="-546" type="curve" smooth="yes"/>
      <point x="20" y="-643" type="line" smooth="yes"/>
      <point x="20" y="-679"/>
      <point x="7" y="-697"/>
    </contour>
  </outline>
</glyph>
<glyph name="taling" format="2">
  <advance width="794"/>
  <unicode hex="A9BA"/>
  <note>
uniA9BA
</note>
  <outline>
    <contour>
      <point x="838" y="-819" type="curve"/>
      <point x="838" y="-712" type="line"/>
      <point x="776" y="-712"/>
      <point x="745" y="-680"/>
      <point x="745" y="-616" type="curve" smooth="yes"/>
      <point x="745" y="349" type="line" smooth="yes"/>
      <point x="745" y="480"/>
      <point x="684" y="546"/>
      <point x="562" y="546" type="curve" smooth="yes"/>
      <point x="497" y="546"/>
      <point x="448" y="522"/>
      <point x="415" y="474" type="curve"/>
      <point x="382" y="522"/>
      <point x="331" y="546"/>
      <point x="262" y="546" type="curve" smooth="yes"/>
      <point x="140" y="546"/>
      <point x="78" y="479"/>
      <point x="78" y="344" type="curve" smooth="yes"/>
      <point x="78" y="173" type="line" smooth="yes"/>
      <point x="78" y="121"/>
      <point x="95" y="79"/>
      <point x="128" y="49" type="curve" smooth="yes"/>
      <point x="160" y="20"/>
      <point x="211" y="3"/>
      <point x="280" y="0" type="curve"/>
      <point x="299" y="93" type="line"/>
      <point x="239" y="101"/>
      <point x="209" y="129"/>
      <point x="209" y="178" type="curve" smooth="yes"/>
      <point x="209" y="347" type="line" smooth="yes"/>
      <point x="209" y="400"/>
      <point x="233" y="426"/>
      <point x="279" y="426" type="curve" smooth="yes"/>
      <point x="326" y="426"/>
      <point x="349" y="401"/>
      <point x="349" y="350" type="curve" smooth="yes"/>
      <point x="349" y="0" type="line"/>
      <point x="479" y="0" type="line"/>
      <point x="479" y="347" type="line" smooth="yes"/>
      <point x="479" y="400"/>
      <point x="502" y="426"/>
      <point x="545" y="426" type="curve" smooth="yes"/>
      <point x="591" y="426"/>
      <point x="614" y="401"/>
      <point x="614" y="350" type="curve" smooth="yes"/>
      <point x="614" y="-595" type="line" smooth="yes"/>
      <point x="614" y="-745"/>
      <point x="689" y="-819"/>
    </contour>
  </outline>
</glyph>
<glyph name="dirgam" format="2">
  <advance width="794"/>
  <unicode hex="A9BB"/>
  <note>
uniA9BB
</note>
  <outline>
    <contour>
      <point x="838" y="-819" type="curve"/>
      <point x="838" y="-712" type="line"/>
      <point x="776" y="-712"/>
      <point x="745" y="-680"/>
      <point x="745" y="-616" type="curve" smooth="yes"/>
      <point x="745" y="349" type="line" smooth="yes"/>
      <point x="745" y="480"/>
      <point x="684" y="546"/>
      <point x="562" y="546" type="curve" smooth="yes"/>
      <point x="497" y="546"/>
      <point x="448" y="522"/>
      <point x="415" y="474" type="curve"/>
      <point x="382" y="522"/>
      <point x="331" y="546"/>
      <point x="262" y="546" type="curve" smooth="yes"/>
      <point x="140" y="546"/>
      <point x="78" y="479"/>
      <point x="78" y="344" type="curve" smooth="yes"/>
      <point x="78" y="173" type="line" smooth="yes"/>
      <point x="78" y="121"/>
      <point x="95" y="79"/>
      <point x="128" y="49" type="curve" smooth="yes"/>
      <point x="160" y="20"/>
      <point x="211" y="3"/>
      <point x="280" y="0" type="curve"/>
      <point x="299" y="93" type="line"/>
      <point x="239" y="101"/>
      <point x="209" y="129"/>
      <point x="209" y="178" type="curve" smooth="yes"/>
      <point x="209" y="347" type="line" smooth="yes"/>
      <point x="209" y="400"/>
      <point x="233" y="426"/>
      <point x="279" y="426" type="curve" smooth="yes"/>
      <point x="326" y="426"/>
      <point x="349" y="401"/>
      <point x="349" y="350" type="curve" smooth="yes"/>
      <point x="349" y="0" type="line"/>
      <point x="479" y="0" type="line"/>
      <point x="479" y="347" type="line" smooth="yes"/>
      <point x="479" y="400"/>
      <point x="502" y="426"/>
      <point x="545" y="426" type="curve" smooth="yes"/>
      <point x="591" y="426"/>
      <point x="614" y="401"/>
      <point x="614" y="350" type="curve" smooth="yes"/>
      <point x="614" y="-595" type="line" smooth="yes"/>
      <point x="614" y="-745"/>
      <point x="689" y="-819"/>
    </contour>
    <contour>
      <point x="396" y="579" type="line"/>
      <point x="479" y="624"/>
      <point x="521" y="670"/>
      <point x="521" y="718" type="curve" smooth="yes"/>
      <point x="521" y="746"/>
      <point x="511" y="775"/>
      <point x="474" y="807" type="curve" smooth="yes"/>
      <point x="448" y="830" type="line" smooth="yes"/>
      <point x="431" y="845"/>
      <point x="423" y="854"/>
      <point x="423" y="868" type="curve" smooth="yes"/>
      <point x="423" y="884"/>
      <point x="434" y="893"/>
      <point x="455" y="893" type="curve" smooth="yes"/>
      <point x="466" y="893"/>
      <point x="479" y="891"/>
      <point x="497" y="887" type="curve"/>
      <point x="497" y="959" type="line"/>
      <point x="465" y="970"/>
      <point x="438" y="975"/>
      <point x="408" y="975" type="curve" smooth="yes"/>
      <point x="340" y="975"/>
      <point x="282" y="943"/>
      <point x="282" y="877" type="curve" smooth="yes"/>
      <point x="282" y="855"/>
      <point x="293" y="834"/>
      <point x="312" y="816" type="curve" smooth="yes"/>
      <point x="334" y="795"/>
      <point x="357" y="775"/>
      <point x="379" y="755" type="curve" smooth="yes"/>
      <point x="394" y="741"/>
      <point x="402" y="729"/>
      <point x="402" y="713" type="curve" smooth="yes"/>
      <point x="402" y="693"/>
      <point x="384" y="667"/>
      <point x="348" y="634" type="curve"/>
    </contour>
  </outline>
</glyph>
<glyph name="ae.ns" format="2">
  <unicode hex="A9BC"/>
  <note>
ae.ns
</note>
  <outline>
    <contour>
      <point x="-457" y="596" type="curve"/>
      <point x="-457" y="707" type="line"/>
      <point x="-509" y="707"/>
      <point x="-549" y="717"/>
      <point x="-574" y="735" type="curve" smooth="yes"/>
      <point x="-597" y="752"/>
      <point x="-610" y="776"/>
      <point x="-610" y="807" type="curve" smooth="yes"/>
      <point x="-610" y="867"/>
      <point x="-565" y="900"/>
      <point x="-486" y="900" type="curve" smooth="yes"/>
      <point x="-425" y="900"/>
      <point x="-380" y="874"/>
      <point x="-349" y="833" type="curve" smooth="yes"/>
      <point x="-311" y="783"/>
      <point x="-292" y="712"/>
      <point x="-287" y="634" type="curve"/>
      <point x="-183" y="634" type="line"/>
      <point x="-183" y="815"/>
      <point x="-236" y="931"/>
      <point x="-343" y="985" type="curve" smooth="yes"/>
      <point x="-392" y="1010"/>
      <point x="-443" y="1022"/>
      <point x="-496" y="1022" type="curve" smooth="yes"/>
      <point x="-643" y="1022"/>
      <point x="-738" y="952"/>
      <point x="-738" y="803" type="curve" smooth="yes"/>
      <point x="-738" y="742"/>
      <point x="-713" y="688"/>
      <point x="-662" y="651" type="curve" smooth="yes"/>
      <point x="-614" y="616"/>
      <point x="-546" y="596"/>
    </contour>
  </outline>
</glyph>
<glyph name="keret.ns" format="2">
  <unicode hex="A9BD"/>
  <note>
keret.ns
</note>
  <outline>
    <contour>
      <point x="-392" y="-825" type="curve" smooth="yes"/>
      <point x="-156" y="-825"/>
      <point x="26" y="-708"/>
      <point x="26" y="-479" type="curve" smooth="yes"/>
      <point x="26" y="-333"/>
      <point x="-47" y="-227"/>
      <point x="-195" y="-161" type="curve"/>
      <point x="-195" y="-161" type="line" smooth="yes"/>
      <point x="-98" y="-127"/>
      <point x="-49" y="-73"/>
      <point x="-49" y="0" type="curve" smooth="yes"/>
      <point x="-49" y="5" type="line"/>
      <point x="-179" y="5" type="line"/>
      <point x="-179" y="1" type="line" smooth="yes"/>
      <point x="-179" y="-52"/>
      <point x="-238" y="-91"/>
      <point x="-355" y="-114" type="curve"/>
      <point x="-355" y="-207" type="line"/>
      <point x="-210" y="-247"/>
      <point x="-111" y="-326"/>
      <point x="-111" y="-465" type="curve" smooth="yes"/>
      <point x="-111" y="-623"/>
      <point x="-214" y="-701"/>
      <point x="-378" y="-701" type="curve" smooth="yes"/>
      <point x="-405" y="-701"/>
      <point x="-434" y="-698"/>
      <point x="-464" y="-691" type="curve"/>
      <point x="-464" y="-675"/>
      <point x="-464" y="-659"/>
      <point x="-464" y="-643" type="curve" smooth="yes"/>
      <point x="-464" y="-507"/>
      <point x="-510" y="-404"/>
      <point x="-625" y="-404" type="curve" smooth="yes"/>
      <point x="-720" y="-404"/>
      <point x="-773" y="-464"/>
      <point x="-773" y="-555" type="curve" smooth="yes"/>
      <point x="-773" y="-727"/>
      <point x="-583" y="-825"/>
    </contour>
    <contour>
      <point x="-573" y="-660" type="curve"/>
      <point x="-630" y="-636"/>
      <point x="-659" y="-602"/>
      <point x="-659" y="-556" type="curve" smooth="yes"/>
      <point x="-659" y="-530"/>
      <point x="-649" y="-522"/>
      <point x="-622" y="-522" type="curve" smooth="yes"/>
      <point x="-591" y="-522"/>
      <point x="-573" y="-574"/>
    </contour>
  </outline>
</glyph>
<glyph name="pengkal" format="2">
  <advance width="483"/>
  <unicode hex="A9BE"/>
  <note>
pengkal
</note>
  <outline>
    <contour>
      <point x="-252" y="-829" type="curve" smooth="yes"/>
      <point x="47" y="-829"/>
      <point x="198" y="-712"/>
      <point x="198" y="-486" type="curve" smooth="yes"/>
      <point x="198" y="347" type="line" smooth="yes"/>
      <point x="198" y="396"/>
      <point x="217" y="421"/>
      <point x="251" y="421" type="curve" smooth="yes"/>
      <point x="286" y="421"/>
      <point x="304" y="397"/>
      <point x="304" y="350" type="curve" smooth="yes"/>
      <point x="304" y="-595" type="line" smooth="yes"/>
      <point x="304" y="-745"/>
      <point x="378" y="-819"/>
      <point x="528" y="-819" type="curve"/>
      <point x="528" y="-712" type="line"/>
      <point x="466" y="-712"/>
      <point x="435" y="-680"/>
      <point x="435" y="-616" type="curve" smooth="yes"/>
      <point x="435" y="349" type="line" smooth="yes"/>
      <point x="435" y="480"/>
      <point x="374" y="546"/>
      <point x="251" y="546" type="curve" smooth="yes"/>
      <point x="129" y="546"/>
      <point x="67" y="479"/>
      <point x="67" y="344" type="curve" smooth="yes"/>
      <point x="67" y="-480" type="line" smooth="yes"/>
      <point x="67" y="-621"/>
      <point x="-44" y="-695"/>
      <point x="-257" y="-695" type="curve" smooth="yes"/>
      <point x="-426" y="-695"/>
      <point x="-541" y="-624"/>
      <point x="-541" y="-494" type="curve" smooth="yes"/>
      <point x="-541" y="-389"/>
      <point x="-448" y="-315"/>
      <point x="-338" y="-272" type="curve" smooth="yes"/>
      <point x="-155" y="-200"/>
      <point x="-49" y="-106"/>
      <point x="-49" y="-5" type="curve" smooth="yes"/>
      <point x="-49" y="16" type="line"/>
      <point x="-180" y="16" type="line"/>
      <point x="-180" y="-7" type="line" smooth="yes"/>
      <point x="-180" y="-52"/>
      <point x="-262" y="-107"/>
      <point x="-424" y="-174" type="curve" smooth="yes"/>
      <point x="-601" y="-247"/>
      <point x="-689" y="-358"/>
      <point x="-689" y="-508" type="curve" smooth="yes"/>
      <point x="-689" y="-720"/>
      <point x="-543" y="-829"/>
    </contour>
  </outline>
</glyph>
<glyph name="cakra" format="2">
  <advance width="285"/>
  <unicode hex="A9BF"/>
  <note>
cakra
</note>
  <outline>
    <contour>
      <point x="346" y="-210" type="curve" smooth="yes"/>
      <point x="404" y="-210"/>
      <point x="460" y="-191"/>
      <point x="514" y="-154" type="curve"/>
      <point x="478" y="-47" type="line"/>
      <point x="435" y="-71"/>
      <point x="394" y="-83"/>
      <point x="357" y="-83" type="curve" smooth="yes"/>
      <point x="261" y="-83"/>
      <point x="209" y="-24"/>
      <point x="209" y="92" type="curve" smooth="yes"/>
      <point x="209" y="274"/>
      <point x="279" y="477"/>
      <point x="412" y="699" type="curve"/>
      <point x="333" y="750" type="line"/>
      <point x="160" y="524"/>
      <point x="73" y="300"/>
      <point x="73" y="75" type="curve" smooth="yes"/>
      <point x="73" y="-100"/>
      <point x="165" y="-210"/>
    </contour>
  </outline>
</glyph>
<glyph name="pangkon" format="2">
  <advance width="479"/>
  <unicode hex="A9C0"/>
  <note>
pangkon
</note>
  <outline>
    <contour>
      <point x="-145" y="-819" type="curve" smooth="yes"/>
      <point x="70" y="-819"/>
      <point x="193" y="-733"/>
      <point x="193" y="-526" type="curve" smooth="yes"/>
      <point x="193" y="347" type="line" smooth="yes"/>
      <point x="193" y="396"/>
      <point x="212" y="421"/>
      <point x="247" y="421" type="curve" smooth="yes"/>
      <point x="281" y="421"/>
      <point x="299" y="397"/>
      <point x="299" y="350" type="curve" smooth="yes"/>
      <point x="299" y="-595" type="line" smooth="yes"/>
      <point x="299" y="-745"/>
      <point x="374" y="-819"/>
      <point x="523" y="-819" type="curve"/>
      <point x="523" y="-712" type="line"/>
      <point x="461" y="-712"/>
      <point x="430" y="-680"/>
      <point x="430" y="-616" type="curve" smooth="yes"/>
      <point x="430" y="349" type="line" smooth="yes"/>
      <point x="430" y="480"/>
      <point x="369" y="546"/>
      <point x="247" y="546" type="curve" smooth="yes"/>
      <point x="125" y="546"/>
      <point x="63" y="479"/>
      <point x="63" y="344" type="curve" smooth="yes"/>
      <point x="63" y="-530" type="line" smooth="yes"/>
      <point x="63" y="-654"/>
      <point x="-15" y="-690"/>
      <point x="-145" y="-690" type="curve" smooth="yes"/>
      <point x="-207" y="-690"/>
      <point x="-238" y="-673"/>
      <point x="-238" y="-641" type="curve" smooth="yes"/>
      <point x="-238" y="-600"/>
      <point x="-185" y="-567"/>
      <point x="-67" y="-531" type="curve"/>
      <point x="-103" y="-428" type="line"/>
      <point x="-288" y="-471"/>
      <point x="-378" y="-550"/>
      <point x="-378" y="-664" type="curve" smooth="yes"/>
      <point x="-378" y="-774"/>
      <point x="-277" y="-819"/>
    </contour>
  </outline>
</glyph>
<glyph name="uniA9C1" format="2">
  <advance width="1566"/>
  <unicode hex="A9C1"/>
  <note>
uniA9C1
</note>
  <outline>
    <contour>
      <point x="579" y="42" type="curve" smooth="yes"/>
      <point x="785" y="42"/>
      <point x="1023" y="83"/>
      <point x="1292" y="153" type="curve"/>
      <point x="1275" y="177"/>
      <point x="1265" y="204"/>
      <point x="1262" y="235" type="curve"/>
      <point x="1033" y="179"/>
      <point x="808" y="151"/>
      <point x="586" y="151" type="curve" smooth="yes"/>
      <point x="392" y="151"/>
      <point x="272" y="181"/>
      <point x="227" y="236" type="curve"/>
      <point x="263" y="256"/>
      <point x="285" y="290"/>
      <point x="285" y="330" type="curve" smooth="yes"/>
      <point x="285" y="388"/>
      <point x="238" y="434"/>
      <point x="182" y="434" type="curve" smooth="yes"/>
      <point x="108" y="434"/>
      <point x="54" y="380"/>
      <point x="54" y="311" type="curve" smooth="yes"/>
      <point x="54" y="223"/>
      <point x="98" y="162"/>
      <point x="168" y="121" type="curve" smooth="yes"/>
      <point x="269" y="61"/>
      <point x="423" y="42"/>
    </contour>
    <contour>
      <point x="788" y="-270" type="curve" smooth="yes"/>
      <point x="895" y="-270"/>
      <point x="994" y="-239"/>
      <point x="1084" y="-186" type="curve" smooth="yes"/>
      <point x="1195" y="-121"/>
      <point x="1295" y="-23"/>
      <point x="1386" y="93" type="curve"/>
      <point x="1356" y="100"/>
      <point x="1331" y="114"/>
      <point x="1309" y="136" type="curve"/>
      <point x="1219" y="37"/>
      <point x="1129" y="-45"/>
      <point x="1032" y="-98" type="curve" smooth="yes"/>
      <point x="958" y="-139"/>
      <point x="879" y="-163"/>
      <point x="793" y="-163" type="curve" smooth="yes"/>
      <point x="767" y="-163"/>
      <point x="748" y="-159"/>
      <point x="736" y="-150" type="curve"/>
      <point x="748" y="-135"/>
      <point x="754" y="-117"/>
      <point x="754" y="-96" type="curve" smooth="yes"/>
      <point x="754" y="-44"/>
      <point x="714" y="-3"/>
      <point x="662" y="-3" type="curve" smooth="yes"/>
      <point x="603" y="-3"/>
      <point x="564" y="-48"/>
      <point x="564" y="-106" type="curve" smooth="yes"/>
      <point x="564" y="-223"/>
      <point x="662" y="-270"/>
    </contour>
    <contour>
      <point x="1232" y="-404" type="curve" smooth="yes"/>
      <point x="1322" y="-404"/>
      <point x="1401" y="-352"/>
      <point x="1446" y="-263" type="curve" smooth="yes"/>
      <point x="1473" y="-210"/>
      <point x="1488" y="-121"/>
      <point x="1488" y="4" type="curve" smooth="yes"/>
      <point x="1488" y="34"/>
      <point x="1488" y="66"/>
      <point x="1486" y="100" type="curve"/>
      <point x="1467" y="92"/>
      <point x="1447" y="88"/>
      <point x="1424" y="88" type="curve" smooth="yes"/>
      <point x="1420" y="88"/>
      <point x="1413" y="88"/>
      <point x="1404" y="89" type="curve" smooth="yes"/>
      <point x="1404" y="89" type="line"/>
      <point x="1404" y="-82"/>
      <point x="1384" y="-275"/>
      <point x="1279" y="-303" type="curve"/>
      <point x="1280" y="-297"/>
      <point x="1281" y="-291"/>
      <point x="1281" y="-283" type="curve" smooth="yes"/>
      <point x="1281" y="-231"/>
      <point x="1240" y="-190"/>
      <point x="1188" y="-190" type="curve" smooth="yes"/>
      <point x="1137" y="-190"/>
      <point x="1096" y="-231"/>
      <point x="1096" y="-283" type="curve" smooth="yes"/>
      <point x="1096" y="-361"/>
      <point x="1155" y="-404"/>
    </contour>
    <contour>
      <point x="1261" y="268" type="curve"/>
      <point x="1264" y="296"/>
      <point x="1273" y="323"/>
      <point x="1290" y="347" type="curve"/>
      <point x="915" y="378"/>
      <point x="710" y="464"/>
      <point x="677" y="604" type="curve"/>
      <point x="680" y="604" type="line" smooth="yes"/>
      <point x="728" y="604"/>
      <point x="772" y="642"/>
      <point x="772" y="697" type="curve" smooth="yes"/>
      <point x="772" y="750"/>
      <point x="732" y="790"/>
      <point x="680" y="790" type="curve" smooth="yes"/>
      <point x="599" y="790"/>
      <point x="552" y="730"/>
      <point x="552" y="646" type="curve" smooth="yes"/>
      <point x="552" y="365"/>
      <point x="934" y="268"/>
    </contour>
    <contour>
      <point x="1424" y="160" type="curve" smooth="yes"/>
      <point x="1476" y="160"/>
      <point x="1517" y="201"/>
      <point x="1517" y="252" type="curve" smooth="yes"/>
      <point x="1517" y="304"/>
      <point x="1476" y="345"/>
      <point x="1424" y="345" type="curve" smooth="yes"/>
      <point x="1372" y="345"/>
      <point x="1332" y="304"/>
      <point x="1332" y="252" type="curve" smooth="yes"/>
      <point x="1332" y="201"/>
      <point x="1373" y="160"/>
    </contour>
    <contour>
      <point x="1305" y="365" type="curve"/>
      <point x="1330" y="390"/>
      <point x="1353" y="405"/>
      <point x="1386" y="412" type="curve"/>
      <point x="1249" y="498"/>
      <point x="1144" y="600"/>
      <point x="1130" y="704" type="curve" smooth="yes"/>
      <point x="1129" y="709"/>
      <point x="1128" y="706"/>
      <point x="1128" y="719" type="curve"/>
      <point x="1128" y="706"/>
      <point x="1120" y="704"/>
      <point x="1130" y="704" type="curve" smooth="yes"/>
      <point x="1173" y="706"/>
      <point x="1214" y="745"/>
      <point x="1214" y="795" type="curve" smooth="yes"/>
      <point x="1214" y="847"/>
      <point x="1173" y="888"/>
      <point x="1122" y="888" type="curve" smooth="yes"/>
      <point x="1042" y="888"/>
      <point x="990" y="839"/>
      <point x="990" y="749" type="curve" smooth="yes"/>
      <point x="990" y="599"/>
      <point x="1142" y="443"/>
    </contour>
  </outline>
</glyph>
<glyph name="uniA9C2" format="2">
  <advance width="1566"/>
  <unicode hex="A9C2"/>
  <note>
uniA9C2
</note>
  <outline>
    <contour>
      <point x="1413" y="71" type="curve" smooth="yes"/>
      <point x="1494" y="71"/>
      <point x="1540" y="124"/>
      <point x="1540" y="200" type="curve" smooth="yes"/>
      <point x="1540" y="297"/>
      <point x="1482" y="361"/>
      <point x="1392" y="402" type="curve" smooth="yes"/>
      <point x="1295" y="446"/>
      <point x="1159" y="462"/>
      <point x="1016" y="462" type="curve" smooth="yes"/>
      <point x="810" y="462"/>
      <point x="571" y="422"/>
      <point x="302" y="351" type="curve"/>
      <point x="320" y="327"/>
      <point x="330" y="300"/>
      <point x="333" y="270" type="curve"/>
      <point x="562" y="326"/>
      <point x="787" y="354"/>
      <point x="1008" y="354" type="curve" smooth="yes"/>
      <point x="1203" y="354"/>
      <point x="1323" y="323"/>
      <point x="1368" y="268" type="curve"/>
      <point x="1330" y="247"/>
      <point x="1310" y="216"/>
      <point x="1310" y="174" type="curve" smooth="yes"/>
      <point x="1310" y="115"/>
      <point x="1354" y="71"/>
    </contour>
    <contour>
      <point x="473" y="-384" type="curve" smooth="yes"/>
      <point x="553" y="-384"/>
      <point x="604" y="-333"/>
      <point x="604" y="-244" type="curve" smooth="yes"/>
      <point x="604" y="-92"/>
      <point x="454" y="58"/>
      <point x="290" y="140" type="curve"/>
      <point x="268" y="116"/>
      <point x="247" y="101"/>
      <point x="209" y="92" type="curve"/>
      <point x="323" y="21"/>
      <point x="449" y="-76"/>
      <point x="464" y="-199" type="curve"/>
      <point x="417" y="-204"/>
      <point x="381" y="-243"/>
      <point x="381" y="-291" type="curve" smooth="yes"/>
      <point x="381" y="-342"/>
      <point x="423" y="-384"/>
    </contour>
    <contour>
      <point x="170" y="160" type="curve" smooth="yes"/>
      <point x="222" y="160"/>
      <point x="263" y="201"/>
      <point x="263" y="252" type="curve" smooth="yes"/>
      <point x="263" y="304"/>
      <point x="222" y="345"/>
      <point x="170" y="345" type="curve" smooth="yes"/>
      <point x="119" y="345"/>
      <point x="78" y="304"/>
      <point x="78" y="252" type="curve" smooth="yes"/>
      <point x="78" y="201"/>
      <point x="119" y="160"/>
    </contour>
    <contour>
      <point x="915" y="-285" type="curve" smooth="yes"/>
      <point x="994" y="-285"/>
      <point x="1042" y="-230"/>
      <point x="1042" y="-142" type="curve" smooth="yes"/>
      <point x="1042" y="142"/>
      <point x="663" y="234"/>
      <point x="333" y="237" type="curve"/>
      <point x="331" y="207"/>
      <point x="321" y="181"/>
      <point x="305" y="158" type="curve"/>
      <point x="680" y="126"/>
      <point x="885" y="41"/>
      <point x="917" y="-100" type="curve"/>
      <point x="863" y="-100"/>
      <point x="822" y="-141"/>
      <point x="822" y="-192" type="curve" smooth="yes"/>
      <point x="822" y="-244"/>
      <point x="863" y="-285"/>
    </contour>
    <contour>
      <point x="108" y="404" type="curve"/>
      <point x="127" y="412"/>
      <point x="148" y="416"/>
      <point x="170" y="416" type="curve" smooth="yes"/>
      <point x="175" y="416"/>
      <point x="182" y="416"/>
      <point x="191" y="415" type="curve"/>
      <point x="190" y="426"/>
      <point x="190" y="437"/>
      <point x="190" y="447" type="curve" smooth="yes"/>
      <point x="190" y="567"/>
      <point x="211" y="780"/>
      <point x="316" y="807" type="curve"/>
      <point x="314" y="802"/>
      <point x="314" y="795"/>
      <point x="314" y="788" type="curve" smooth="yes"/>
      <point x="314" y="736"/>
      <point x="355" y="695"/>
      <point x="406" y="695" type="curve" smooth="yes"/>
      <point x="458" y="695"/>
      <point x="499" y="736"/>
      <point x="499" y="788" type="curve" smooth="yes"/>
      <point x="499" y="866"/>
      <point x="442" y="908"/>
      <point x="365" y="908" type="curve" smooth="yes"/>
      <point x="276" y="908"/>
      <point x="217" y="869"/>
      <point x="173" y="808" type="curve" smooth="yes"/>
      <point x="120" y="734"/>
      <point x="106" y="623"/>
      <point x="106" y="490" type="curve" smooth="yes"/>
      <point x="106" y="463"/>
      <point x="106" y="434"/>
    </contour>
    <contour>
      <point x="286" y="369" type="curve"/>
      <point x="442" y="540"/>
      <point x="602" y="667"/>
      <point x="801" y="667" type="curve" smooth="yes"/>
      <point x="828" y="667"/>
      <point x="847" y="663"/>
      <point x="858" y="655" type="curve"/>
      <point x="847" y="639"/>
      <point x="841" y="621"/>
      <point x="841" y="601" type="curve" smooth="yes"/>
      <point x="841" y="549"/>
      <point x="882" y="508"/>
      <point x="933" y="508" type="curve" smooth="yes"/>
      <point x="991" y="508"/>
      <point x="1030" y="553"/>
      <point x="1030" y="610" type="curve" smooth="yes"/>
      <point x="1030" y="727"/>
      <point x="934" y="774"/>
      <point x="807" y="774" type="curve" smooth="yes"/>
      <point x="567" y="774"/>
      <point x="379" y="623"/>
      <point x="208" y="411" type="curve"/>
      <point x="238" y="405"/>
      <point x="264" y="391"/>
    </contour>
  </outline>
</glyph>
<glyph name="uniA9C3" format="2">
  <advance width="2383"/>
  <unicode hex="A9C3"/>
  <note>
uniA9C3
</note>
  <outline>
    <contour>
      <point x="2407" y="-819" type="curve"/>
      <point x="2407" y="-712" type="line"/>
      <point x="2345" y="-712"/>
      <point x="2314" y="-680"/>
      <point x="2314" y="-616" type="curve" smooth="yes"/>
      <point x="2314" y="-409" type="line"/>
      <point x="2422" y="-449"/>
      <point x="2530" y="-498"/>
      <point x="2636" y="-556" type="curve"/>
      <point x="2668" y="-483" type="line"/>
      <point x="2549" y="-408"/>
      <point x="2431" y="-347"/>
      <point x="2314" y="-300" type="curve"/>
      <point x="2314" y="344" type="line" smooth="yes"/>
      <point x="2314" y="479"/>
      <point x="2253" y="546"/>
      <point x="2131" y="546" type="curve" smooth="yes"/>
      <point x="2009" y="546"/>
      <point x="1947" y="477"/>
      <point x="1947" y="339" type="curve" smooth="yes"/>
      <point x="1947" y="-197" type="line"/>
      <point x="1908" y="-189"/>
      <point x="1873" y="-184"/>
      <point x="1841" y="-180" type="curve"/>
      <point x="1841" y="344" type="line" smooth="yes"/>
      <point x="1841" y="479"/>
      <point x="1780" y="546"/>
      <point x="1658" y="546" type="curve" smooth="yes"/>
      <point x="1536" y="546"/>
      <point x="1474" y="477"/>
      <point x="1474" y="339" type="curve" smooth="yes"/>
      <point x="1474" y="-156" type="line"/>
      <point x="1163" y="-157"/>
      <point x="954" y="-200"/>
      <point x="848" y="-286" type="curve"/>
      <point x="848" y="-371" type="line"/>
      <point x="874" y="-365"/>
      <point x="896" y="-362"/>
      <point x="917" y="-362" type="curve" smooth="yes"/>
      <point x="960" y="-362"/>
      <point x="982" y="-371"/>
      <point x="982" y="-387" type="curve" smooth="yes"/>
      <point x="982" y="-410"/>
      <point x="952" y="-426"/>
      <point x="891" y="-426" type="curve" smooth="yes"/>
      <point x="800" y="-426"/>
      <point x="754" y="-394"/>
      <point x="754" y="-329" type="curve" smooth="yes"/>
      <point x="754" y="-222"/>
      <point x="878" y="-183"/>
      <point x="1007" y="-175" type="curve"/>
      <point x="1007" y="-93" type="line"/>
      <point x="933" y="-93"/>
      <point x="861" y="-105"/>
      <point x="794" y="-128" type="curve" smooth="yes"/>
      <point x="694" y="-163"/>
      <point x="623" y="-245"/>
      <point x="623" y="-342" type="curve" smooth="yes"/>
      <point x="623" y="-468"/>
      <point x="744" y="-534"/>
      <point x="889" y="-534" type="curve" smooth="yes"/>
      <point x="995" y="-534"/>
      <point x="1117" y="-498"/>
      <point x="1117" y="-405" type="curve" smooth="yes"/>
      <point x="1117" y="-348"/>
      <point x="1070" y="-316"/>
      <point x="989" y="-310" type="curve"/>
      <point x="1084" y="-272"/>
      <point x="1236" y="-253"/>
      <point x="1444" y="-253" type="curve" smooth="yes"/>
      <point x="1474" y="-253" type="line"/>
      <point x="1474" y="-334" type="line" smooth="yes"/>
      <point x="1474" y="-568"/>
      <point x="1265" y="-690"/>
      <point x="856" y="-690" type="curve" smooth="yes"/>
      <point x="646" y="-690"/>
      <point x="484" y="-627"/>
      <point x="368" y="-504" type="curve" smooth="yes"/>
      <point x="270" y="-401"/>
      <point x="205" y="-256"/>
      <point x="171" y="-72" type="curve"/>
      <point x="59" y="-94" type="line"/>
      <point x="94" y="-317"/>
      <point x="175" y="-497"/>
      <point x="301" y="-623" type="curve" smooth="yes"/>
      <point x="435" y="-756"/>
      <point x="619" y="-829"/>
      <point x="856" y="-829" type="curve" smooth="yes"/>
      <point x="1354" y="-829"/>
      <point x="1605" y="-663"/>
      <point x="1605" y="-339" type="curve" smooth="yes"/>
      <point x="1605" y="-258" type="line"/>
      <point x="1640" y="-260"/>
      <point x="1675" y="-263"/>
      <point x="1710" y="-267" type="curve"/>
      <point x="1710" y="-618" type="line" smooth="yes"/>
      <point x="1710" y="-759"/>
      <point x="1771" y="-829"/>
      <point x="1894" y="-829" type="curve" smooth="yes"/>
      <point x="2016" y="-829"/>
      <point x="2078" y="-757"/>
      <point x="2078" y="-613" type="curve" smooth="yes"/>
      <point x="2078" y="-334" type="line"/>
      <point x="2119" y="-345"/>
      <point x="2154" y="-355"/>
      <point x="2183" y="-364" type="curve"/>
      <point x="2183" y="-595" type="line" smooth="yes"/>
      <point x="2183" y="-745"/>
      <point x="2258" y="-819"/>
    </contour>
    <contour>
      <point x="532" y="0" type="curve"/>
      <point x="550" y="93" type="line"/>
      <point x="494" y="101"/>
      <point x="465" y="129"/>
      <point x="465" y="178" type="curve" smooth="yes"/>
      <point x="465" y="347" type="line" smooth="yes"/>
      <point x="465" y="396"/>
      <point x="489" y="421"/>
      <point x="533" y="421" type="curve" smooth="yes"/>
      <point x="578" y="421"/>
      <point x="600" y="397"/>
      <point x="600" y="350" type="curve" smooth="yes"/>
      <point x="600" y="187" type="line" smooth="yes"/>
      <point x="600" y="63"/>
      <point x="668" y="0"/>
      <point x="804" y="0" type="curve" smooth="yes"/>
      <point x="1034" y="0" type="line"/>
      <point x="1051" y="30" type="line"/>
      <point x="946" y="219" type="line"/>
      <point x="856" y="219" type="line"/>
      <point x="904" y="122" type="line"/>
      <point x="799" y="122" type="line" smooth="yes"/>
      <point x="754" y="122"/>
      <point x="731" y="145"/>
      <point x="731" y="190" type="curve" smooth="yes"/>
      <point x="731" y="349" type="line" smooth="yes"/>
      <point x="731" y="480"/>
      <point x="665" y="546"/>
      <point x="533" y="546" type="curve" smooth="yes"/>
      <point x="398" y="546"/>
      <point x="330" y="479"/>
      <point x="330" y="344" type="curve" smooth="yes"/>
      <point x="330" y="173" type="line" smooth="yes"/>
      <point x="330" y="56"/>
      <point x="407" y="5"/>
    </contour>
    <contour>
      <point x="1894" y="-705" type="curve" smooth="yes"/>
      <point x="1859" y="-705"/>
      <point x="1841" y="-676"/>
      <point x="1841" y="-619" type="curve" smooth="yes"/>
      <point x="1841" y="-284" type="line"/>
      <point x="1876" y="-289"/>
      <point x="1912" y="-296"/>
      <point x="1947" y="-303" type="curve"/>
      <point x="1947" y="-616" type="line" smooth="yes"/>
      <point x="1947" y="-675"/>
      <point x="1928" y="-705"/>
    </contour>
    <contour>
      <point x="1227" y="0" type="line"/>
      <point x="1358" y="0" type="line"/>
      <point x="1358" y="362" type="line" smooth="yes"/>
      <point x="1358" y="484"/>
      <point x="1299" y="546"/>
      <point x="1185" y="546" type="curve" smooth="yes"/>
      <point x="1119" y="546"/>
      <point x="1076" y="522"/>
      <point x="1058" y="476" type="curve"/>
      <point x="1035" y="524"/>
      <point x="987" y="548"/>
      <point x="915" y="548" type="curve" smooth="yes"/>
      <point x="829" y="548"/>
      <point x="769" y="489"/>
      <point x="769" y="410" type="curve" smooth="yes"/>
      <point x="769" y="322"/>
      <point x="822" y="271"/>
      <point x="927" y="257" type="curve"/>
      <point x="956" y="326" type="line"/>
      <point x="911" y="338"/>
      <point x="888" y="358"/>
      <point x="888" y="384" type="curve" smooth="yes"/>
      <point x="888" y="411"/>
      <point x="906" y="424"/>
      <point x="937" y="424" type="curve" smooth="yes"/>
      <point x="979" y="424"/>
      <point x="1004" y="393"/>
      <point x="1010" y="335" type="curve"/>
      <point x="1103" y="335" type="line"/>
      <point x="1109" y="393"/>
      <point x="1130" y="421"/>
      <point x="1165" y="421" type="curve" smooth="yes"/>
      <point x="1207" y="421"/>
      <point x="1227" y="399"/>
      <point x="1227" y="355" type="curve" smooth="yes"/>
    </contour>
    <contour>
      <point x="1710" y="-165" type="line"/>
      <point x="1671" y="-161"/>
      <point x="1636" y="-159"/>
      <point x="1605" y="-158" type="curve"/>
      <point x="1605" y="342" type="line" smooth="yes"/>
      <point x="1605" y="395"/>
      <point x="1624" y="421"/>
      <point x="1658" y="421" type="curve" smooth="yes"/>
      <point x="1693" y="421"/>
      <point x="1710" y="396"/>
      <point x="1710" y="345" type="curve" smooth="yes"/>
    </contour>
    <contour>
      <point x="2183" y="-253" type="line"/>
      <point x="2144" y="-241"/>
      <point x="2096" y="-229"/>
      <point x="2078" y="-225" type="curve"/>
      <point x="2078" y="342" type="line" smooth="yes"/>
      <point x="2078" y="395"/>
      <point x="2096" y="421"/>
      <point x="2131" y="421" type="curve" smooth="yes"/>
      <point x="2166" y="421"/>
      <point x="2183" y="396"/>
      <point x="2183" y="345" type="curve" smooth="yes"/>
    </contour>
  </outline>
</glyph>
